<svg id="Layer_1" data-name="Layer 1" xmlns="http://www.w3.org/2000/svg" xmlns:xlink="http://www.w3.org/1999/xlink" viewBox="0 0 150 116.66"><defs><style>.cls-1{fill:url(#linear-gradient);}.cls-2{fill:url(#linear-gradient-2);}.cls-3{fill:url(#linear-gradient-3);}.cls-4{fill:url(#linear-gradient-4);}.cls-5{fill:url(#linear-gradient-5);}.cls-6{fill:url(#linear-gradient-6);}.cls-7{fill:url(#linear-gradient-7);}</style><linearGradient id="linear-gradient" x1="145.6489" y1="231.9256" x2="145.6489" y2="100.1574" gradientUnits="userSpaceOnUse"><stop offset="0" stop-color="#f7931e"/><stop offset="1" stop-color="#f15a24"/></linearGradient><linearGradient id="linear-gradient-2" x1="97.383" y1="160.4475" x2="193.3992" y2="160.4475" gradientUnits="userSpaceOnUse"><stop offset="0.5" stop-color="#f7931e"/><stop offset="0.5" stop-color="#f15a24"/></linearGradient><linearGradient id="linear-gradient-3" x1="145.6489" y1="162.8975" x2="145.6489" y2="105.1275" xlink:href="#linear-gradient"/><linearGradient id="linear-gradient-4" x1="145.6489" y1="128.6674" x2="145.6489" y2="107.8975" xlink:href="#linear-gradient"/><linearGradient id="linear-gradient-5" x1="145.6489" y1="149.1475" x2="145.6489" y2="121.7874" xlink:href="#linear-gradient"/><linearGradient id="linear-gradient-6" x1="190.233" y1="165.8843" x2="101.5735" y2="164.7353" xlink:href="#linear-gradient"/><linearGradient id="linear-gradient-7" x1="190.2204" y1="166.856" x2="101.5609" y2="165.7071" gradientUnits="userSpaceOnUse"><stop offset="0.4952" stop-color="#f7931e"/><stop offset="0.5149" stop-color="#f15a24"/></linearGradient></defs><title>cargo</title><path class="cls-1" d="M200.4089,123.3775c.16,1.69.24,3.41.24,5.14a54.7616,54.7616,0,0,1-5,22.94v37l-25,8.33-25,8.34-25-8.34-25-8.33v-37a54.7631,54.7631,0,0,1-5-22.94c0-1.73.08-3.45.24-5.14l-20.24,6.75v66.66l25,8.34,25,8.33,25,8.33,25-8.33,25-8.33,25-8.34v-66.66Z" transform="translate(-70.6489 -105.1275)"/><path class="cls-2" d="M170.6489,177.5175v2.61l25-8.34v16.67l-25,8.33-25,8.34-25-8.34-25-8.33v-16.67l25,8.34v-2.61a55.17,55.17,0,0,1-22.71-21.63c-.83-1.44-1.6-2.92-2.29-4.43a54.7631,54.7631,0,0,1-5-22.94c0-1.73.08-3.45.24-5.14l4.76-1.59,18.07-6.02a34.1668,34.1668,0,0,0-2.45,12.75,35.2966,35.2966,0,0,0,.31,4.63,33.9143,33.9143,0,0,0,3.94,11.93,34.3819,34.3819,0,0,0,60.26,0,33.9165,33.9165,0,0,0,3.94-11.93,35.2967,35.2967,0,0,0,.31-4.63,34.1687,34.1687,0,0,0-2.45-12.75l18.07,6.02,4.76,1.59c.16,1.69.24,3.41.24,5.14a54.7616,54.7616,0,0,1-5,22.94c-.69,1.51-1.46,2.99-2.29,4.43A55.171,55.171,0,0,1,170.6489,177.5175Z" transform="translate(-70.6489 -105.1275)"/><path class="cls-3" d="M177.5789,115.7675l-6.93-2.31-25-8.33-25,8.33-6.93,2.31a34.1668,34.1668,0,0,0-2.45,12.75,35.2966,35.2966,0,0,0,.31,4.63,33.9143,33.9143,0,0,0,3.94,11.93,34.3819,34.3819,0,0,0,60.26,0,33.9165,33.9165,0,0,0,3.94-11.93,35.2967,35.2967,0,0,0,.31-4.63A34.1687,34.1687,0,0,0,177.5789,115.7675Zm-11.31,12.9a21.16,21.16,0,0,1-.24,3,20.6205,20.6205,0,0,1-40.76,0,21.1892,21.1892,0,0,1-.24-3v-.15a20.62,20.62,0,1,1,41.24,0Z" transform="translate(-70.6489 -105.1275)"/><path class="cls-4" d="M166.2689,128.5175v.15l-16.2-5.41-4.42-1.47-4.42,1.47-16.2,5.41v-.15a20.62,20.62,0,1,1,41.24,0Z" transform="translate(-70.6489 -105.1275)"/><path class="cls-5" d="M166.2689,128.6674a21.16,21.16,0,0,1-.24,3,20.6205,20.6205,0,0,1-40.76,0,21.1892,21.1892,0,0,1-.24-3l16.2-5.41,4.42-1.47,4.42,1.47Z" transform="translate(-70.6489 -105.1275)"/><path class="cls-6" d="M195.6489,151.4575v20.33l-25,8.34v-2.61a55.171,55.171,0,0,0,22.71-21.63C194.189,154.4475,194.959,152.9675,195.6489,151.4575Z" transform="translate(-70.6489 -105.1275)"/><path class="cls-7" d="M120.6489,177.5175v2.61l-25-8.34v-20.33c.69,1.51,1.46,2.99,2.29,4.43A55.17,55.17,0,0,0,120.6489,177.5175Z" transform="translate(-70.6489 -105.1275)"/></svg>