<?xml version="1.0" standalone="no"?>
<!DOCTYPE svg PUBLIC "-//W3C//DTD SVG 1.1//EN" "http://www.w3.org/Graphics/SVG/1.1/DTD/svg11.dtd" >
<svg xmlns="http://www.w3.org/2000/svg" xmlns:xlink="http://www.w3.org/1999/xlink" version="1.1">
<metadata></metadata>
<defs>
<font id="xxiigeom-boldituploaded_file" horiz-adv-x="1290" >
<font-face units-per-em="2048" ascent="1532" descent="-516" />
<missing-glyph horiz-adv-x="561" />
<glyph unicode="&#xfb01;" horiz-adv-x="1479" d="M92 803l46 262h175l24 126q36 207 169 308t327 101q240 0 441 -75l-101 -262q-156 59 -334 60q-177 0 -211 -187l-12 -71h741l-117 -660l-15 -94q-8 -49 15 -73.5t79 -11.5l12 -224q-234 -61 -333 31.5t-73 269.5l14 102l71 398h-441l-143 -803h-302l142 803h-174z" />
<glyph unicode="&#xfb02;" horiz-adv-x="1486" d="M89 803l45 262h181l20 110q40 224 188 344.5t384 120.5q234 0 532 -128l-195 -1107l-15 -94q-8 -49 15.5 -73.5t78.5 -11.5l10 -224q-232 -61 -332 31.5t-74 269.5l14 102l167 935q-114 30 -196 30q-242 0 -290 -246l-10 -59h272l-47 -262h-270l-139 -803h-300l140 803 h-179z" />
<glyph horiz-adv-x="0" />
<glyph unicode="&#xd;" horiz-adv-x="708" />
<glyph unicode=" "  horiz-adv-x="561" />
<glyph unicode="&#x09;" horiz-adv-x="561" />
<glyph unicode="&#xa0;" horiz-adv-x="561" />
<glyph unicode="!" horiz-adv-x="616" d="M36 130q0 77 56.5 133t135.5 56q77 0 133 -56t56 -133t-56 -133t-133 -56q-79 0 -135.5 56t-56.5 133zM147 439l154 1065h323l-228 -1065h-249z" />
<glyph unicode="&#x22;" horiz-adv-x="941" d="M196 988l74 575h297l-126 -575h-245zM622 988l77 575h295l-125 -575h-247z" />
<glyph unicode="#" horiz-adv-x="1597" d="M12 328l114 247h215l128 299h-231l116 246h221l143 329h281l-143 -329h254l142 329h280l-144 -329h228l-114 -246h-220l-128 -299h234l-112 -247h-228l-143 -328h-281l142 328h-250l-144 -328h-280l142 328h-222zM622 575h252l130 299h-252z" />
<glyph unicode="$" horiz-adv-x="1234" d="M-15 118l102 291q250 -163 462 -161q108 0 185 48.5t77 136.5q0 49 -46.5 92.5t-117 73t-153.5 74.5t-153.5 93.5t-117 133t-46.5 189.5q0 185 129 294.5t326 132.5l35 190h292l-37 -204q190 -41 328 -136l-102 -291q-81 66 -201.5 113.5t-218.5 47.5q-100 0 -168 -35.5 t-68 -111.5q0 -49 47 -91.5t117 -72t153 -73t153.5 -92.5t117 -133t46.5 -192q0 -201 -135 -322t-339 -147l-34 -198h-292l36 208q-213 41 -377 142z" />
<glyph unicode="%" horiz-adv-x="2142" d="M147 1057q0 197 127.5 327t328.5 130q173 0 277 -116t104 -262q0 -201 -130 -332t-326 -131q-176 0 -278.5 116t-102.5 268zM309 0l1223 1491h336l-1225 -1491h-334zM400 1077q0 -61 37.5 -113t105.5 -52q79 0 134.5 59.5t55.5 142.5q0 59 -38.5 110.5t-108.5 51.5 q-75 0 -130.5 -58.5t-55.5 -140.5zM1201 358q0 197 127.5 328t328.5 131q172 0 277.5 -117t105.5 -263q0 -198 -131 -330.5t-326 -132.5q-175 0 -278.5 116.5t-103.5 267.5zM1455 380q0 -62 38.5 -113.5t106.5 -51.5q76 0 131.5 58.5t55.5 141.5q0 59 -38 110.5t-109 51.5 q-75 0 -130 -58.5t-55 -138.5z" />
<glyph unicode="&#x26;" horiz-adv-x="1482" d="M34 370q0 305 426 486q-81 166 -80 292q0 169 135 287t333 118q204 0 322.5 -113t118.5 -269q0 -279 -427 -441l162 -255q156 123 254 247l126 -273q-108 -121 -226 -215l149 -234h-347l-43 69q-224 -120 -435 -120q-207 0 -337.5 120t-130.5 301zM345 386q0 -64 49 -109 t120 -45q117 0 272 81l-194 313q-248 -102 -247 -240zM677 1136q0 -75 58 -191q141 53 198 103.5t57 106t-41 92.5t-110 37q-70 0 -116 -42.5t-46 -105.5z" />
<glyph unicode="'" horiz-adv-x="512" d="M196 988l74 575h297l-126 -575h-245z" />
<glyph unicode="(" horiz-adv-x="661" d="M57 153q1 837 420 1551h328q-234 -405 -340.5 -787t-106.5 -787q0 -285 49 -556h-299q-51 276 -51 579z" />
<glyph unicode=")" horiz-adv-x="659" d="M-140 -426q234 404 340.5 787t106.5 787q0 285 -49 556h298q51 -277 51 -580q-1 -837 -420 -1550h-327z" />
<glyph unicode="*" horiz-adv-x="937" d="M177 1218l110 227l207 -99l18 239h242l-63 -239l229 99l39 -229l-250 -57l132 -171l-209 -140l-85 200l-151 -202l-179 142l185 175z" />
<glyph unicode="+" d="M73 486l49 272h410l73 407h275l-71 -407h407l-49 -272h-407l-72 -411h-277l75 411h-413z" />
<glyph unicode="," horiz-adv-x="574" d="M-71 -224q118 96 173 188q-98 55 -98 164q0 77 58 134t139 57q85 0 140 -59t55 -145q0 -119 -83 -250t-193 -225z" />
<glyph unicode="-" horiz-adv-x="1053" d="M94 462l48 280h810l-49 -280h-809z" />
<glyph unicode="." horiz-adv-x="553" d="M2 130q0 77 56.5 133t135 56t135.5 -56t57 -133t-57 -133t-135.5 -56t-135 56t-56.5 133z" />
<glyph unicode="/" horiz-adv-x="1057" d="M-69 -128l917 1746h321l-915 -1746h-323z" />
<glyph unicode="0" horiz-adv-x="1502" d="M108 624q0 372 210 632t530 260q270 0 429.5 -181t159.5 -471q0 -374 -209.5 -634t-528.5 -260q-264 0 -427.5 183.5t-163.5 470.5zM411 652q0 -177 71 -281.5t229 -104.5q173 0 298 173t125 400q0 382 -301 382q-175 0 -298.5 -170.5t-123.5 -398.5z" />
<glyph unicode="1" horiz-adv-x="778" d="M132 1044l51 319l343 128h230l-264 -1491h-309l205 1140z" />
<glyph unicode="2" horiz-adv-x="1213" d="M-28 0l40 250l655 551q197 166 197 283q0 63 -50 106t-129 43q-181 0 -413 -132l-50 283q240 132 485 132q198 0 332 -116t134 -290q0 -149 -81.5 -267.5t-222.5 -235.5l-396 -332l102 12h490l-51 -287h-1042z" />
<glyph unicode="3" horiz-adv-x="1248" d="M-10 100l114 282q71 -45 188 -82.5t222 -37.5q121 0 208 53t87 138q0 77 -60.5 123t-162.5 46h-245l49 270h251q106 0 180.5 55t74.5 137q0 153 -217 154q-207 0 -419 -110l-57 274q254 115 508 114q220 0 355 -111.5t135 -288.5q0 -110 -66 -207.5t-172 -148.5 q153 -108 153 -298q0 -213 -171.5 -349.5t-448.5 -136.5q-270 0 -506 124z" />
<glyph unicode="4" horiz-adv-x="1228" d="M28 341l6 210l507 940h339l-486 -869h305l102 439h274l-76 -439h172l-47 -281h-177l-59 -341h-309l64 341h-615z" />
<glyph unicode="5" horiz-adv-x="1215" d="M-17 94l104 282q243 -123 413 -122q132 0 224.5 72t92.5 188q0 77 -58 128t-158 51q-126 0 -252 -71l-204 134l239 735h798l-52 -281h-534l-92 -265q75 19 167 20q193 0 323 -122.5t130 -301.5q0 -260 -185 -419.5t-451 -155.5q-260 2 -505 128z" />
<glyph unicode="6" horiz-adv-x="1256" d="M59 471q0 47 6 86t21.5 82.5t26.5 70.5t42.5 76t46.5 71.5t60 84.5t64 87l345 477h379l-286 -378l-121 -112q38 10 94 10q177 0 312.5 -134t135.5 -325q0 -262 -173 -431.5t-422 -169.5q-224 0 -377.5 149t-153.5 356zM358 496q0 -98 69 -171t182 -73q107 0 192 81.5 t85 198.5q0 100 -70.5 171.5t-174.5 71.5q-114 0 -198.5 -79.5t-84.5 -199.5z" />
<glyph unicode="7" horiz-adv-x="1102" d="M104 0l695 1218l-71 -13h-579l52 286h1002l-38 -207l-716 -1284h-345z" />
<glyph unicode="8" horiz-adv-x="1326" d="M57 428q0 141 80 259t202 167q-91 91 -91 226q0 202 159.5 330t374.5 128q203 0 330.5 -126t127.5 -294q0 -104 -56 -189.5t-132 -127.5q73 -51 114 -139.5t41 -177.5q0 -236 -175.5 -381.5t-439.5 -145.5q-230 0 -382.5 139.5t-152.5 331.5zM374 453q0 -87 71 -151 t177 -64q120 0 194 68t74 169q0 90 -66 151.5t-170 61.5q-119 0 -199.5 -66t-80.5 -169zM528 1077q0 -65 54 -115t142 -50q93 0 162 53t69 136q0 64 -54.5 116.5t-142.5 52.5q-91 0 -160.5 -52.5t-69.5 -140.5z" />
<glyph unicode="9" horiz-adv-x="1256" d="M113 929q0 262 171.5 431t420.5 169q226 0 378.5 -149t152.5 -356q0 -46 -4.5 -85.5t-21.5 -83.5t-27 -69.5t-42.5 -76.5t-45.5 -70t-61 -85t-63 -87l-345 -477h-381l287 376l122 113q-40 -10 -96 -10q-176 0 -310.5 134t-134.5 326zM411 963q0 -100 70.5 -171.5 t174.5 -71.5q114 0 198.5 80t84.5 199q0 100 -70 172.5t-184 72.5q-104 0 -189 -82t-85 -199z" />
<glyph unicode=":" horiz-adv-x="621" d="M30 130q0 77 56 133t135.5 56t135.5 -56t56 -133t-56 -133t-135.5 -56t-135.5 56t-56 133zM158 839q0 77 56 134.5t135 57.5t135.5 -57.5t56.5 -134.5t-56.5 -132t-135.5 -55t-135 55t-56 132z" />
<glyph unicode=";" horiz-adv-x="630" d="M-49 -224q118 96 175 188q-100 53 -100 164q0 79 57 135t141 56q85 0 140 -59t55 -145q0 -119 -83.5 -250t-195.5 -225zM164 839q0 77 56.5 134.5t135.5 57.5t135 -57.5t56 -134.5t-56 -132t-135 -55t-135.5 55t-56.5 132z" />
<glyph unicode="&#x3c;" d="M100 437l62 343l1039 356l-51 -305l-743 -237l658 -238l-51 -277z" />
<glyph unicode="=" d="M32 242l47 274h1090l-47 -274h-1090zM115 726l49 270h1090l-49 -270h-1090z" />
<glyph unicode="&#x3e;" d="M81 79l53 305l742 236l-657 238l49 278l914 -356l-62 -343z" />
<glyph unicode="?" horiz-adv-x="1128" d="M187 1390q265 159 508 159q191 0 316 -116t125 -283q0 -104 -48.5 -190t-118.5 -147t-141.5 -116.5t-126.5 -121.5t-67 -136l-304 -2q16 117 74 211t127.5 152t137.5 108.5t113 104.5t45 111q0 62 -45 102t-115 40q-88 0 -208 -48.5t-193 -95.5zM268 130q0 77 57 133 t135.5 56t135 -56t56.5 -133t-56.5 -133t-135 -56t-135.5 56t-57 133z" />
<glyph unicode="@" horiz-adv-x="2129" d="M59 413q0 240 98.5 450t259 352t366 223.5t418.5 81.5q196 0 360 -71t267.5 -187t160 -254.5t56.5 -277.5q0 -305 -172 -493t-377 -188q-186 0 -246 168q-59 -79 -151.5 -124.5t-173.5 -45.5q-181 0 -292 122.5t-111 294.5q0 162 87.5 290t212.5 191t260 63 q97 0 173 -33.5t111 -82.5l24 84h250l-156 -520q-49 -165 54 -164q90 0 173.5 125.5t83.5 302.5q0 134 -64.5 257.5t-207.5 210t-334 86.5q-153 0 -308 -59t-282.5 -163.5t-207.5 -269t-80 -360.5q0 -245 168.5 -437t442.5 -192q232 0 452 126l65 -240q-253 -130 -527 -130 q-201 0 -364.5 73t-268 195t-162.5 276.5t-58 319.5zM786 469q0 -79 47 -132.5t128 -53.5q145 0 260 111l65 260q-49 117 -202 117q-118 0 -208 -85t-90 -217z" />
<glyph unicode="A" horiz-adv-x="1482" d="M-85 0l807 1500h349l275 -1500h-311l-47 277h-596l-144 -277h-333zM537 549h404l-79 463l-10 163l-72 -163z" />
<glyph unicode="B" horiz-adv-x="1435" d="M57 0l262 1491h590q207 0 341 -107.5t134 -277.5q0 -228 -223 -354q144 -104 144 -275q0 -213 -156.5 -345t-415.5 -132h-676zM415 281h343q102 0 169 54.5t67 141.5q0 33 -10.5 61.5t-52 56t-108.5 27.5h-348zM522 882h347q84 0 144 54t60 137q0 51 -43.5 95t-141.5 44 h-309z" />
<glyph unicode="C" horiz-adv-x="1354" d="M100 673q0 362 257 607t627 245q136 0 260 -38t187 -83l-108 -280q-141 104 -356 105q-230 0 -395 -163t-165 -391q0 -179 129 -298t303 -119q169 0 350 110l12 -309q-168 -97 -378 -97q-311 0 -517 198t-206 513z" />
<glyph unicode="D" horiz-adv-x="1556" d="M57 0l262 1491h459q319 0 519.5 -175.5t200.5 -472.5q0 -374 -248 -608.5t-626 -234.5h-567zM417 292h217q234 0 396.5 151t162.5 380q0 172 -117 274t-305 102h-194z" />
<glyph unicode="E" horiz-adv-x="1343" d="M57 0l262 1491h1078l-49 -288h-771l-55 -317h671l-47 -270h-671l-58 -329h770l-51 -287h-1079z" />
<glyph unicode="F" horiz-adv-x="1288" d="M57 0l262 1491h1031l-51 -288h-722l-61 -351h618l-48 -277h-619l-101 -575h-309z" />
<glyph unicode="G" horiz-adv-x="1547" d="M100 675q0 349 260 599.5t624 250.5q283 0 475 -119l-107 -278q-164 104 -383 105q-230 0 -397 -168.5t-167 -389.5q0 -187 121.5 -305t300.5 -118q140 0 264 67l49 275h-325l45 266h633l-121 -718q-96 -79 -244 -129.5t-315 -50.5q-311 0 -512 198t-201 515z" />
<glyph unicode="H" horiz-adv-x="1597" d="M57 0l262 1491h309l-104 -597h643l105 597h309l-262 -1491h-309l106 607h-643l-107 -607h-309z" />
<glyph unicode="I" horiz-adv-x="640" d="M57 0l262 1491h305l-262 -1491h-305z" />
<glyph unicode="J" horiz-adv-x="1122" d="M-63 61l114 297q117 -96 292 -96q120 0 200.5 76.5t102.5 202.5l165 950h309l-175 -987q-42 -249 -205 -393.5t-405 -144.5q-120 0 -236 32t-162 63z" />
<glyph unicode="K" horiz-adv-x="1445" d="M57 0l262 1491h309l-93 -539l-45 -196l142 175l516 560h413l-641 -664l443 -827h-359l-307 601l-266 -254l-63 -347h-311z" />
<glyph unicode="L" horiz-adv-x="1187" d="M57 0l262 1491h309l-211 -1204h674l-52 -287h-982z" />
<glyph unicode="M" horiz-adv-x="1852" d="M57 0l262 1491h350l262 -771l556 771h351l-261 -1491h-309l138 786l59 238l-153 -227l-341 -448h-189l-168 448l-77 240l-33 -251l-140 -786h-307z" />
<glyph unicode="N" horiz-adv-x="1644" d="M57 0l262 1491h262l575 -979l22 167l141 812h309l-262 -1491h-263l-575 982l-19 -171l-143 -811h-309z" />
<glyph unicode="O" horiz-adv-x="1697" d="M100 667q0 355 243 606.5t596 251.5q305 0 501 -199.5t196 -505.5q0 -356 -243 -607t-596 -251q-305 0 -501 199t-196 506zM407 667q0 -171 111.5 -292t278.5 -121q225 0 378.5 167t153.5 399q0 170 -111.5 291.5t-278.5 121.5q-226 0 -379 -167t-153 -399z" />
<glyph unicode="P" horiz-adv-x="1407" d="M57 0l262 1491h550q241 0 390 -135t149 -372q0 -228 -178 -379.5t-415 -151.5h-368l-81 -453h-309zM496 739h315q116 0 204 69.5t88 176t-65 162.5t-176 56h-283z" />
<glyph unicode="Q" horiz-adv-x="1697" d="M100 667q0 355 243 606.5t596 251.5q305 0 501 -199.5t196 -505.5q0 -222 -99.5 -409t-270.5 -307l244 -413h-368l-162 290q-90 -18 -183 -19q-305 0 -501 199t-196 506zM407 667q0 -171 111.5 -292t278.5 -121q225 0 378.5 167t153.5 399q0 170 -111.5 291.5 t-278.5 121.5q-226 0 -379 -167t-153 -399z" />
<glyph unicode="R" horiz-adv-x="1437" d="M57 0l262 1491h553q238 0 388 -120.5t150 -344.5q0 -178 -110.5 -300.5t-285.5 -167.5l242 -558l-338 -2l-209 537h-247l-96 -535h-309zM509 809h316q113 0 195.5 53.5t82.5 157.5q0 183 -236 183h-288z" />
<glyph unicode="S" horiz-adv-x="1248" d="M-8 118l104 291q246 -161 457 -161h5q109 0 185.5 48.5t76.5 136.5q0 57 -66 105t-159 90.5t-186.5 96t-159.5 147t-66 217.5q0 211 165.5 322.5t395.5 111.5q156 0 292.5 -49t219.5 -108l-102 -291q-79 66 -199 113.5t-218 47.5q-102 0 -170.5 -35.5t-68.5 -111.5 q0 -49 47 -91.5t117.5 -72t153.5 -73t153 -92.5t117.5 -133t47.5 -192q0 -226 -168.5 -351t-407.5 -125q-308 0 -566 159z" />
<glyph unicode="T" horiz-adv-x="1311" d="M147 1197l49 294h1218l-51 -294h-454l-210 -1197h-309l211 1197h-454z" />
<glyph unicode="U" horiz-adv-x="1532" d="M145 594l158 897h304l-160 -914q-6 -36 -6 -69q0 -96 52 -158q70 -84 212 -84q136 0 237.5 88.5t124.5 222.5l160 914h307l-164 -938q-45 -260 -232.5 -419.5t-446.5 -159.5q-277 0 -435 177q-122 136 -122 326q0 56 11 117z" />
<glyph unicode="V" horiz-adv-x="1443" d="M183 1491h323l130 -926l22 -246l98 246l451 926h356l-773 -1493h-357z" />
<glyph unicode="W" horiz-adv-x="2065" d="M193 1491h327l51 -884l6 -235l94 240l321 738h307l73 -738l14 -236l84 231l366 884h337l-635 -1491h-367l-76 643l-18 288l-108 -288l-292 -643h-366z" />
<glyph unicode="X" horiz-adv-x="1400" d="M-120 0l646 771l-339 720h345l179 -400l39 -95l67 95l321 400h391l-600 -722l360 -769h-350l-197 449l-39 94l-69 -94l-364 -449h-390z" />
<glyph unicode="Y" horiz-adv-x="1382" d="M166 1491h320l187 -590l28 -104l59 102l403 592h355l-695 -1007l-88 -484h-313l90 488z" />
<glyph unicode="Z" horiz-adv-x="1248" d="M-24 0l36 207l834 1005l-62 -9h-597l53 288h1072l-36 -207l-835 -1005l63 8h597l-53 -287h-1072z" />
<glyph unicode="[" horiz-adv-x="772" d="M-21 -426l375 2130h542l-48 -288h-243l-275 -1554h243l-51 -288h-543z" />
<glyph unicode="\" horiz-adv-x="1012" d="M224 1618h302l303 -1746h-303z" />
<glyph unicode="]" horiz-adv-x="772" d="M-122 -426l49 288h244l274 1554h-242l51 288h543l-375 -2130h-544z" />
<glyph unicode="^" d="M158 748l468 741h352l204 -741h-275l-129 510l-311 -510h-309z" />
<glyph unicode="_" horiz-adv-x="1260" d="M-57 -283l49 279h1058l-48 -279h-1059z" />
<glyph unicode="`" horiz-adv-x="1317" d="M428 1646h345l121 -390h-255z" />
<glyph unicode="a" horiz-adv-x="1411" d="M53 475q0 256 166.5 439t412.5 183q120 0 209.5 -49t129.5 -107l25 124h290l-117 -660l-13 -94q-2 -12 -2 -23q0 -32 18 -50q15 -16 44 -17q15 0 34 5l10 -224q-95 -21 -166 -21q-66 0 -110 18q-92 37 -122 137q-128 -170 -342 -170q-203 0 -335 148t-132 361zM354 479 q0 -104 61.5 -169t163.5 -65q167 0 288 145l2 15l49 276q-81 136 -251 136q-130 0 -221.5 -101.5t-91.5 -236.5z" />
<glyph unicode="b" horiz-adv-x="1345" d="M24 0l266 1512h302l-94 -498q104 92 266 92q214 0 353 -155.5t139 -375.5q0 -262 -170 -441t-405 -179q-211 0 -349 165l-21 -120h-287zM390 390q30 -69 101.5 -111.5t160.5 -42.5q132 0 219.5 99.5t87.5 233.5q0 108 -73 182t-177 74q-142 0 -266 -124z" />
<glyph unicode="c" horiz-adv-x="1034" d="M53 477q0 271 183 450t455 179q202 0 344 -94l-100 -284q-106 94 -256 95q-136 0 -231.5 -98.5t-95.5 -234.5q0 -108 72 -180t181 -72q140 0 257 69l5 -292q-140 -60 -284 -60q-234 0 -382 155.5t-148 366.5z" />
<glyph unicode="d" horiz-adv-x="1411" d="M53 475q0 256 166.5 439t412.5 183q114 0 201 -44.5t130 -100.5l100 560h300l-77 -447l-117 -660l-13 -94q-2 -12 -2 -23q0 -32 18 -50q15 -16 44 -17q15 0 34 5l10 -224q-95 -21 -166 -21q-66 0 -110 18q-92 37 -122 137q-128 -170 -342 -170q-203 0 -335 148t-132 361z M354 479q0 -104 61.5 -169t163.5 -65q167 0 288 145l2 15l49 276q-81 136 -251 136q-130 0 -221.5 -101.5t-91.5 -236.5z" />
<glyph unicode="e" horiz-adv-x="1277" d="M53 496q0 258 184.5 434t453.5 176q225 0 372 -144.5t147 -356.5v-7q0 -103 -30 -181h-824q24 -100 95 -151t175 -51q187 0 382 117v-289q-179 -90 -394 -90q-258 0 -409.5 157.5t-151.5 385.5zM368 632h554q-10 94 -76 155t-169 61q-108 0 -191.5 -58t-117.5 -158z" />
<glyph unicode="f" horiz-adv-x="834" d="M89 803l45 262h183l22 124q36 205 158.5 310t307.5 105q156 0 279 -58l-94 -257q-94 38 -177 38q-73 0 -119 -45.5t-62 -127.5l-14 -89h256l-47 -262h-256l-143 -803h-300l142 803h-181z" />
<glyph unicode="g" horiz-adv-x="1341" d="M8 -419l69 277q205 -122 398 -122q132 0 220.5 70t109.5 198l15 83q-118 -121 -300 -121q-203 0 -335 148t-132 361q0 256 166.5 439t412.5 183q120 0 209.5 -49t129.5 -107l25 124h290l-117 -660l-80 -454q-45 -240 -206 -363t-408 -123q-134 0 -268 39.5t-199 76.5z M354 479q0 -104 61.5 -169t163.5 -65q167 0 288 145l51 291q-81 136 -251 136q-130 0 -221.5 -101.5t-91.5 -236.5z" />
<glyph unicode="h" horiz-adv-x="1328" d="M24 0l266 1512h300l-108 -616q83 100 186.5 151.5t198.5 51.5q191 0 285 -129q69 -95 69 -224q0 -47 -9 -98l-117 -648h-300l112 620q4 26 4 49q1 55 -23 93q-34 55 -123.5 55t-182 -70t-156.5 -168l-103 -579h-299z" />
<glyph unicode="i" horiz-adv-x="636" d="M79 303l15 102l115 660h300l-115 -660l-12 -94q-3 -16 -3 -29q0 -60 58 -60q12 0 38 4l11 -224q-60 -23 -150 -23h-8q-149 -1 -210 91q-45 67 -45 162q0 34 6 71zM238 1412q0 73 54.5 126t129 53t129 -53.5t54.5 -125.5q0 -75 -54.5 -128t-129 -53t-129 53t-54.5 128z " />
<glyph unicode="j" horiz-adv-x="567" d="M-301 -522l49 284q114 0 185 65t93 181l185 1057h301l-193 -1084q-44 -260 -194.5 -381.5t-425.5 -121.5zM238 1414.5q0 72.5 54.5 125.5t129.5 53q77 0 130 -52t53 -126.5t-53 -126.5t-130 -52q-75 0 -129.5 53t-54.5 125.5z" />
<glyph unicode="k" horiz-adv-x="1234" d="M24 0l266 1512h300l-132 -741l-36 -175q167 51 286 177t172 292h325q-95 -315 -351 -535l258 -530h-328l-166 370q-126 -61 -248 -93l-47 -277h-299z" />
<glyph unicode="l" horiz-adv-x="636" d="M79 303l15 102l196 1107h300l-196 -1107l-12 -94q-3 -14 -2 -26q0 -29 16 -47q15 -16 44 -16q15 0 35 4l11 -224q-93 -24 -165 -24q-109 0 -169 56q-79 73 -78 199q0 33 5 70z" />
<glyph unicode="m" horiz-adv-x="1939" d="M24 0l187 1065h285l-21 -158q145 187 350 188q110 0 187 -59.5t106 -159.5q160 219 392 219q169 0 257 -129q65 -95 64 -215q0 -44 -8 -91l-119 -660h-300l112 630q5 29 5 54q1 46 -17 80q-28 53 -98 53q-77 0 -156 -64.5t-134 -162.5l-106 -590h-292l113 630q5 28 5 53 q0 46 -18 81q-28 53 -98 53q-79 0 -160 -70t-136 -170l-101 -577h-299z" />
<glyph unicode="n" horiz-adv-x="1328" d="M24 0l187 1065h285l-25 -181q85 106 191 160.5t205 54.5q189 0 285 -129q69 -94 70 -221q0 -48 -10 -101l-117 -648h-298l110 620q4 26 4 49q1 55 -23 93q-34 55 -122 55q-91 0 -185.5 -72t-158.5 -172l-99 -573h-299z" />
<glyph unicode="o" horiz-adv-x="1309" d="M53 482q0 266 183.5 445t451.5 179q230 0 382.5 -149.5t152.5 -377.5q0 -266 -183.5 -445t-451.5 -179q-230 0 -382.5 149.5t-152.5 377.5zM352 496q0 -113 71 -186.5t180 -73.5q132 0 227 98.5t95 230.5q0 113 -72 186.5t-182 73.5q-130 0 -224.5 -98.5t-94.5 -230.5z " />
<glyph unicode="p" horiz-adv-x="1347" d="M-55 -447l266 1512h268l-10 -98q53 59 138.5 99t163.5 40q211 0 350 -155.5t139 -373.5q0 -262 -171 -442t-406 -180q-213 0 -344 158l-94 -560h-300zM392 390q30 -69 101.5 -111.5t160.5 -42.5q132 0 219.5 99.5t87.5 233.5q0 108 -73 182t-177 74q-142 0 -266 -124z " />
<glyph unicode="q" horiz-adv-x="1343" d="M53 475q0 256 166.5 439t412.5 183q120 0 209.5 -49t129.5 -107l25 124h290l-266 -1512h-298l85 494l13 40q-118 -121 -300 -121q-203 0 -335 148t-132 361zM354 479q0 -104 61.5 -169t163.5 -65q167 0 288 145l51 291q-81 136 -251 136q-130 0 -221.5 -101.5 t-91.5 -236.5z" />
<glyph unicode="r" horiz-adv-x="951" d="M24 0l187 1065h277l-24 -193q71 110 167.5 168.5t188.5 58.5q119 0 198 -55l-136 -286q-64 43 -147 43q-81 0 -169.5 -69.5t-141.5 -175.5l-101 -556h-299z" />
<glyph unicode="s" horiz-adv-x="1008" d="M-19 61l90 265q172 -102 353 -102q66 0 112.5 22t46.5 65q0 38 -48.5 68t-119 55.5t-139.5 60.5t-118.5 103.5t-49.5 163.5q0 149 127.5 244t322.5 95q111 0 227 -31t178 -64l-91 -256q-143 91 -323 91q-147 0 -147 -77q0 -36 49 -62.5t119.5 -51t142 -58.5t120.5 -104.5 t49 -172.5q0 -158 -136.5 -254.5t-330.5 -96.5q-126 0 -245 28.5t-189 68.5z" />
<glyph unicode="t" horiz-adv-x="904" d="M77 803l45 262h179l55 307h298l-56 -307h318l-47 -262h-318l-76 -431q-3 -15 -2 -29q0 -79 92 -79q89 0 189 39l-2 -273q-110 -51 -240 -51q-185 0 -276 101q-67 75 -67 193q0 42 8 89l79 441h-179z" />
<glyph unicode="u" horiz-adv-x="1392" d="M87 437l106 628h301l-110 -616q-5 -24 -5 -46q-1 -58 33 -99q46 -56 135 -56q85 0 180.5 62t139.5 165l102 590h301l-116 -660l-14 -94q-2 -13 -2 -24q0 -31 17 -49q15 -16 44 -17q15 0 34 5l13 -224q-92 -25 -164 -25q-70 0 -120 24q-100 48 -123 163 q-156 -195 -370 -196q-183 0 -299 142q-90 110 -91 246q0 39 8 81z" />
<glyph unicode="v" horiz-adv-x="1154" d="M85 1065h311l100 -630l20 -128q250 283 321 758h317q-44 -292 -196.5 -586t-376.5 -485h-274z" />
<glyph unicode="w" horiz-adv-x="1766" d="M108 1065h303l51 -626l2 -126q132 138 224 348.5t117 403.5h247l96 -626l13 -124q119 147 195 343t89 407h317q-32 -313 -170.5 -588.5t-355.5 -482.5h-273l-79 502q-140 -292 -378 -502h-274z" />
<glyph unicode="x" horiz-adv-x="1132" d="M-96 0l454 543l-254 522h335l100 -238l24 -79l46 77l190 240h374l-423 -509l266 -556h-333l-118 270l-24 79l-43 -74l-219 -275h-375z" />
<glyph unicode="y" horiz-adv-x="1158" d="M-100 -305q256 165 441 362l-262 1008h311l140 -630l19 -120q235 343 286 750h317q-79 -462 -358.5 -881.5t-727.5 -724.5z" />
<glyph unicode="z" horiz-adv-x="1100" d="M-32 0l34 193l612 618l-86 -10h-408l44 264h925l-34 -193l-610 -618l83 10h429l-48 -264h-941z" />
<glyph unicode="{" horiz-adv-x="802" d="M4 498l49 282q98 0 158.5 50t75.5 137l54 309q73 429 586 428l-49 -285q-224 0 -254 -194l-45 -266q-34 -217 -197 -329q126 -104 85 -315l-52 -260q-34 -195 188 -195l-52 -286q-251 0 -358.5 134t-66.5 361l45 240q16 89 -25.5 139t-141.5 50z" />
<glyph unicode="|" horiz-adv-x="628" d="M-17 -405l334 1896h299l-335 -1896h-298z" />
<glyph unicode="}" horiz-adv-x="804" d="M-120 -426l49 286q222 0 256 193l43 266q38 220 200 329q-123 106 -85 315l49 260q34 196 -187 196l51 285q252 0 359 -134.5t66 -359.5l-45 -241q-16 -89 26.5 -139t142.5 -50l-49 -282q-98 0 -158.5 -50t-77.5 -137l-51 -309q-73 -428 -589 -428z" />
<glyph unicode="~" d="M106 688q177 122 313 121q100 0 243 -56t207 -56q113 0 234 102l75 -264q-164 -120 -314 -120q-95 0 -237.5 56.5t-211.5 56.5q-96 0 -232 -104z" />
<glyph unicode="&#xa1;" horiz-adv-x="591" d="M-53 -447l226 1065h249l-154 -1065h-321zM151 927q0 77 56.5 132t135.5 55t135.5 -55t56.5 -132t-56.5 -134.5t-135.5 -57.5t-135.5 57.5t-56.5 134.5z" />
<glyph unicode="&#xa2;" horiz-adv-x="1073" d="M100 691q0 238 146 408.5t376 207.5l32 184h296l-34 -194q96 -26 168 -72l-100 -282q-107 92 -256 92q-138 0 -234 -97t-96 -233q0 -108 72.5 -181t183.5 -73q136 0 258 69l4 -292q-108 -43 -194 -55l-31 -173h-297l37 205q-153 57 -242 191t-89 295z" />
<glyph unicode="&#xa3;" horiz-adv-x="1309" d="M32 0l39 213q81 59 113.5 135t51.5 195l14 77h-163l49 266h160l19 110q47 273 197 400t415 127q197 0 396 -72l-92 -278q-181 65 -315 65q-249 0 -292 -248l-19 -104h470l-46 -266h-468l-18 -94q-13 -65 -19 -94.5t-27.5 -78t-53.5 -85.5l120 17h612l-51 -285h-1092z" />
<glyph unicode="&#xa4;" horiz-adv-x="1405" d="M55 339l213 181q-46 98 -46 191q0 169 91 299l-132 161l193 173l138 -166q113 53 236 53q146 0 260 -72l223 185l153 -181l-217 -187q45 -94 45 -198q0 -151 -76 -272l138 -169l-194 -173l-137 166q-121 -66 -268 -66q-138 0 -247 75l-217 -186zM473 733q0 -89 57.5 -161 t160.5 -72q108 0 189 75t81 181q0 100 -61 169t-167.5 69t-183 -71.5t-76.5 -189.5z" />
<glyph unicode="&#xa5;" horiz-adv-x="1392" d="M145 268l36 203h331l23 130h-332l35 202h226l-257 688h323l169 -513l25 -98l56 96l350 515h357l-497 -688h197l-37 -202h-304l-21 -130h303l-35 -203h-305l-46 -268h-314l47 268h-330z" />
<glyph unicode="&#xa6;" horiz-adv-x="624" d="M-19 -405l134 767h298l-134 -767h-298zM179 724l136 767h299l-137 -767h-298z" />
<glyph unicode="&#xa7;" horiz-adv-x="1240" d="M-41 -313l110 277q81 -47 191 -79t198 -32q99 0 160 36t61 99q0 50 -61.5 94t-149.5 81.5t-177.5 84t-151.5 127.5t-62 190q0 97 75.5 186.5t188.5 136.5q-59 49 -95.5 123.5t-36.5 142.5q0 177 152.5 289t416.5 112q117 0 253 -39.5t194 -80.5l-105 -268q-75 45 -177 77 t-189 32q-98 0 -151.5 -33t-53.5 -87q0 -50 62 -94t149.5 -82.5t174.5 -85t149 -129t62 -188.5q0 -108 -68 -190t-182 -131q122 -100 122 -262q0 -185 -161.5 -303.5t-421.5 -118.5q-116 0 -255 36t-221 79zM407 579q0 -61 60.5 -102.5t190.5 -92.5q156 77 155 183 q0 53 -55 94.5t-187 96.5q-164 -75 -164 -179z" />
<glyph unicode="&#xa8;" horiz-adv-x="1317" d="M347 1423q0 73 52 125t127 52t126 -52t51 -125t-51 -125t-126 -52t-127 52t-52 125zM801 1423q0 73 52 125t127 52t127 -52t52 -125t-52 -125t-127 -52t-127 52t-52 125z" />
<glyph unicode="&#xa9;" horiz-adv-x="1854" d="M108 685q0 188 77 355t202 283t286.5 183.5t330.5 67.5q236 0 419 -112t273.5 -281t90.5 -358q0 -265 -130 -475t-332.5 -319.5t-432.5 -109.5q-357 0 -570.5 223.5t-213.5 542.5zM328 685q0 -225 153 -387t422 -162q160 0 312.5 85.5t252 246t99.5 355.5 q0 215 -153.5 374.5t-421.5 159.5q-160 0 -312 -86t-252 -244t-100 -342zM545 711q0 192 141 320t326 128q158 0 248 -66l-89 -213q-85 49 -167 49q-88 0 -154 -58t-66 -153q0 -64 39 -109.5t116 -45.5q87 0 185 44l35 -219q-96 -55 -234 -56q-171 0 -275.5 113t-104.5 266z " />
<glyph unicode="&#xaa;" horiz-adv-x="959" d="M162 1118q0 162 112 274t256 112q64 0 125 -23.5t87 -57.5l14 66h181l-85 -473q-4 -24 9.5 -36.5t47.5 -3.5v-161q-98 -28 -164 0t-76 92q-77 -106 -228 -106q-118 0 -198.5 92.5t-80.5 224.5zM366 1126q0 -59 34.5 -100.5t93.5 -41.5q109 0 175 79l32 181 q-43 79 -150 79q-73 0 -129 -58t-56 -139z" />
<glyph unicode="&#xab;" horiz-adv-x="1319" d="M106 563l309 419h329l-339 -450l164 -428h-292zM641 563l309 419h328l-339 -450l164 -428h-294z" />
<glyph unicode="&#xac;" d="M51 486l49 272h1114l-104 -594h-273l55 322h-841z" />
<glyph unicode="&#xad;" horiz-adv-x="1053" d="M94 462l48 280h810l-49 -280h-809z" />
<glyph unicode="&#xae;" horiz-adv-x="898" d="M175 1122q0 169 121 280.5t274.5 111.5t243 -94.5t89.5 -224.5q0 -173 -120.5 -284.5t-275.5 -111.5t-243.5 94.5t-88.5 228.5zM250 1124q0 -104 68 -179.5t194 -75.5q119 0 219 93t100 233q0 100 -68 175t-194 75q-120 0 -219.5 -92.5t-99.5 -228.5zM376 980l65 364h145 q57 0 91 -33t34 -78q0 -42 -28.5 -75.5t-70.5 -43.5l57 -134h-81l-53 126h-60l-22 -126h-77zM488 1169h81q24 0 43.5 18t19.5 40q0 19 -13.5 33t-32.5 14h-82z" />
<glyph unicode="&#xaf;" horiz-adv-x="1317" d="M390 1307l43 244h766l-43 -244h-766z" />
<glyph unicode="&#xb0;" horiz-adv-x="968" d="M153 1091q0 183 127 302t314 119q164 0 274 -117t110 -281q0 -181 -128 -300t-313 -119q-167 0 -275.5 117t-108.5 279zM396 1093q0 -63 45 -112.5t110 -49.5q75 0 129.5 53t54.5 128q0 65 -45 114.5t-109 49.5q-79 0 -132 -52.5t-53 -130.5z" />
<glyph unicode="&#xb1;" d="M-12 8l48 271h1088l-47 -271h-1089zM134 825l47 270h411l62 350h277l-62 -350h407l-47 -270h-406l-65 -361h-276l63 361h-411z" />
<glyph unicode="&#xb2;" horiz-adv-x="811" d="M118 864l29 175l404 361q92 81 92 136q0 30 -21 50t-55 20q-94 0 -264 -115l-55 210q191 118 340 118q125 0 206.5 -78t81.5 -186q0 -153 -185 -305l-207 -179l61 6h278l-39 -213h-666z" />
<glyph unicode="&#xb3;" horiz-adv-x="838" d="M120 935l95 199q120 -77 236 -77q75 0 125 27.5t50 76.5q0 36 -30.5 58.5t-89.5 22.5h-165l33 193h161q51 0 89 26t38 68q0 32 -23 56.5t-78 24.5q-122 0 -263 -72l-48 198q170 85 325 85q145 0 231 -76.5t86 -181.5q0 -140 -123 -217q89 -64 89 -177q0 -147 -118 -236.5 t-301 -89.5q-96 0 -185.5 32t-133.5 60z" />
<glyph unicode="&#xb4;" horiz-adv-x="1317" d="M656 1256l236 390h374l-325 -390h-285z" />
<glyph unicode="&#xb6;" horiz-adv-x="1496" d="M140 1046q0 196 134.5 320.5t313.5 124.5h298l-300 -1704h-269l162 922h-12q-140 0 -233.5 104.5t-93.5 232.5zM780 -213l300 1704h499l-50 -275h-230l-251 -1429h-268z" />
<glyph unicode="&#xb7;" horiz-adv-x="574" d="M110 741q0 76 57 133t136 57t135 -57t56 -133t-56 -133t-135 -57t-136 57t-57 133z" />
<glyph unicode="&#xb8;" horiz-adv-x="1317" d="M160 -394l251 394h256l-175 -394h-332z" />
<glyph unicode="&#xb9;" horiz-adv-x="579" d="M203 1447l39 244l227 109h185l-166 -936h-224l124 672z" />
<glyph unicode="&#xba;" horiz-adv-x="864" d="M160 1114q0 168 118 282t280 114q149 0 237.5 -93.5t88.5 -231.5q0 -169 -118 -281t-280 -112q-149 0 -237.5 94t-88.5 228zM352 1116q0 -57 39.5 -97.5t106.5 -40.5q75 0 135 59.5t60 144.5q0 60 -39.5 102.5t-108.5 42.5q-77 0 -135 -61t-58 -150z" />
<glyph unicode="&#xbb;" horiz-adv-x="1319" d="M21 100l339 451l-164 427h294l170 -458l-311 -420h-328zM556 100l338 451l-164 427h294l171 -458l-311 -420h-328z" />
<glyph unicode="&#xbc;" horiz-adv-x="1929" d="M138 0l1268 1491h300l-1265 -1491h-303zM162 1138l41 244l225 109h188l-169 -935h-223l123 671zM1089 228l2 152l293 555h239l-268 -500h149l67 242h199l-43 -242h102l-36 -207h-104l-41 -228h-225l40 228h-374z" />
<glyph unicode="&#xbd;" horiz-adv-x="1963" d="M134 0l1266 1491h299l-1264 -1491h-301zM160 1138l38 244l226 109h188l-169 -935h-224l122 669zM1116 0l30 175l405 360q91 81 91 136q0 30 -21 50.5t-56 20.5q-93 0 -264 -116l-55 211q183 118 339 118q126 0 207.5 -78t81.5 -186q0 -149 -185 -305l-207 -179l62 6h277 l-41 -213h-664z" />
<glyph unicode="&#xbe;" horiz-adv-x="2238" d="M79 626l96 199q119 -77 238 -77q73 0 123 27.5t50 76.5q0 36 -30 58.5t-87 22.5h-166l34 193h159q51 0 88.5 27t37.5 70q0 30 -23.5 54t-78.5 24q-120 0 -260 -72l-51 198q171 85 328 85q142 0 228.5 -76.5t86.5 -181.5q0 -138 -122 -217q87 -67 87 -177 q0 -147 -117 -236t-302 -89q-95 0 -184.5 31.5t-134.5 59.5zM458 0l1267 1491h301l-1268 -1491h-300zM1400 228l2 152l293 555h239l-268 -500h149l67 242h199l-43 -242h102l-36 -207h-104l-41 -228h-227l40 228h-372z" />
<glyph unicode="&#xbf;" horiz-adv-x="1113" d="M-51 -92q0 104 48 190.5t118 147.5t141.5 115t127 120t65.5 137l305 4q-17 -118 -74.5 -212.5t-126.5 -153t-137.5 -108.5t-113 -104t-44.5 -113t45.5 -99.5t113.5 -40.5q87 0 208 48t195 95l76 -266q-258 -160 -506 -160q-191 0 -316 117t-125 283zM435 927q0 79 56 134 t135 55t135 -55t56 -134q0 -77 -56 -133.5t-135 -56.5t-135 56.5t-56 133.5z" />
<glyph unicode="&#xc0;" horiz-adv-x="1482" d="M-85 0l807 1500h349l275 -1500h-311l-47 277h-596l-144 -277h-333zM537 549h404l-79 463l-10 163l-72 -163zM579 2073h343l124 -390h-256z" />
<glyph unicode="&#xc1;" horiz-adv-x="1482" d="M-85 0l807 1500h349l275 -1500h-311l-47 277h-596l-144 -277h-333zM537 549h404l-79 463l-10 163l-72 -163zM784 1683l236 390h373l-324 -390h-285z" />
<glyph unicode="&#xc2;" horiz-adv-x="1482" d="M-85 0l807 1500h349l275 -1500h-311l-47 277h-596l-144 -277h-333zM498 1681l294 392h369l160 -392h-260l-100 191l-164 -191h-299zM537 549h404l-79 463l-10 163l-72 -163z" />
<glyph unicode="&#xc3;" horiz-adv-x="1482" d="M-85 0l807 1500h349l275 -1500h-311l-47 277h-596l-144 -277h-333zM522 1685q21 162 103 247t202 85q77 0 154.5 -47t100.5 -47q65 0 72 91h241q-24 -162 -106 -246.5t-198 -84.5q-81 0 -158 45.5t-98 45.5q-69 0 -75 -89h-238zM537 549h404l-79 463l-10 163l-72 -163z " />
<glyph unicode="&#xc4;" horiz-adv-x="1482" d="M-85 0l807 1500h349l275 -1500h-311l-47 277h-596l-144 -277h-333zM537 549h404l-79 463l-10 163l-72 -163zM537 1848.5q0 72.5 52 125t127 52.5q72 0 124 -52.5t52 -125t-52 -124.5t-124 -52q-75 0 -127 52t-52 124.5zM990 1848.5q0 72.5 52.5 125t127 52.5t126.5 -52.5 t52 -125t-52 -124.5t-126.5 -52t-127 52t-52.5 124.5z" />
<glyph unicode="&#xc5;" horiz-adv-x="1482" d="M-85 0l807 1500h349l275 -1500h-311l-47 277h-596l-144 -277h-333zM537 549h404l-79 463l-10 163l-72 -163zM648 1872q0 142 99 235.5t239 93.5q120 0 200 -83.5t80 -194.5q0 -143 -99.5 -235.5t-239.5 -92.5q-120 0 -199.5 83.5t-79.5 193.5zM848 1888q0 -41 28.5 -70 t70.5 -29q45 0 82.5 34t37.5 85q0 41 -28.5 69.5t-73.5 28.5t-81 -35t-36 -83z" />
<glyph unicode="&#xc6;" horiz-adv-x="2093" d="M-120 0l1098 1491h1171l-49 -288h-667l-55 -317h567l-47 -270h-569l-57 -329h664l-48 -287h-976l49 277h-508l-201 -277h-372zM652 549h358l112 652l-74 -106z" />
<glyph unicode="&#xc7;" horiz-adv-x="1354" d="M100 673q0 362 257 607t627 245q136 0 260 -38t187 -83l-108 -280q-141 105 -356 105q-230 0 -395 -163t-165 -391q0 -179 129 -298t303 -119q169 0 350 110l12 -309q-151 -87 -327 -95l-161 -358h-331l244 379q-236 60 -381 244t-145 444z" />
<glyph unicode="&#xc8;" horiz-adv-x="1343" d="M57 0l262 1491h1078l-49 -288h-771l-55 -317h671l-47 -270h-671l-58 -329h770l-51 -287h-1079zM561 2073h342l121 -390h-253z" />
<glyph unicode="&#xc9;" horiz-adv-x="1343" d="M57 0l262 1491h1078l-49 -288h-771l-55 -317h671l-47 -270h-671l-58 -329h770l-51 -287h-1079zM764 1683l238 390h372l-324 -390h-286z" />
<glyph unicode="&#xca;" horiz-adv-x="1343" d="M57 0l262 1491h1078l-49 -288h-771l-55 -317h671l-47 -270h-671l-58 -329h770l-51 -287h-1079zM479 1681l294 392h369l159 -392h-262l-98 191l-163 -191h-299z" />
<glyph unicode="&#xcb;" horiz-adv-x="1343" d="M57 0l262 1491h1078l-49 -288h-771l-55 -317h671l-47 -270h-671l-58 -329h770l-51 -287h-1079zM518 1848.5q0 74.5 52 126t126.5 51.5t126 -52.5t51.5 -125t-51.5 -124.5t-126 -52t-126.5 51t-52 125.5zM971 1848.5q0 72.5 52 125t127 52.5q73 0 125 -52.5t52 -125 t-52 -124.5t-125 -52q-75 0 -127 52t-52 124.5z" />
<glyph unicode="&#xcc;" horiz-adv-x="640" d="M57 0l262 1491h305l-262 -1491h-305zM145 2073h343l121 -390h-255z" />
<glyph unicode="&#xcd;" horiz-adv-x="640" d="M57 0l262 1491h305l-262 -1491h-305zM347 1683l239 390h373l-327 -390h-285z" />
<glyph unicode="&#xce;" horiz-adv-x="640" d="M57 0l262 1491h305l-262 -1491h-305zM63 1681l293 392h368l162 -392h-262l-100 191l-162 -191h-299z" />
<glyph unicode="&#xcf;" horiz-adv-x="640" d="M57 0l262 1491h305l-262 -1491h-305zM100 1848.5q0 72.5 52.5 125t127 52.5t126.5 -52.5t52 -125t-52 -124.5t-126.5 -52t-127 52t-52.5 124.5zM556 1848.5q0 72.5 52 125t125 52.5q75 0 127 -51.5t52 -126t-52 -125.5t-127 -51q-73 0 -125 52t-52 124.5z" />
<glyph unicode="&#xd0;" horiz-adv-x="1558" d="M59 0l107 612h-105l43 262h109l108 617h459q319 0 520.5 -176.5t201.5 -471.5q0 -372 -249 -607.5t-625 -235.5h-569zM422 292h214q234 0 396.5 151t162.5 380q0 172 -117 274t-303 102h-194l-57 -325h377l-43 -262h-381z" />
<glyph unicode="&#xd1;" horiz-adv-x="1644" d="M57 0l262 1491h262l575 -979l22 167l141 812h309l-262 -1491h-263l-575 982l-19 -171l-143 -811h-309zM607 1685q21 162 102 247t200 85q77 0 155 -47t101 -47q68 0 75 91h238q-21 -162 -103 -246.5t-200 -84.5q-81 0 -158.5 45.5t-98.5 45.5q-30 0 -51 -24.5t-24 -64.5 h-236z" />
<glyph unicode="&#xd2;" horiz-adv-x="1697" d="M100 667q0 355 243 606.5t596 251.5q305 0 501 -199.5t196 -505.5q0 -356 -243 -607t-596 -251q-305 0 -501 199t-196 506zM407 667q0 -171 111.5 -292t278.5 -121q225 0 378.5 167t153.5 399q0 170 -111.5 291.5t-278.5 121.5q-226 0 -379 -167t-153 -399zM648 2073h344 l122 -390h-256z" />
<glyph unicode="&#xd3;" horiz-adv-x="1697" d="M100 667q0 355 243 606.5t596 251.5q305 0 501 -199.5t196 -505.5q0 -356 -243 -607t-596 -251q-305 0 -501 199t-196 506zM407 667q0 -171 111.5 -292t278.5 -121q225 0 378.5 167t153.5 399q0 170 -111.5 291.5t-278.5 121.5q-226 0 -379 -167t-153 -399zM852 1683 l237 390h374l-325 -390h-286z" />
<glyph unicode="&#xd4;" horiz-adv-x="1697" d="M100 667q0 355 243 606.5t596 251.5q305 0 501 -199.5t196 -505.5q0 -356 -243 -607t-596 -251q-305 0 -501 199t-196 506zM407 667q0 -171 111.5 -292t278.5 -121q225 0 378.5 167t153.5 399q0 170 -111.5 291.5t-278.5 121.5q-226 0 -379 -167t-153 -399zM567 1681 l293 392h369l161 -392h-262l-99 191l-162 -191h-300z" />
<glyph unicode="&#xd5;" horiz-adv-x="1697" d="M100 667q0 355 243 606.5t596 251.5q305 0 501 -199.5t196 -505.5q0 -356 -243 -607t-596 -251q-305 0 -501 199t-196 506zM407 667q0 -171 111.5 -292t278.5 -121q225 0 378.5 167t153.5 399q0 170 -111.5 291.5t-278.5 121.5q-226 0 -379 -167t-153 -399zM592 1685 q21 162 102 247t200 85q77 0 154.5 -47t101.5 -47q69 0 73 91h240q-24 -164 -104.5 -247.5t-199.5 -83.5q-79 0 -156.5 45.5t-99.5 45.5q-69 0 -74 -89h-237z" />
<glyph unicode="&#xd6;" horiz-adv-x="1697" d="M100 667q0 355 243 606.5t596 251.5q305 0 501 -199.5t196 -505.5q0 -356 -243 -607t-596 -251q-305 0 -501 199t-196 506zM407 667q0 -171 111.5 -292t278.5 -121q225 0 378.5 167t153.5 399q0 170 -111.5 291.5t-278.5 121.5q-226 0 -379 -167t-153 -399zM605 1848.5 q0 72.5 52 125t127 52.5q73 0 125 -52.5t52 -125t-52 -124.5t-125 -52q-75 0 -127 52t-52 124.5zM1061 1848.5q0 72.5 51 125t125.5 52.5t126.5 -52.5t52 -125t-52 -124.5t-126.5 -52t-125.5 52t-51 124.5z" />
<glyph unicode="&#xd7;" d="M106 315l350 299l-243 280l202 192l239 -287l336 287l181 -192l-340 -298l240 -281l-197 -187l-240 289l-347 -293z" />
<glyph unicode="&#xd8;" horiz-adv-x="1697" d="M8 -128l254 326q-162 195 -162 469q0 355 243 606.5t596 251.5q167 0 303 -62l119 155h354l-250 -321q171 -194 171 -477q0 -356 -243 -607t-596 -251q-169 0 -311 66l-122 -156h-356zM407 667q0 -116 53 -211l590 760q-55 16 -111 17q-226 0 -379 -167t-153 -399z M675 272q57 -18 122 -18q225 0 378.5 167t153.5 399q0 121 -59 221z" />
<glyph unicode="&#xd9;" horiz-adv-x="1532" d="M145 594l158 897h304l-160 -914q-24 -142 46 -226.5t212 -84.5q136 0 237.5 88.5t124.5 222.5l160 914h307l-164 -938q-45 -260 -232.5 -419.5t-446.5 -159.5q-277 0 -435 177t-111 443zM609 2073h346l120 -390h-255z" />
<glyph unicode="&#xda;" horiz-adv-x="1532" d="M145 594l158 897h304l-160 -914q-24 -142 46 -226.5t212 -84.5q136 0 237.5 88.5t124.5 222.5l160 914h307l-164 -938q-45 -260 -232.5 -419.5t-446.5 -159.5q-277 0 -435 177t-111 443zM813 1683l237 390h375l-326 -390h-286z" />
<glyph unicode="&#xdb;" horiz-adv-x="1532" d="M145 594l158 897h304l-160 -914q-24 -142 46 -226.5t212 -84.5q136 0 237.5 88.5t124.5 222.5l160 914h307l-164 -938q-45 -260 -232.5 -419.5t-446.5 -159.5q-277 0 -435 177t-111 443zM530 1681l293 392h368l161 -392h-261l-101 191l-161 -191h-299z" />
<glyph unicode="&#xdc;" horiz-adv-x="1532" d="M145 594l158 897h304l-160 -914q-24 -142 46 -226.5t212 -84.5q136 0 237.5 88.5t124.5 222.5l160 914h307l-164 -938q-45 -260 -232.5 -419.5t-446.5 -159.5q-277 0 -435 177t-111 443zM567 1848.5q0 72.5 52 125t127 52.5q72 0 124 -52.5t52 -125t-52 -124.5t-124 -52 q-75 0 -127 52t-52 124.5zM1022 1848.5q0 72.5 51 125t126 52.5t127 -52.5t52 -125t-52 -124.5t-127 -52t-126 52t-51 124.5z" />
<glyph unicode="&#xdd;" horiz-adv-x="1382" d="M166 1491h320l187 -590l28 -104l59 102l403 592h355l-695 -1007l-88 -484h-313l90 488zM705 1683l236 390h374l-325 -390h-285z" />
<glyph unicode="&#xde;" horiz-adv-x="1409" d="M57 0l262 1491h309l-40 -228h245q238 0 386.5 -133.5t148.5 -371.5q0 -228 -178 -379t-415 -151h-370l-39 -228h-309zM456 516h315q117 0 204.5 68t87.5 174t-65 162t-175 56h-286z" />
<glyph unicode="&#xdf;" horiz-adv-x="1339" d="M-234 -522l49 282q93 0 140 58t66 182l184 1020q43 246 187.5 380t365.5 134q207 0 329.5 -114.5t122.5 -289.5q1 -187 -160 -315q188 -125 188 -338q0 -225 -163 -366t-396 -141q-160 0 -277 42l96 263q88 -35 183 -35q108 0 182 64t74 169q0 71 -50 119.5t-152 48.5 h-177l47 255h96q81 0 148 58t67 137q0 71 -44.5 115t-129.5 44q-90 0 -156 -66t-86 -168l-179 -1016q-51 -292 -177.5 -407t-377.5 -115z" />
<glyph unicode="&#xe0;" horiz-adv-x="1411" d="M53 475q0 256 166.5 439t412.5 183q120 0 209.5 -49t129.5 -107l25 124h290l-117 -660l-13 -94q-8 -49 15.5 -73.5t78.5 -11.5l10 -224q-183 -40 -275.5 -3t-122.5 137q-128 -170 -342 -170q-203 0 -335 148t-132 361zM354 479q0 -104 61.5 -169t163.5 -65q167 0 288 145 l2 15l49 276q-81 136 -251 136q-130 0 -221.5 -101.5t-91.5 -236.5zM428 1646h343l123 -390h-255z" />
<glyph unicode="&#xe1;" horiz-adv-x="1411" d="M53 475q0 256 166.5 439t412.5 183q120 0 209.5 -49t129.5 -107l25 124h290l-117 -660l-13 -94q-8 -49 15.5 -73.5t78.5 -11.5l10 -224q-183 -40 -275.5 -3t-122.5 137q-128 -170 -342 -170q-203 0 -335 148t-132 361zM354 479q0 -104 61.5 -169t163.5 -65q167 0 288 145 l2 15l49 276q-81 136 -251 136q-130 0 -221.5 -101.5t-91.5 -236.5zM632 1256l237 390h373l-324 -390h-286z" />
<glyph unicode="&#xe2;" horiz-adv-x="1411" d="M53 475q0 256 166.5 439t412.5 183q120 0 209.5 -49t129.5 -107l25 124h290l-117 -660l-13 -94q-8 -49 15.5 -73.5t78.5 -11.5l10 -224q-183 -40 -275.5 -3t-122.5 137q-128 -170 -342 -170q-203 0 -335 148t-132 361zM347 1254l294 392h369l159 -392h-260l-100 193 l-163 -193h-299zM354 479q0 -104 61.5 -169t163.5 -65q167 0 288 145l2 15l49 276q-81 136 -251 136q-130 0 -221.5 -101.5t-91.5 -236.5z" />
<glyph unicode="&#xe3;" horiz-adv-x="1411" d="M53 475q0 256 166.5 439t412.5 183q120 0 209.5 -49t129.5 -107l25 124h290l-117 -660l-13 -94q-8 -49 15.5 -73.5t78.5 -11.5l10 -224q-183 -40 -275.5 -3t-122.5 137q-128 -170 -342 -170q-203 0 -335 148t-132 361zM354 479q0 -104 61.5 -169t163.5 -65q167 0 288 145 l2 15l49 276q-81 136 -251 136q-130 0 -221.5 -101.5t-91.5 -236.5zM370 1258q21 163 102 248t201 85q77 0 155.5 -46.5t102.5 -46.5q65 0 73 91h238q-21 -162 -103 -247.5t-200 -85.5q-81 0 -158 46t-98 46q-68 0 -74 -90h-239z" />
<glyph unicode="&#xe4;" horiz-adv-x="1411" d="M53 475q0 256 166.5 439t412.5 183q120 0 209.5 -49t129.5 -107l25 124h290l-117 -660l-13 -94q-8 -49 15.5 -73.5t78.5 -11.5l10 -224q-183 -40 -275.5 -3t-122.5 137q-128 -170 -342 -170q-203 0 -335 148t-132 361zM354 479q0 -104 61.5 -169t163.5 -65q167 0 288 145 l2 15l49 276q-81 136 -251 136q-130 0 -221.5 -101.5t-91.5 -236.5zM386 1423q0 75 52 126t126.5 51t126 -52t51.5 -125t-51.5 -125t-126 -52t-126.5 51t-52 126zM839 1423q0 73 52 125t127 52q73 0 125 -52t52 -125t-52 -125t-125 -52q-75 0 -127 52t-52 125z" />
<glyph unicode="&#xe5;" horiz-adv-x="1411" d="M53 475q0 256 166.5 439t412.5 183q120 0 209.5 -49t129.5 -107l25 124h290l-117 -660l-13 -94q-8 -49 15.5 -73.5t78.5 -11.5l10 -224q-183 -40 -275.5 -3t-122.5 137q-128 -170 -342 -170q-203 0 -335 148t-132 361zM354 479q0 -104 61.5 -169t163.5 -65q167 0 288 145 l2 15l49 276q-81 136 -251 136q-130 0 -221.5 -101.5t-91.5 -236.5zM496 1447q0 142 99.5 234.5t239.5 92.5q120 0 199.5 -83t79.5 -193q0 -143 -99.5 -236t-239.5 -93q-120 0 -199.5 83t-79.5 195zM697 1461q0 -40 28.5 -69t71.5 -29q44 0 81.5 34t37.5 85q0 41 -29 70 t-73.5 29t-80.5 -35.5t-36 -84.5z" />
<glyph unicode="&#xe6;" horiz-adv-x="1882" d="M15 311q0 145 113.5 240t333.5 95l290 -3l2 42q0 158 -175 158q-142 0 -372 -95l-39 264q239 94 441 94q258 -3 350 -156q89 74 175.5 110.5t211.5 36.5q217 0 360 -163t107 -387q-11 -77 -35 -130h-770q2 -89 76.5 -144.5t181.5 -55.5q140 0 325 106l2 -276 q-166 -85 -351 -85q-290 0 -422 200q-77 -93 -191.5 -144.5t-228.5 -51.5q-174 0 -279.5 103.5t-105.5 241.5zM301 335q0 -39 33.5 -71t108.5 -32q77 0 158.5 39.5t135.5 92.5q-7 41 -7 77h-287q-71 0 -106.5 -32.5t-35.5 -73.5zM1033 630h499q8 90 -55 151.5t-152 61.5 q-106 0 -188 -58.5t-104 -154.5z" />
<glyph unicode="&#xe7;" horiz-adv-x="1034" d="M53 477q0 271 183 450t455 179q202 0 344 -94l-100 -284q-107 95 -256 95q-136 0 -231.5 -98.5t-95.5 -234.5q0 -108 72 -180t181 -72q141 0 257 69l5 -292q-106 -47 -215 -58l-158 -351h-332l243 377q-163 53 -257.5 190.5t-94.5 303.5z" />
<glyph unicode="&#xe8;" horiz-adv-x="1277" d="M53 496q0 258 184.5 434t453.5 176q225 0 372 -144.5t147 -356.5q1 -107 -30 -188h-824q24 -100 95 -151t175 -51q187 0 382 117v-289q-179 -90 -394 -90q-258 0 -409.5 157.5t-151.5 385.5zM368 632h554q-10 94 -76 155t-169 61q-108 0 -191.5 -58t-117.5 -158z M407 1646h343l122 -390h-254z" />
<glyph unicode="&#xe9;" horiz-adv-x="1277" d="M53 496q0 258 184.5 434t453.5 176q225 0 372 -144.5t147 -356.5q0 -106 -30 -188h-824q24 -100 95 -151t175 -51q187 0 382 117v-289q-179 -90 -394 -90q-258 0 -409.5 157.5t-151.5 385.5zM368 632h554q-10 94 -76 155t-169 61q-108 0 -191.5 -58t-117.5 -158z M612 1256l236 390h373l-325 -390h-284z" />
<glyph unicode="&#xea;" horiz-adv-x="1277" d="M53 496q0 258 184.5 434t453.5 176q225 0 372 -144.5t147 -356.5q1 -107 -30 -188h-824q24 -100 95 -151t175 -51q187 0 382 117v-289q-179 -90 -394 -90q-258 0 -409.5 157.5t-151.5 385.5zM326 1254l294 392h368l160 -392h-262l-98 193l-164 -193h-298zM368 632h554 q-10 94 -76 155t-169 61q-108 0 -191.5 -58t-117.5 -158z" />
<glyph unicode="&#xeb;" horiz-adv-x="1277" d="M53 496q0 258 184.5 434t453.5 176q225 0 372 -144.5t147 -356.5q1 -107 -30 -188h-824q24 -100 95 -151t175 -51q187 0 382 117v-289q-179 -90 -394 -90q-258 0 -409.5 157.5t-151.5 385.5zM364 1423q0 75 52.5 126t127 51t125.5 -52t51 -125t-51 -125t-125.5 -52 t-127 51t-52.5 126zM368 632h554q-10 94 -76 155t-169 61q-108 0 -191.5 -58t-117.5 -158zM817 1423q0 73 52.5 125t126.5 52q73 0 125 -52t52 -125t-52 -125t-125 -52q-75 0 -127 52t-52 125z" />
<glyph unicode="&#xec;" horiz-adv-x="636" d="M53 1646h343l122 -390h-254zM79 303l15 102l115 660h300l-115 -660l-12 -94q-9 -49 14 -73.5t79 -11.5l11 -224q-234 -61 -333.5 31.5t-73.5 269.5z" />
<glyph unicode="&#xed;" horiz-adv-x="636" d="M79 303l15 102l115 660h300l-115 -660l-12 -94q-9 -49 14 -73.5t79 -11.5l11 -224q-234 -61 -333.5 31.5t-73.5 269.5zM258 1256l236 390h373l-324 -390h-285z" />
<glyph unicode="&#xee;" horiz-adv-x="636" d="M-28 1254l292 392h370l161 -392h-263l-97 193l-165 -193h-298zM79 303l15 102l115 660h300l-115 -660l-12 -94q-9 -49 14 -73.5t79 -11.5l11 -224q-234 -61 -333.5 31.5t-73.5 269.5z" />
<glyph unicode="&#xef;" horiz-adv-x="636" d="M10 1423q0 73 52.5 125t124.5 52q75 0 127 -51t52 -126t-52 -126t-127 -51q-73 0 -125 52t-52 125zM79 303l15 102l115 660h300l-115 -660l-12 -94q-9 -49 14 -73.5t79 -11.5l11 -224q-234 -61 -333.5 31.5t-73.5 269.5zM464 1423q0 73 52 125t127 52q73 0 125 -52 t52 -125t-52 -125t-125 -52q-75 0 -127 52t-52 125z" />
<glyph unicode="&#xf0;" horiz-adv-x="1275" d="M53 484q0 232 164.5 385t402.5 153q172 0 292 -108q-40 179 -186 322l-313 -167l-100 209l217 115q-30 18 -136 85l153 221q130 -79 239 -170l236 126l98 -208l-165 -88q238 -290 238 -678q0 -327 -178 -521t-444 -194q-224 0 -371 146t-147 372zM347 486 q0 -102 71.5 -169t175.5 -67q119 0 201.5 82.5t82.5 202.5q0 101 -71.5 168.5t-176.5 67.5q-119 0 -201 -83t-82 -202z" />
<glyph unicode="&#xf1;" horiz-adv-x="1328" d="M24 0l187 1065h285l-25 -181q85 106 191 160.5t205 54.5q190 0 285.5 -129t59.5 -322l-117 -648h-298l110 620q14 87 -19.5 142t-121.5 55q-91 0 -185.5 -72t-158.5 -172l-99 -573h-299zM370 1258q21 163 102 248t201 85q77 0 154.5 -46.5t101.5 -46.5q68 0 75 91h238 q-21 -162 -103 -247.5t-200 -85.5q-81 0 -159 46t-97 46q-68 0 -74 -90h-239z" />
<glyph unicode="&#xf2;" horiz-adv-x="1309" d="M53 482q0 266 183.5 445t451.5 179q230 0 382.5 -149.5t152.5 -377.5q0 -266 -183.5 -445t-451.5 -179q-230 0 -382.5 149.5t-152.5 377.5zM352 496q0 -113 71 -186.5t180 -73.5q132 0 227 98.5t95 230.5q0 113 -72 186.5t-182 73.5q-130 0 -224.5 -98.5t-94.5 -230.5z M402 1646h346l121 -390h-255z" />
<glyph unicode="&#xf3;" horiz-adv-x="1309" d="M53 482q0 266 183.5 445t451.5 179q230 0 382.5 -149.5t152.5 -377.5q0 -266 -183.5 -445t-451.5 -179q-230 0 -382.5 149.5t-152.5 377.5zM352 496q0 -113 71 -186.5t180 -73.5q132 0 227 98.5t95 230.5q0 113 -72 186.5t-182 73.5q-130 0 -224.5 -98.5t-94.5 -230.5z M607 1256l236 390h375l-326 -390h-285z" />
<glyph unicode="&#xf4;" horiz-adv-x="1309" d="M53 482q0 266 183.5 445t451.5 179q230 0 382.5 -149.5t152.5 -377.5q0 -266 -183.5 -445t-451.5 -179q-230 0 -382.5 149.5t-152.5 377.5zM321 1254l295 392h368l162 -392h-262l-100 193l-162 -193h-301zM352 496q0 -113 71 -186.5t180 -73.5q132 0 227 98.5t95 230.5 q0 113 -72 186.5t-182 73.5q-130 0 -224.5 -98.5t-94.5 -230.5z" />
<glyph unicode="&#xf5;" horiz-adv-x="1309" d="M53 482q0 266 183.5 445t451.5 179q230 0 382.5 -149.5t152.5 -377.5q0 -266 -183.5 -445t-451.5 -179q-230 0 -382.5 149.5t-152.5 377.5zM347 1258q21 163 102 248t201 85q77 0 154.5 -46.5t100.5 -46.5q68 0 73 91h240q-24 -164 -104.5 -248.5t-199.5 -84.5 q-79 0 -157 46t-99 46q-68 0 -75 -90h-236zM352 496q0 -113 71 -186.5t180 -73.5q132 0 227 98.5t95 230.5q0 113 -72 186.5t-182 73.5q-130 0 -224.5 -98.5t-94.5 -230.5z" />
<glyph unicode="&#xf6;" horiz-adv-x="1309" d="M53 482q0 266 183.5 445t451.5 179q230 0 382.5 -149.5t152.5 -377.5q0 -266 -183.5 -445t-451.5 -179q-230 0 -382.5 149.5t-152.5 377.5zM352 496q0 -113 71 -186.5t180 -73.5q132 0 227 98.5t95 230.5q0 113 -72 186.5t-182 73.5q-130 0 -224.5 -98.5t-94.5 -230.5z M360 1423q0 73 52 125t127 52t126 -52t51 -125t-51 -125t-126 -52t-127 52t-52 125zM815 1423q0 73 52.5 125t124.5 52q75 0 127 -52t52 -125t-52 -125t-127 -52q-73 0 -125 52t-52 125z" />
<glyph unicode="&#xf7;" d="M77 486l47 272h1090l-49 -272h-1088zM392 173q0 77 56 133t135 56t135.5 -56t56.5 -133q0 -79 -56.5 -134.5t-135.5 -55.5t-135 55.5t-56 134.5zM532 1088.5q0 76.5 57 133t135.5 56.5t135 -56.5t56.5 -133t-56.5 -133t-135 -56.5t-135.5 56.5t-57 133z" />
<glyph unicode="&#xf8;" horiz-adv-x="1309" d="M53 482q0 266 183 445t452 179q98 0 179 -29l72 120h226l-130 -211q187 -149 188 -407q0 -266 -183.5 -445t-451.5 -179q-90 0 -171 26l-80 -134h-227l138 222q-194 153 -195 413zM352 496q0 -96 55 -168l302 495q-12 2 -38 2q-130 0 -224.5 -98.5t-94.5 -230.5zM577 238 l26 -2q132 0 227 98.5t95 230.5q0 93 -49 159z" />
<glyph unicode="&#xf9;" horiz-adv-x="1413" d="M87 437l106 628h301l-110 -616q-17 -89 28.5 -145t134.5 -56q85 0 180.5 62t139.5 165l102 590h301l-116 -660l-14 -94q-8 -49 15 -73.5t78 -11.5l13 -224q-183 -49 -283.5 -1t-123.5 163q-156 -195 -370 -196q-183 0 -299.5 142t-82.5 327zM419 1646h345l122 -390h-256z " />
<glyph unicode="&#xfa;" horiz-adv-x="1413" d="M87 437l106 628h301l-110 -616q-17 -89 28.5 -145t134.5 -56q85 0 180.5 62t139.5 165l102 590h301l-116 -660l-14 -94q-8 -49 15 -73.5t78 -11.5l13 -224q-183 -49 -283.5 -1t-123.5 163q-156 -195 -370 -196q-183 0 -299.5 142t-82.5 327zM616 1256l236 390h375 l-326 -390h-285z" />
<glyph unicode="&#xfb;" horiz-adv-x="1413" d="M87 437l106 628h301l-110 -616q-17 -89 28.5 -145t134.5 -56q85 0 180.5 62t139.5 165l102 590h301l-116 -660l-14 -94q-8 -49 15 -73.5t78 -11.5l13 -224q-183 -49 -283.5 -1t-123.5 163q-156 -195 -370 -196q-183 0 -299.5 142t-82.5 327zM332 1254l294 392h368 l160 -392h-260l-99 193l-165 -193h-298z" />
<glyph unicode="&#xfc;" horiz-adv-x="1413" d="M87 437l106 628h301l-110 -616q-17 -89 28.5 -145t134.5 -56q85 0 180.5 62t139.5 165l102 590h301l-116 -660l-14 -94q-8 -49 15 -73.5t78 -11.5l13 -224q-183 -49 -283.5 -1t-123.5 163q-156 -195 -370 -196q-183 0 -299.5 142t-82.5 327zM366 1423q0 73 52.5 125 t127 52t126.5 -52t52 -125t-52 -125t-126.5 -52t-127 52t-52.5 125zM823 1423q0 73 51 125t125 52t126.5 -51t52.5 -126t-52.5 -126t-126.5 -51t-125 52t-51 125z" />
<glyph unicode="&#xfd;" horiz-adv-x="1158" d="M-100 -305q256 165 441 362l-262 1008h311l140 -630l19 -120q235 343 286 750h317q-79 -462 -358.5 -881.5t-727.5 -724.5zM506 1256l238 390h374l-326 -390h-286z" />
<glyph unicode="&#xfe;" horiz-adv-x="1349" d="M-55 -447l2 21l338 1917h298l-83 -471l-8 -30q53 51 130.5 83.5t150.5 32.5q209 0 348 -155.5t139 -373.5q0 -262 -171 -442t-406 -180q-215 0 -342 158l-11 -60v-10l-40 -224l-45 -266h-300zM392 390q30 -69 102.5 -111.5t159.5 -42.5q132 0 219.5 99.5t87.5 233.5 q0 108 -73 182t-177 74q-140 0 -264 -124z" />
<glyph unicode="&#xff;" horiz-adv-x="1158" d="M-100 -305q256 165 441 362l-262 1008h311l140 -630l19 -120q235 343 286 750h317q-79 -462 -358.5 -881.5t-727.5 -724.5zM260 1423q0 73 52 125t127 52q73 0 125 -52t52 -125t-52 -125t-125 -52q-75 0 -127 52t-52 125zM716 1423q0 73 50.5 125t125.5 52t127 -52 t52 -125t-52 -125t-127 -52t-125.5 52t-50.5 125z" />
<glyph unicode="&#x152;" horiz-adv-x="2445" d="M100 667q0 355 243 606.5t594 251.5q158 0 290 -57.5t208 -152.5l35 176h1028l-49 -288h-743l-56 -317h646l-49 -270h-645l-60 -329h746l-52 -287h-1020l17 106q-176 -144 -458 -144q-292 0 -483.5 200t-191.5 505zM407 667q0 -171 110.5 -292t277.5 -121 q223 0 376.5 167t153.5 399q0 170 -111 291.5t-277 121.5q-224 0 -377 -167t-153 -399z" />
<glyph unicode="&#x153;" horiz-adv-x="2146" d="M53 482q0 266 183 445t452 179q260 0 413 -184q188 184 458 184q228 0 374 -144.5t146 -356.5q0 -113 -28 -188h-826q24 -100 96 -151t175 -51q189 0 382 117v-289q-183 -90 -394 -90q-281 0 -436 189q-183 -187 -460 -187q-230 0 -382.5 149.5t-152.5 377.5zM352 496 q0 -113 71.5 -186.5t179.5 -73.5q132 0 227 98.5t95 230.5q0 113 -71.5 186.5t-182.5 73.5q-130 0 -224.5 -98.5t-94.5 -230.5zM1238 632h553q-11 94 -77 155t-168 61q-108 0 -191 -58t-117 -158z" />
<glyph unicode="&#x178;" horiz-adv-x="1382" d="M166 1491h320l187 -590l28 -104l59 102l403 592h355l-695 -1007l-88 -484h-313l90 488zM458 1848.5q0 72.5 52.5 125t123.5 52.5q75 0 127 -51.5t52 -126t-52 -125.5t-127 -51q-72 0 -124 52t-52 124.5zM912 1848.5q0 72.5 52 125t127 52.5q73 0 125 -52.5t52 -125 t-52 -124.5t-125 -52q-75 0 -127 52t-52 124.5z" />
<glyph unicode="&#x2c6;" horiz-adv-x="1317" d="M326 1254l292 392h368l162 -392h-262l-100 193l-162 -193h-298z" />
<glyph unicode="&#x2dc;" horiz-adv-x="1317" d="M332 1258q21 163 102 248t200 85q77 0 155 -46.5t101 -46.5q69 0 75 91h238q-21 -162 -103 -247.5t-199 -85.5q-81 0 -158.5 46t-99.5 46q-66 0 -72 -90h-239z" />
<glyph unicode="&#x2000;" horiz-adv-x="1100" />
<glyph unicode="&#x2001;" horiz-adv-x="2201" />
<glyph unicode="&#x2002;" horiz-adv-x="1100" />
<glyph unicode="&#x2003;" horiz-adv-x="2201" />
<glyph unicode="&#x2004;" horiz-adv-x="733" />
<glyph unicode="&#x2005;" horiz-adv-x="550" />
<glyph unicode="&#x2006;" horiz-adv-x="366" />
<glyph unicode="&#x2007;" horiz-adv-x="366" />
<glyph unicode="&#x2008;" horiz-adv-x="275" />
<glyph unicode="&#x2009;" horiz-adv-x="440" />
<glyph unicode="&#x200a;" horiz-adv-x="122" />
<glyph unicode="&#x2010;" horiz-adv-x="1053" d="M94 462l48 280h810l-49 -280h-809z" />
<glyph unicode="&#x2011;" horiz-adv-x="1053" d="M94 462l48 280h810l-49 -280h-809z" />
<glyph unicode="&#x2012;" horiz-adv-x="1053" d="M94 462l48 280h810l-49 -280h-809z" />
<glyph unicode="&#x2013;" horiz-adv-x="1303" d="M94 462l48 280h1059l-49 -280h-1058z" />
<glyph unicode="&#x2014;" horiz-adv-x="1786" d="M94 462l48 280h1543l-49 -280h-1542z" />
<glyph unicode="&#x2018;" horiz-adv-x="553" d="M198 1366q0 119 84 249.5t195 224.5l190 -136q-118 -96 -175 -188q100 -53 100 -164q0 -79 -57.5 -135t-138.5 -56q-85 0 -141.5 59.5t-56.5 145.5z" />
<glyph unicode="&#x2019;" horiz-adv-x="565" d="M156 1063q118 96 174 187q-100 53 -100 164q0 79 57.5 135.5t140.5 56.5q86 0 141 -59.5t55 -144.5q0 -120 -84 -251t-195 -224z" />
<glyph unicode="&#x201a;" horiz-adv-x="574" d="M-71 -224q118 96 173 188q-98 55 -98 164q0 77 58 134t139 57q85 0 140 -59t55 -145q0 -119 -83 -250t-193 -225z" />
<glyph unicode="&#x201c;" horiz-adv-x="1034" d="M198 1366q0 119 84.5 249.5t194.5 224.5l190 -136q-118 -96 -175 -188q100 -53 100 -164q0 -79 -57.5 -135t-138.5 -56q-85 0 -141.5 59.5t-56.5 145.5zM679 1366q0 119 84.5 249.5t195.5 224.5l187 -136q-117 -96 -173 -188q100 -53 100 -164q0 -79 -57 -135t-140 -56 q-86 0 -141.5 59.5t-55.5 145.5z" />
<glyph unicode="&#x201d;" horiz-adv-x="1045" d="M156 1063q118 96 174 187q-100 53 -100 164q0 79 57.5 135.5t140.5 56.5q86 0 141 -59.5t55 -144.5q0 -120 -84 -251t-195 -224zM636 1063q118 96 173 187q-100 53 -100 164q0 79 57.5 135.5t140.5 56.5q85 0 140.5 -59.5t55.5 -144.5q0 -120 -84 -251t-194 -224z" />
<glyph unicode="&#x201e;" horiz-adv-x="1053" d="M-71 -224q118 96 173 188q-98 55 -98 164q0 77 58 134t139 57q85 0 140 -59t55 -145q0 -119 -83 -250t-193 -225zM411 -224q117 96 175 188q-100 53 -100 164q0 77 57 134t138 57q85 0 142 -59t57 -145q0 -119 -84.5 -250t-194.5 -225z" />
<glyph unicode="&#x2022;" horiz-adv-x="977" d="M145 701q0 147 104.5 250.5t248.5 103.5q147 0 250.5 -103.5t103.5 -250.5q0 -145 -103.5 -249.5t-250.5 -104.5q-144 0 -248.5 104.5t-104.5 249.5z" />
<glyph unicode="&#x2026;" horiz-adv-x="1642" d="M2 130q0 77 56.5 133t135 56t135.5 -56t57 -133t-57 -133t-135.5 -56t-135 56t-56.5 133zM541 130q0 77 56.5 133t135 56t135.5 -56t57 -133t-57 -133t-135.5 -56t-135 56t-56.5 133zM1093 130q0 77 56 133t135 56q77 0 133.5 -56t56.5 -133t-56.5 -133t-133.5 -56 q-79 0 -135 56t-56 133z" />
<glyph unicode="&#x202f;" horiz-adv-x="440" />
<glyph unicode="&#x2039;" horiz-adv-x="702" d="M57 563l309 419h329l-339 -450l164 -428h-294z" />
<glyph unicode="&#x203a;" horiz-adv-x="699" d="M-24 100l339 451l-164 427h294l169 -458h2l-311 -420h-329z" />
<glyph unicode="&#x205f;" horiz-adv-x="550" />
<glyph unicode="&#x20ac;" horiz-adv-x="1398" d="M24 482l35 201h134q3 66 14 130h-124l37 203h142q98 236 305.5 372.5t469.5 136.5q132 0 253.5 -34t193.5 -85l-159 -262q-138 89 -305 89q-264 0 -415 -217h490l-36 -203h-541q-15 -65 -18 -130h535l-36 -201h-464q42 -102 127.5 -165t201.5 -63q153 0 350 110l24 -313 q-183 -89 -392 -89q-263 0 -424.5 146t-210.5 374h-187z" />
<glyph unicode="&#x2122;" horiz-adv-x="1460" d="M198 1312l32 179h518l-32 -179h-163l-69 -403h-194l70 403h-162zM720 909l103 582h185l85 -235l175 235h202l-102 -582h-193l22 120l49 200l-75 -103l-74 -114h-75l-34 114l-36 105l-23 -202l-20 -120h-189z" />
<glyph unicode="&#x25fc;" horiz-adv-x="1064" d="M0 0v1065h1065v-1065h-1065z" />
<glyph unicode="&#xfb03;" horiz-adv-x="2242" d="M83 803l47 262h189l26 138q35 194 154 292t289 98q118 0 281 -64l-93 -261q-88 40 -167 39q-65 0 -110 -39t-58 -112l-17 -91h451l24 126q37 207 171 308t327 101q239 0 439 -75l-97 -262q-161 59 -335 60q-179 0 -214 -187l-12 -71h742l-118 -660l-15 -94 q-8 -49 15.5 -73.5t78.5 -11.5l13 -224q-234 -61 -333.5 31.5t-73.5 269.5l14 102l71 398h-441l-140 -803h-305l143 803h-452l-144 -803h-301l143 803h-192z" />
</font>
</defs>
</svg>
