<?xml version="1.0" standalone="no"?>
<!DOCTYPE svg PUBLIC "-//W3C//DTD SVG 1.1//EN" "http://www.w3.org/Graphics/SVG/1.1/DTD/svg11.dtd" >
<svg xmlns="http://www.w3.org/2000/svg" xmlns:xlink="http://www.w3.org/1999/xlink" version="1.1">
<metadata></metadata>
<defs>
<font id="xxiigeom-heavyuploaded_file" horiz-adv-x="1321" >
<font-face units-per-em="2048" ascent="1546" descent="-502" />
<missing-glyph horiz-adv-x="516" />
<glyph unicode="&#xfb01;" horiz-adv-x="1488" d="M55 750v315h167v83q0 250 138 375t384 125q217 0 443 -81l-69 -340q-203 85 -347 85q-81 0 -127 -43.5t-46 -120.5v-83h780v-1065h-376v750h-404v-750h-376v750h-167z" />
<glyph unicode="&#xfb02;" horiz-adv-x="1477" d="M55 750v315h167v113q0 236 146.5 364t391.5 128q149 0 317.5 -48t288.5 -110v-1512h-380v1295q-126 38 -208 38q-85 0 -132.5 -48.5t-47.5 -134.5v-85h222v-315h-222v-750h-376v750h-167z" />
<glyph horiz-adv-x="0" />
<glyph unicode="&#xd;" horiz-adv-x="708" />
<glyph unicode=" "  horiz-adv-x="516" />
<glyph unicode="&#x09;" horiz-adv-x="516" />
<glyph unicode="&#xa0;" horiz-adv-x="516" />
<glyph unicode="!" horiz-adv-x="644" d="M98 162q0 94 67 160t160.5 66t160.5 -66t67 -160q0 -91 -67 -158t-160.5 -67t-160.5 67t-67 158zM118 1508h406l-51 -1008h-305z" />
<glyph unicode="&#x22;" horiz-adv-x="1017" d="M89 1589h364l-34 -646h-293zM563 1589h364l-35 -646h-296z" />
<glyph unicode="#" horiz-adv-x="1681" d="M51 290l83 302h205l66 264h-216l83 303h212l74 290h343l-74 -290h246l75 290h343l-75 -290h214l-86 -303h-207l-67 -264h221l-85 -302h-215l-75 -290h-343l75 290h-245l-75 -290h-343l75 290h-209zM681 592h246l69 264h-246z" />
<glyph unicode="$" horiz-adv-x="1288" d="M66 102l90 375q118 -72 256.5 -118t245.5 -46q66 0 106.5 30.5t40.5 78.5q0 41 -53 74.5t-134 57t-173.5 65t-174 92.5t-134.5 143.5t-53 214.5q0 167 109 280.5t285 156.5v205h369v-205q174 -32 343 -120l-88 -366q-106 62 -236 105.5t-229 43.5q-63 0 -100.5 -26.5 t-37.5 -69.5q0 -36 40.5 -65.5t104.5 -53t141.5 -50t155.5 -66t142 -90.5t104.5 -134.5t40.5 -187.5q0 -166 -104.5 -281t-276.5 -162v-217h-369v202q-197 28 -411 134z" />
<glyph unicode="%" horiz-adv-x="2167" d="M55 1099q0 185 124 306.5t309 121.5q187 0 309.5 -120.5t122.5 -307.5q0 -185 -122.5 -306.5t-309.5 -121.5t-310 121.5t-123 306.5zM354 1099q0 -59 38.5 -103t95.5 -44q59 0 97.5 43.5t38.5 103.5q0 62 -38.5 104.5t-97.5 42.5q-57 0 -95.5 -42.5t-38.5 -104.5zM437 0 l900 1491h382l-902 -1491h-380zM1248 400q0 186 124 307.5t309 121.5q187 0 309.5 -121.5t122.5 -307.5q0 -187 -122.5 -308.5t-310 -121.5t-310 121.5t-122.5 308.5zM1546 400q0 -61 37.5 -103.5t97.5 -42.5q57 0 96.5 42.5t39.5 103.5q0 60 -39.5 102.5t-96.5 42.5 q-60 0 -97.5 -42.5t-37.5 -102.5z" />
<glyph unicode="&#x26;" horiz-adv-x="1563" d="M51 439q0 270 331 417q-100 147 -101 292q0 189 142 304t346 115t345.5 -116t141.5 -307q0 -250 -331 -426l152 -181q171 150 248 278l187 -323q-79 -110 -205 -226l231 -268h-454l-55 68q-222 -120 -426 -119q-234 0 -393 134t-159 358zM451 439q0 -66 47 -105.5 t120 -39.5q77 0 181 49l-211 255q-137 -61 -137 -159zM654 1124q0 -77 66 -163q164 71 164 163q0 49 -32 80.5t-83 31.5t-83 -31.5t-32 -80.5z" />
<glyph unicode="'" horiz-adv-x="544" d="M89 1589h364l-34 -646h-293z" />
<glyph unicode="(" horiz-adv-x="725" d="M81 633q0 570 213 1071h385q-195 -501 -195 -1071t195 -1059h-385q-213 489 -213 1059z" />
<glyph unicode=")" horiz-adv-x="728" d="M47 -426q195 489 195 1059t-195 1071h386q215 -501 215 -1071t-215 -1059h-386z" />
<glyph unicode="*" horiz-adv-x="953" d="M63 1187l86 262l215 -101l-23 237h277l-28 -237l215 101l85 -262l-232 -53l155 -167l-223 -162l-113 199l-113 -199l-224 162l156 167z" />
<glyph unicode="+" horiz-adv-x="1290" d="M96 471v317h398v385h317v-385h384v-317h-384v-398h-317v398h-398z" />
<glyph unicode="," horiz-adv-x="602" d="M51 -352l142 311q-123 60 -122 201q0 96 67 161t162.5 65t163.5 -65t68 -161q0 -47 -44 -158l-147 -354h-290z" />
<glyph unicode="-" horiz-adv-x="1051" d="M110 445v343h831v-343h-831z" />
<glyph unicode="." horiz-adv-x="593" d="M69 162.5q0 91.5 68 158.5t161.5 67t160.5 -67t67 -158.5t-68 -158.5t-160 -67q-93 0 -161 67t-68 158.5z" />
<glyph unicode="/" horiz-adv-x="1113" d="M49 -128l613 1746h405l-614 -1746h-404z" />
<glyph unicode="0" horiz-adv-x="1479" d="M79 741q0 322 181 544.5t479 222.5t481.5 -222.5t183.5 -544.5t-182.5 -544.5t-482.5 -222.5q-298 0 -479 222.5t-181 544.5zM462 741q0 -162 71.5 -275.5t208.5 -113.5q134 0 206 113.5t72 275.5t-72 274.5t-206 112.5q-137 0 -208.5 -112.5t-71.5 -274.5z" />
<glyph unicode="1" horiz-adv-x="843" d="M55 959v385l337 147h293v-1491h-391v1065z" />
<glyph unicode="2" horiz-adv-x="1238" d="M73 0v309l549 522q106 106 106 191q0 53 -42.5 90.5t-102.5 37.5q-144 0 -390 -172l-112 359q258 181 526 181q220 0 368.5 -127.5t148.5 -329.5q0 -240 -250 -467l-273 -255l141 23h412v-362h-1081z" />
<glyph unicode="3" horiz-adv-x="1250" d="M53 87l83 360q92 -51 216.5 -85t228.5 -34q88 0 142.5 36t54.5 102t-52.5 101.5t-131.5 35.5h-230v296h230q73 0 120.5 35t47.5 99t-50 100t-131 36q-162 0 -404 -119l-81 352q242 117 498 116q223 0 382.5 -121t159.5 -324q-1 -189 -148 -313q179 -126 179 -332 t-170 -330t-403 -124q-271 0 -541 113z" />
<glyph unicode="4" horiz-adv-x="1275" d="M41 565l294 926h400l-282 -833h224l56 394h330v-394h160v-337h-160v-321h-390v321h-596z" />
<glyph unicode="5" horiz-adv-x="1226" d="M69 83l73 362q260 -122 435 -122q96 0 154.5 44t58.5 121t-55.5 120.5t-136.5 43.5q-122 0 -212 -64l-282 142l118 761h845v-337h-541l-38 -215q81 24 166 24q220 0 365.5 -130t145.5 -343q0 -236 -167 -378t-421 -142q-258 0 -508 113z" />
<glyph unicode="6" horiz-adv-x="1275" d="M71 532q0 43 8 90t16.5 77.5t30 81t31 68.5t38.5 72.5t33 62.5l270 514h445l-208 -335l-103 -137q49 13 96 13q203 0 355.5 -139.5t152.5 -367.5q0 -231 -174 -397.5t-410.5 -166.5t-408.5 165t-172 399zM437 532.5q0 -87.5 64 -151.5t151 -64t151 64t64 151.5t-64 149.5 t-151 62t-151 -62t-64 -149.5z" />
<glyph unicode="7" horiz-adv-x="1120" d="M51 1126v365h1024v-275l-498 -1216h-424l483 1126h-585z" />
<glyph unicode="8" horiz-adv-x="1323" d="M75 447q0 215 179 339q-116 116 -116 285q0 207 153.5 336t371 129t371 -129t153.5 -336q0 -172 -118 -283q181 -128 181 -341q0 -223 -172.5 -357.5t-415.5 -134.5t-415 134.5t-172 357.5zM460 481.5q0 -79.5 59.5 -131.5t143 -52t142.5 52t59 131.5t-59 128 t-142.5 48.5t-143 -48.5t-59.5 -128zM490 1046q0 -68 50 -112t122 -44q71 0 121 44t50 112t-50 110.5t-121 42.5q-72 0 -122 -42.5t-50 -110.5z" />
<glyph unicode="9" horiz-adv-x="1275" d="M41 963q0 232 173.5 398t409.5 166t408.5 -165t172.5 -399q0 -51 -7 -99.5t-30.5 -105.5t-33.5 -79.5t-47 -93.5t-39 -73l-270 -514h-446l209 337l100 132q-49 -10 -94 -11q-203 0 -354.5 139.5t-151.5 367.5zM409 963q0 -87 64 -149t151 -62t151 62t64 149t-64 151 t-151 64t-151 -64t-64 -151z" />
<glyph unicode=":" horiz-adv-x="644" d="M94 162.5q0 91.5 68 158.5t161.5 67t160.5 -67t67 -158.5t-68 -158.5t-160 -67q-93 0 -161 67t-68 158.5zM94 807q0 94 68 161t161.5 67t160.5 -68t67 -159.5t-68 -159t-160 -67.5q-93 0 -161 67.5t-68 158.5z" />
<glyph unicode=";" horiz-adv-x="648" d="M77 -352l142 311q-55 29 -89 82t-34 119q0 96 67 161t163 65t164 -65t68 -161q0 -55 -44 -158l-148 -354h-289zM94 807q0 94 68 161t161.5 67t160.5 -68t67 -159.5t-68 -159t-160 -67.5q-93 0 -161 67.5t-68 158.5z" />
<glyph unicode="&#x3c;" horiz-adv-x="1290" d="M136 407v408l980 341l-2 -353l-658 -191l658 -193l2 -356z" />
<glyph unicode="=" horiz-adv-x="1290" d="M96 524h1099v-317h-1097zM96 1044h1099v-318h-1097z" />
<glyph unicode="&#x3e;" horiz-adv-x="1290" d="M175 63l2 356l660 193l-660 191l-2 353l979 -341v-408z" />
<glyph unicode="?" horiz-adv-x="1113" d="M53 1397q262 158 514 158q209 0 350.5 -114t141.5 -295q0 -96 -41.5 -177t-99.5 -134t-116 -102.5t-100 -107.5t-42 -125l-373 -2q0 120 38.5 212.5t93 145.5t109.5 92.5t93.5 78t38.5 79.5q0 44 -33 69.5t-86 25.5q-83 0 -206.5 -56t-202.5 -110zM256 162.5 q0 91.5 67 158.5t160.5 67t161.5 -67t68 -158.5t-68 -158.5t-161 -67q-92 0 -160 67t-68 158.5z" />
<glyph unicode="@" horiz-adv-x="2118" d="M66 528q0 417 293 709t712 292q205 0 387 -73.5t309 -195.5t199 -284.5t72 -336.5q0 -234 -131 -411t-348 -177q-102 0 -179 44.5t-114 119.5q-53 -77 -136.5 -116.5t-168.5 -39.5q-177 0 -290 126t-113 307q0 207 132.5 348.5t323.5 141.5q79 0 149 -31t109 -75l12 81 h275l-63 -482q-9 -61 14.5 -100.5t74.5 -39.5q75 0 121.5 90.5t46.5 213.5q0 245 -195 427t-487 182q-298 0 -510 -210.5t-212 -509.5q0 -300 211 -509.5t511 -209.5q238 0 437 157l115 -275q-70 -59 -225.5 -111.5t-326.5 -52.5q-422 0 -713.5 289.5t-291.5 711.5zM864 498 q0 -65 44 -111t116 -46q102 0 173 78l19 199q-57 85 -159 85q-84 0 -138.5 -57.5t-54.5 -147.5z" />
<glyph unicode="A" horiz-adv-x="1522" d="M6 0l531 1496h449l528 -1496h-408l-73 222h-543l-73 -222h-411zM592 535h335l-118 359l-49 203l-49 -203z" />
<glyph unicode="B" horiz-adv-x="1435" d="M134 0v1491h686q231 0 374 -118.5t143 -301.5q0 -203 -170 -313q195 -113 196 -319q0 -205 -144 -322t-392 -117h-693zM526 332h281q73 0 116.5 40.5t43.5 96t-40.5 97t-121.5 41.5v90v2v-92h-279v-275zM526 892h273q61 0 101.5 42t40.5 95q0 48 -41.5 90t-104.5 42h-269 v-269z" />
<glyph unicode="C" horiz-adv-x="1341" d="M63 743q0 330 220.5 556t566.5 226q260 0 439 -104l-66 -403q-168 126 -363 126q-177 0 -289.5 -118.5t-112.5 -281.5t112.5 -282t289.5 -119q194 0 363 126l66 -403q-66 -41 -183.5 -72.5t-255.5 -31.5q-346 0 -566.5 225.5t-220.5 555.5z" />
<glyph unicode="D" horiz-adv-x="1530" d="M134 0v1491h569q330 0 547 -210t217 -537q0 -326 -217 -535t-547 -209h-569zM526 376h177q160 0 266 105t106 263q0 160 -106.5 265t-263.5 105h-179v-738z" />
<glyph unicode="E" horiz-adv-x="1362" d="M134 0v1491h1146v-355h-754v-231h656v-313h-656v-236h754v-356h-1146z" />
<glyph unicode="F" horiz-adv-x="1296" d="M134 0v1491h1095v-355h-703v-278h596v-326h-596v-532h-392z" />
<glyph unicode="G" horiz-adv-x="1528" d="M63 743q0 334 224.5 558t568.5 224q224 0 471 -96l-79 -379q-205 98 -392 98q-171 0 -287 -117t-116 -287.5t117.5 -293t285.5 -122.5q110 0 203 40v211h-275v290h665v-727q-104 -79 -267.5 -129.5t-325.5 -50.5q-345 0 -569 223.5t-224 557.5z" />
<glyph unicode="H" horiz-adv-x="1586" d="M134 0v1491h392v-560h535v560h390v-1491h-390v567h-535v-567h-392z" />
<glyph unicode="I" horiz-adv-x="659" d="M134 0v1491h392v-1491h-392z" />
<glyph unicode="J" horiz-adv-x="1158" d="M28 61l72 384q153 -93 311 -93q104 0 169.5 66t65.5 170v903h391v-903q0 -285 -170 -454.5t-456 -169.5q-211 0 -383 97z" />
<glyph unicode="K" horiz-adv-x="1498" d="M134 0v1491h392v-485l-10 -216l127 216l345 485h486l-517 -682l579 -809h-486l-345 494l-179 -193v-301h-392z" />
<glyph unicode="L" horiz-adv-x="1217" d="M134 0v1491h392v-1133h649v-358h-1041z" />
<glyph unicode="M" horiz-adv-x="1880" d="M134 0v1491h469l338 -701l337 701h468v-1491h-391v646l4 323l-141 -323l-172 -365h-211l-173 365l-140 323l4 -323v-646h-392z" />
<glyph unicode="N" horiz-adv-x="1628" d="M134 0v1491h350l630 -845l-11 177v668h393v-1491h-350l-630 843l10 -168v-675h-392z" />
<glyph unicode="O" horiz-adv-x="1675" d="M61 743q0 330 223.5 557t554.5 227q330 0 553.5 -227t223.5 -557t-223.5 -557t-553.5 -227q-331 0 -554.5 227t-223.5 557zM456 743q0 -166 110.5 -285t273 -119t273 119t110.5 285t-110.5 285.5t-273 119.5t-273 -119.5t-110.5 -285.5z" />
<glyph unicode="P" horiz-adv-x="1415" d="M134 0v1491h644q258 0 425 -153t167 -403t-167.5 -401.5t-424.5 -151.5h-252v-382h-392zM526 735h252q83 0 142.5 59.5t59.5 140.5t-60 142t-142 61h-252v-403z" />
<glyph unicode="Q" horiz-adv-x="1675" d="M61 743q0 330 222.5 557t555.5 227q330 0 553.5 -227t223.5 -556q0 -375 -276 -606l243 -430h-475l-130 262q-75 -11 -139 -11q-331 0 -554.5 227t-223.5 557zM456 743q0 -166 110.5 -285t273 -119t273 119t110.5 285t-110.5 285.5t-273 119.5t-273 -119.5t-110.5 -285.5 z" />
<glyph unicode="R" horiz-adv-x="1447" d="M134 0v1491h679q238 0 397.5 -144t159.5 -374q0 -146 -69.5 -258t-190.5 -176l294 -539h-437l-239 471h-202v-471h-392zM526 799h287q69 0 119 48.5t50 119t-50 120t-119 49.5h-287v-337z" />
<glyph unicode="S" horiz-adv-x="1288" d="M63 102l90 375q119 -72 258.5 -118t244.5 -46q69 0 109 30.5t40 78.5q0 41 -53 74.5t-134 57t-173.5 65t-174 92.5t-134.5 143.5t-53 214.5q0 207 164.5 331.5t404.5 124.5q268 0 535 -139l-88 -366q-106 62 -236 105.5t-229 43.5q-63 0 -99.5 -26.5t-36.5 -69.5 q0 -40 54.5 -75t134 -59.5t175 -66t175 -92t134 -143t54.5 -211.5q0 -215 -168.5 -342t-417.5 -127q-293 0 -576 145z" />
<glyph unicode="T" horiz-adv-x="1317" d="M47 1112v379h1225v-379h-418v-1112h-390v1112h-417z" />
<glyph unicode="U" horiz-adv-x="1539" d="M120 618v873h389v-873q0 -114 74.5 -191.5t185.5 -77.5t185.5 77.5t74.5 191.5v873h392v-873q0 -290 -180 -469t-472 -179q-291 0 -470 179t-179 469z" />
<glyph unicode="V" horiz-adv-x="1506" d="M10 1491h437l241 -782l68 -298l67 298l240 782h435l-512 -1499h-464z" />
<glyph unicode="W" horiz-adv-x="2180" d="M30 1491h447l143 -727l55 -345l77 345l157 606h365l155 -606l77 -351l57 351l143 727h445l-358 -1491h-490l-151 565l-61 291l-62 -291l-149 -565h-492z" />
<glyph unicode="X" horiz-adv-x="1437" d="M-24 0l493 766l-450 725h463l197 -343l41 -91l40 91l197 343h476l-462 -725l476 -766h-463l-224 386l-40 91l-41 -91l-223 -386h-480z" />
<glyph unicode="Y" horiz-adv-x="1431" d="M-6 1491h432l249 -539l41 -117l40 117l250 539h431l-519 -1044v-447h-404v447z" />
<glyph unicode="Z" horiz-adv-x="1281" d="M81 0v254l610 894l-108 -18h-502v361h1120v-253l-605 -893l103 17h502v-362h-1120z" />
<glyph unicode="[" horiz-adv-x="798" d="M149 -426v2130h584v-352h-211v-1427h211v-351h-584z" />
<glyph unicode="\" horiz-adv-x="1113" d="M47 1618h404l614 -1746h-405z" />
<glyph unicode="]" horiz-adv-x="798" d="M66 -75h211v1427h-211v352h584v-2130h-584v351z" />
<glyph unicode="^" horiz-adv-x="1290" d="M120 746l321 745h409l321 -745h-342l-183 472l-186 -472h-340z" />
<glyph unicode="_" horiz-adv-x="1256" d="M87 -4h1080v-345h-1078z" />
<glyph unicode="`" horiz-adv-x="732" d="M63 1661h406l200 -421h-320z" />
<glyph unicode="a" d="M61 535q0 231 138 395.5t352 164.5q100 0 188 -43.5t137 -114.5l4 128h332v-1065h-332l-4 128q-49 -71 -137.5 -115.5t-187.5 -44.5q-217 0 -353.5 166.5t-136.5 400.5zM435 534.5q0 -89.5 60.5 -155.5t147.5 -66q123 0 200 104v233q-74 100 -200 100q-88 0 -148 -63 t-60 -152.5z" />
<glyph unicode="b" horiz-adv-x="1319" d="M110 0v1512h378v-453l-9 -81q113 117 292 117q215 0 352 -164.5t137 -395.5q0 -234 -136 -400.5t-353 -166.5q-100 0 -188.5 44.5t-137.5 115.5l-4 -128h-331zM479 417q72 -104 200 -104q87 0 147 65t60 157q0 89 -60 152t-147 63q-132 0 -200 -100v-233z" />
<glyph unicode="c" horiz-adv-x="1036" d="M59 530q0 250 167.5 414t421.5 164q183 0 332 -79l-64 -356q-113 77 -256 77q-97 0 -164.5 -65t-67.5 -154.5t67.5 -154.5t164.5 -65q137 0 260 81l60 -356q-171 -85 -332 -85q-254 0 -421.5 164t-167.5 415z" />
<glyph unicode="d" d="M61 535q0 231 138 395.5t352 164.5q179 0 292 -119l-10 83v453h379v-1512h-332l-4 128q-49 -71 -137.5 -115.5t-187.5 -44.5q-217 0 -353.5 166.5t-136.5 400.5zM435 534.5q0 -89.5 60.5 -155.5t147.5 -66q123 0 200 104v233q-74 100 -200 100q-88 0 -148 -63t-60 -152.5 z" />
<glyph unicode="e" horiz-adv-x="1260" d="M59 528q0 254 165.5 417t418.5 163q249 0 406.5 -152.5t157.5 -361.5q0 -102 -20 -179h-756q18 -81 86.5 -124t170.5 -43q175 0 347 99l45 -313q-175 -85 -387 -85q-297 0 -465.5 164t-168.5 415zM426 630h428q-13 88 -68.5 136.5t-142.5 48.5t-144.5 -49.5t-72.5 -135.5 z" />
<glyph unicode="f" horiz-adv-x="874" d="M55 750v315h167v94q0 238 127.5 353.5t343.5 115.5q123 0 236 -37l-45 -325q-80 25 -149 25q-59 0 -98 -37.5t-39 -94.5v-94h241v-315h-241v-750h-376v750h-167z" />
<glyph unicode="g" d="M61 535q0 231 138 395.5t352 164.5q100 0 188 -43.5t137 -114.5l4 128h332v-1065q0 -254 -158 -392t-430 -138q-193 0 -433 102l65 324q197 -104 358 -105q110 0 175 64t65 173v72q-116 -132 -303 -132q-217 0 -353.5 166.5t-136.5 400.5zM435 534.5q0 -89.5 60.5 -155.5 t147.5 -66q123 0 200 104v233q-74 100 -200 100q-88 0 -148 -63t-60 -152.5z" />
<glyph unicode="h" horiz-adv-x="1328" d="M110 0v1512h378v-577q128 160 335 160q176 0 291 -123.5t115 -304.5v-667h-377v573q0 79 -44 126t-117 47q-56 0 -112.5 -36.5t-86.5 -93.5l-2 -616h-380z" />
<glyph unicode="i" horiz-adv-x="595" d="M73 1421q0 87 66 149t159.5 62t159.5 -62t66 -149q0 -90 -66 -152t-159.5 -62t-159.5 62t-66 152zM108 0v1065h380v-1065h-380z" />
<glyph unicode="j" horiz-adv-x="595" d="M-75 -526l2 349q90 0 135.5 48t45.5 131v1063h380l-2 -1065q0 -268 -137 -397t-424 -129zM73 1421q0 87 66 149t159.5 62t159.5 -62t66 -149q0 -90 -66 -152t-159.5 -62t-159.5 62t-66 152z" />
<glyph unicode="k" horiz-adv-x="1268" d="M110 0v1512h378v-673l-21 -232l129 196l221 262h451l-401 -469l419 -596h-449l-207 317l-142 -166v-151h-378z" />
<glyph unicode="l" horiz-adv-x="602" d="M113 0v1512h377v-1512h-377z" />
<glyph unicode="m" horiz-adv-x="1920" d="M110 0v1065h354l9 -140q100 170 305 170q201 0 308 -173q57 80 146 126.5t189 46.5q168 0 285 -118.5t117 -285.5v-691h-378v598q0 66 -38.5 107t-101.5 41q-100 0 -153 -110v-636h-372v598q0 69 -35.5 108.5t-94.5 39.5q-49 0 -92.5 -31.5t-69.5 -80.5v-634h-378z" />
<glyph unicode="n" horiz-adv-x="1326" d="M110 0v1065h357l6 -147q127 177 347 177q176 0 291.5 -123.5t115.5 -304.5v-667h-377v573q0 79 -44 126t-118 47q-55 0 -111.5 -37.5t-86.5 -94.5l-2 -614h-378z" />
<glyph unicode="o" horiz-adv-x="1283" d="M57 530q0 243 169.5 409.5t416.5 166.5t415.5 -166.5t168.5 -409.5q0 -240 -169.5 -407.5t-414.5 -167.5q-248 0 -417 167.5t-169 407.5zM426 532.5q0 -93.5 61.5 -160.5t155.5 -67q91 0 153 67t62 160.5t-62 158.5t-153 65q-94 0 -155.5 -65t-61.5 -158.5z" />
<glyph unicode="p" horiz-adv-x="1319" d="M110 -447v1512h333l2 -96v-12v-20q49 71 137.5 114.5t188.5 43.5q215 0 352 -164.5t137 -395.5q0 -234 -136 -400.5t-353 -166.5q-179 0 -292 119l9 -81v-453h-378zM479 417q72 -104 200 -104q87 0 147 65t60 157q0 89 -60 152t-147 63q-132 0 -200 -100v-233z" />
<glyph unicode="q" d="M61 535q0 231 138 395.5t352 164.5q100 0 188 -43.5t137 -114.5l4 128h332v-1512h-379v453l10 81q-115 -119 -292 -119q-217 0 -353.5 166.5t-136.5 400.5zM435 534.5q0 -89.5 60 -155.5t148 -66q123 0 200 104v233q-74 100 -200 100q-88 0 -148 -63t-60 -152.5z" />
<glyph unicode="r" horiz-adv-x="949" d="M110 0v1065h354l9 -171q114 203 328 203q81 0 138 -32l-70 -360q-65 39 -149 39q-69 0 -133.5 -43t-98.5 -109v-592h-378z" />
<glyph unicode="s" horiz-adv-x="1041" d="M71 41l44 308q203 -106 391 -107q107 0 108 69q0 32 -57 56.5t-135.5 51t-158.5 63t-136 108.5t-56 170q0 162 134 256t332 94q117 0 228 -25.5t170 -55.5l-45 -301q-187 94 -353 95q-102 -1 -102 -63q0 -30 56 -54.5t137 -50t162.5 -61.5t137.5 -109.5t56 -175.5 q0 -169 -137.5 -262.5t-340.5 -93.5q-213 0 -435 88z" />
<glyph unicode="t" horiz-adv-x="953" d="M43 750v315h168v307h377v-307h300v-315h-300v-307q0 -49 30 -77.5t79 -28.5h4q74 0 149 35l53 -340q-128 -55 -260 -56q-207 0 -319.5 113.5t-112.5 327.5v333h-168z" />
<glyph unicode="u" horiz-adv-x="1326" d="M100 398v667h377v-573q0 -79 44 -126t118 -47q55 0 111.5 36.5t86.5 93.5l2 616h377v-1065h-356l-6 145q-130 -175 -348 -175q-176 0 -291 123.5t-115 304.5z" />
<glyph unicode="v" horiz-adv-x="1236" d="M15 1065h418l144 -504l43 -195l40 195l145 504h416l-410 -1073h-387z" />
<glyph unicode="w" horiz-adv-x="1803" d="M28 1065h398l102 -488l33 -205l51 207l163 486h254l166 -482l49 -207l32 207l102 482h398l-296 -1073h-385l-160 453l-34 143l-32 -141l-160 -455h-386z" />
<glyph unicode="x" horiz-adv-x="1211" d="M6 0l348 530l-339 535h432l111 -203l38 -87l40 87l122 203h433l-335 -509l356 -556h-432l-128 224l-38 83l-39 -83l-136 -224h-433z" />
<glyph unicode="y" horiz-adv-x="1232" d="M21 1065h416l149 -520l34 -151l36 151l151 520h416l-582 -1512h-405l186 437z" />
<glyph unicode="z" horiz-adv-x="1128" d="M77 0v224l466 536l-76 -12h-382v317h961v-224l-460 -534l72 10h394v-317h-975z" />
<glyph unicode="{" horiz-adv-x="832" d="M28 467v344q87 0 134 48t47 133v186q0 271 137.5 398.5t417.5 127.5v-349q-189 -1 -189 -190v-189q0 -222 -134 -337q134 -116 134 -336v-190q0 -189 189 -190v-349q-556 0 -555 499v212q0 87 -47 134.5t-134 47.5z" />
<glyph unicode="|" horiz-adv-x="672" d="M147 -402v1893h379v-1893h-379z" />
<glyph unicode="}" horiz-adv-x="832" d="M69 -77q189 0 189 190v190q0 221 134 336q-134 115 -134 337v189q0 189 -189 190v349q283 0 419 -127.5t136 -398.5v-186q0 -87 48 -134t135 -47v-344q-87 0 -135 -47.5t-48 -134.5v-212q0 -498 -555 -499v349z" />
<glyph unicode="~" horiz-adv-x="1290" d="M104 713q120 126 309 126q79 0 232.5 -56.5t232.5 -56.5q102 1 204 97l105 -297q-43 -44 -124 -85t-185 -41q-79 0 -232.5 57t-232.5 57q-98 0 -204 -97z" />
<glyph unicode="&#xa1;" horiz-adv-x="626" d="M81 907q0 92 67 159.5t160.5 67.5t162 -67.5t68.5 -159.5t-68.5 -159t-161.5 -67q-92 0 -160 67t-68 159zM110 -439l52 1008h305l53 -1008h-410z" />
<glyph unicode="&#xa2;" horiz-adv-x="1075" d="M66 746q0 185 97 327.5t259 206.5v211h368v-179q104 -18 196 -68l-64 -356q-115 77 -255 77q-98 0 -164 -64t-66 -155.5t66 -155.5t164 -64q134 0 260 79l59 -353q-102 -53 -196 -73v-179h-368v209q-162 63 -259 206t-97 331z" />
<glyph unicode="&#xa3;" horiz-adv-x="1364" d="M73 601v306h175v75q0 260 155 401.5t424 141.5q249 0 427 -80l-47 -359q-176 83 -340 83q-227 0 -228 -228v-34h441v-306h-441v-28q0 -132 -66 -236l138 17h578v-354h-1149v292q69 49 88.5 117t19.5 164v28h-175z" />
<glyph unicode="&#xa4;" horiz-adv-x="1358" d="M77 343l175 175q-62 110 -63 228q0 119 61 225l-171 171l202 200l170 -171q109 57 226 58q120 0 228 -60l172 175l203 -200l-174 -175q59 -106 59 -223q0 -120 -59 -226l174 -177l-203 -201l-176 177q-109 -57 -224 -57q-117 0 -221 57l-177 -177zM486 746q0 -81 55 -138 t136 -57t136.5 57t55.5 138t-56.5 137t-135.5 56t-135 -56t-56 -137z" />
<glyph unicode="&#xa5;" horiz-adv-x="1484" d="M47 1491h435l219 -492l43 -111l40 111l220 492h431l-389 -752h200v-186h-301v-104h301v-183h-301v-266h-404v266h-305v183h305v104h-305v186h205z" />
<glyph unicode="&#xa6;" horiz-adv-x="668" d="M145 362h379v-764h-379v764zM145 726v765h379v-765h-379z" />
<glyph unicode="&#xa7;" horiz-adv-x="1279" d="M63 539q0 195 197 317q-136 110 -136 282q0 189 149 305t383 116q248 0 474 -98l-50 -341q-222 110 -424 111q-138 0 -138 -93q0 -39 51 -73t128.5 -59.5t168.5 -66t168.5 -86.5t128.5 -125.5t51 -182.5q0 -193 -196 -315q138 -114 138 -283q0 -189 -149 -305.5 t-385 -116.5q-232 0 -475 99l54 340q217 -109 421 -109q63 0 100.5 23.5t37.5 68.5q0 47 -71 85.5t-173.5 75.5t-205.5 84.5t-175 137t-72 209.5zM467 551q0 -42 51 -74t157 -72q69 14 102.5 50.5t33.5 79t-51 74.5t-157 72q-136 -34 -136 -130z" />
<glyph unicode="&#xa8;" horiz-adv-x="1051" d="M63 1435q0 85 62 144t149.5 59t147.5 -59t60 -144t-60 -143.5t-147.5 -58.5t-149.5 58.5t-62 143.5zM571 1435q0 85 61 144t148 59t147.5 -59t60.5 -144t-60.5 -143.5t-147.5 -58.5t-148 58.5t-61 143.5z" />
<glyph unicode="&#xa9;" horiz-adv-x="1813" d="M73 748q0 343 245 587t589.5 244t589.5 -244t245 -587q0 -348 -245 -591.5t-589.5 -243.5t-589.5 243.5t-245 591.5zM311 748q0 -250 174.5 -424.5t421.5 -174.5t422 174.5t175 424.5q0 245 -176 420.5t-421 175.5t-420.5 -176t-175.5 -420zM504 748q0 179 122 296 t303 117q123 0 236 -64l-53 -254q-98 51 -171 51q-68 0 -111.5 -41.5t-43.5 -105.5t45 -106.5t110 -42.5q75 1 171 54l51 -258q-118 -63 -234 -64q-183 0 -304 118.5t-121 299.5z" />
<glyph unicode="&#xaa;" horiz-adv-x="900" d="M61 1154.5q0 142.5 92 247t231 104.5q70 0 119.5 -26.5t71.5 -58.5l2 70h209v-668h-207l-2 65q-57 -85 -193 -85q-139 0 -231 104.5t-92 247zM301 1156.5q0 -57.5 36.5 -98t93.5 -40.5q82 0 122 64v147q-42 64 -122 64q-58 0 -94 -39.5t-36 -97z" />
<glyph unicode="&#xab;" horiz-adv-x="1360" d="M73 543l234 437h376l-242 -437l242 -439h-376zM660 543l234 437h380l-243 -437l243 -439h-380z" />
<glyph unicode="&#xac;" horiz-adv-x="1290" d="M63 788h1138v-656h-319v339h-816z" />
<glyph unicode="&#xad;" horiz-adv-x="1051" d="M110 445v343h831v-343h-831z" />
<glyph unicode="&#xae;" horiz-adv-x="890" d="M71 1146q0 158 109.5 266t265 108t265 -108.5t109.5 -265.5q0 -156 -109.5 -264.5t-265 -108.5t-265 108.5t-109.5 264.5zM158 1146q0 -120 85 -204t202.5 -84t202.5 84t85 204t-85 203.5t-202.5 83.5t-202.5 -83.5t-85 -203.5zM307 969v364h162q61 0 102 -35t41 -95 q0 -79 -67 -110l71 -124h-114l-55 106h-45v-106h-95zM402 1156h67q19 0 33 14.5t14 30.5q0 19 -14 33t-33 14h-67v-92z" />
<glyph unicode="&#xaf;" horiz-adv-x="915" d="M63 1299v272h789v-272h-789z" />
<glyph unicode="&#xb0;" horiz-adv-x="1017" d="M57 1069q0 187 131 315t321 128t321 -128t131 -315t-131 -315t-321 -128t-321 128t-131 315zM366 1069q0 -61 41.5 -104t101.5 -43t100.5 43t40.5 104t-40.5 103t-100.5 42t-101.5 -42t-41.5 -103z" />
<glyph unicode="&#xb1;" horiz-adv-x="1290" d="M87 1142h399v325h317v-325h386v-317h-386v-335l-317 -2v337h-397zM102 323h1099v-317h-1097z" />
<glyph unicode="&#xb2;" horiz-adv-x="807" d="M59 864v199l313 319q71 75 71 114q0 30 -20.5 47.5t-52.5 17.5q-81 0 -242 -108l-62 248q40 37 129.5 76.5t196.5 39.5q138 0 231 -81t93 -213q0 -49 -15.5 -94t-49 -87.5t-47.5 -57t-48 -46.5l-147 -137l91 15h248v-252h-689z" />
<glyph unicode="&#xb3;" horiz-adv-x="821" d="M51 918l49 255q146 -83 288 -82q45 0 74.5 19.5t29.5 54.5q0 30 -25.5 49t-68.5 19h-166v200h160q36 0 57.5 19.5t21.5 47.5q0 32 -23.5 50.5t-65.5 18.5q-104 0 -262 -91l-49 254q146 85 329 85q137 0 232.5 -79t95.5 -206q1 -109 -80 -186q113 -77 112 -200 q0 -130 -108.5 -217.5t-246.5 -87.5q-209 0 -354 77z" />
<glyph unicode="&#xb4;" horiz-adv-x="732" d="M63 1242l201 421h405l-287 -421h-319z" />
<glyph unicode="&#xb6;" horiz-adv-x="1563" d="M53 1084q0 168 118.5 287.5t286.5 119.5h337v-1704h-318v888h-19q-169 0 -287 119.5t-118 289.5zM976 -213v1704h517v-330h-202v-1374h-315z" />
<glyph unicode="&#xb7;" horiz-adv-x="606" d="M75 741.5q0 91.5 67 158.5t160.5 67t161.5 -67t68 -158.5t-68 -158.5t-161 -67q-92 0 -160 67t-68 158.5z" />
<glyph unicode="&#xb8;" horiz-adv-x="608" d="M63 -422l179 422h299l-106 -422h-372z" />
<glyph unicode="&#xb9;" horiz-adv-x="602" d="M51 1404v281l226 108h209v-929h-271v620z" />
<glyph unicode="&#xba;" horiz-adv-x="849" d="M59 1154.5q0 150.5 105.5 254t261.5 103.5q153 0 258.5 -103.5t105.5 -254t-105.5 -255t-258.5 -104.5q-156 0 -261.5 104.5t-105.5 255zM290 1154q0 -57 39 -98.5t97 -41.5t96.5 41.5t38.5 98.5q0 60 -38.5 100.5t-96.5 40.5q-59 0 -97.5 -40.5t-38.5 -100.5z" />
<glyph unicode="&#xbb;" horiz-adv-x="1360" d="M75 104l242 439l-242 437h376l237 -437l-237 -439h-376zM665 104l242 439l-242 437h376l235 -437l-235 -439h-376z" />
<glyph unicode="&#xbc;" horiz-adv-x="1982" d="M63 1101v279l227 111h206v-928h-268v619zM270 0l944 1491h330l-943 -1491h-331zM1180 372l175 557h266l-164 -492h120l39 230h213v-230h96v-234h-96v-203h-268v203h-356z" />
<glyph unicode="&#xbd;" horiz-adv-x="1973" d="M59 1101v279l226 111h207v-928h-268v619zM260 0l943 1491h331l-944 -1491h-330zM1225 0v198l313 320q69 77 68 112q0 30 -20.5 48.5t-49.5 18.5q-85 0 -243 -109l-64 249q26 21 64 43.5t113.5 47t148.5 24.5q138 0 230.5 -81t92.5 -213q0 -49 -14.5 -93.5t-49 -87 t-48 -57.5t-47.5 -48l-148 -136l92 16h247v-252h-685z" />
<glyph unicode="&#xbe;" horiz-adv-x="2148" d="M69 614l49 258q146 -84 287 -84q44 0 72.5 20.5t28.5 52t-24 51t-67 19.5h-165v199h159q36 0 57.5 18.5t21.5 48.5t-24.5 50.5t-65.5 20.5q-108 0 -262 -93l-49 252q21 12 57.5 30.5t115.5 37.5t157 19q138 0 233.5 -78.5t95.5 -208.5q0 -106 -81 -183q110 -75 110 -203 q0 -130 -106 -216t-247 -86q-195 0 -353 75zM469 0l943 1491h330l-941 -1491h-332zM1346 372l174 557h267l-164 -492h119l43 230h211v-230h95v-234h-95v-203h-269v203h-353z" />
<glyph unicode="&#xbf;" horiz-adv-x="1104" d="M51 -75q0 96 41.5 176t99.5 134.5t116 103.5t99.5 106t41.5 124l374 2q0 -120 -38.5 -212.5t-94.5 -145.5t-110 -92.5t-92.5 -78t-38.5 -78.5q0 -45 33.5 -69.5t86.5 -24.5q83 0 208.5 57.5t200.5 108.5l79 -362q-250 -160 -514 -160q-209 0 -350.5 114t-141.5 297z M396 907q0 92 68 159.5t162 67.5t161 -67.5t67 -159.5q0 -94 -67 -160t-161 -66t-162 67t-68 159z" />
<glyph unicode="&#xc0;" horiz-adv-x="1522" d="M6 0l531 1496h449l528 -1496h-408l-73 222h-543l-73 -222h-411zM319 2087h405l201 -421h-318zM592 535h335l-118 359l-49 203l-49 -203z" />
<glyph unicode="&#xc1;" horiz-adv-x="1522" d="M6 0l531 1496h449l528 -1496h-408l-73 222h-543l-73 -222h-411zM586 1668l200 421h405l-286 -421h-319zM592 535h335l-118 359l-49 203l-49 -203z" />
<glyph unicode="&#xc2;" horiz-adv-x="1522" d="M6 0l531 1496h449l528 -1496h-408l-73 222h-543l-73 -222h-411zM319 1668l239 421h401l238 -421h-305l-134 194l-134 -194h-305zM592 535h335l-118 359l-49 203l-49 -203z" />
<glyph unicode="&#xc3;" horiz-adv-x="1522" d="M6 0l531 1496h449l528 -1496h-408l-73 222h-543l-73 -222h-411zM319 1687q0 153 83.5 252t221.5 99q73 0 159 -42.5t113 -42.5q35 0 56 21.5t21 55.5h250q0 -153 -82 -252t-221 -99q-72 0 -158 42.5t-114 42.5q-34 0 -55.5 -21.5t-21.5 -55.5h-252zM592 535h335l-118 359 l-49 203l-49 -203z" />
<glyph unicode="&#xc4;" horiz-adv-x="1522" d="M6 0l531 1496h449l528 -1496h-408l-73 222h-543l-73 -222h-411zM296 1861.5q0 85.5 61.5 144t149 58.5t147 -58.5t59.5 -144t-59.5 -144t-147 -58.5t-149 58.5t-61.5 144zM592 535h335l-118 359l-49 203l-49 -203zM803 1861.5q0 85.5 61 144t148 58.5t148 -58.5t61 -144 t-61 -144t-148 -58.5t-148 58.5t-61 144z" />
<glyph unicode="&#xc5;" horiz-adv-x="1522" d="M6 0l531 1496h449l528 -1496h-408l-73 222h-543l-73 -222h-411zM435 1921q0 134 94.5 226.5t228.5 92.5t229 -92.5t95 -226.5q0 -132 -95 -224.5t-229 -92.5t-228.5 92.5t-94.5 224.5zM592 535h335l-118 359l-49 203l-49 -203zM660 1921q0 -43 28 -71.5t70 -28.5 q41 0 69.5 28.5t28.5 71.5t-27.5 72t-70 29t-70.5 -29t-28 -72z" />
<glyph unicode="&#xc6;" horiz-adv-x="2144" d="M-26 0l818 1491h1267v-355h-655v-231h557v-313h-557v-236h655v-356h-1039v222h-479l-119 -222h-448zM709 535h311v591l-53 -112z" />
<glyph unicode="&#xc7;" horiz-adv-x="1341" d="M63 744q0 329 220.5 555t566.5 226q260 0 439 -104l-66 -403q-168 126 -363 126q-177 0 -289.5 -118.5t-112.5 -281.5t112.5 -282t289.5 -119q195 0 363 126l66 -403q-120 -75 -307 -96l-98 -392h-370l167 398q-279 53 -448.5 266.5t-169.5 501.5z" />
<glyph unicode="&#xc8;" horiz-adv-x="1362" d="M134 0v1491h1146v-355h-754v-231h656v-313h-656v-236h754v-356h-1146zM281 2087h404l201 -421h-317z" />
<glyph unicode="&#xc9;" horiz-adv-x="1362" d="M134 0v1491h1146v-355h-754v-231h656v-313h-656v-236h754v-356h-1146zM547 1668l201 421h404l-285 -421h-320z" />
<glyph unicode="&#xca;" horiz-adv-x="1362" d="M134 0v1491h1146v-355h-754v-231h656v-313h-656v-236h754v-356h-1146zM279 1668l241 421h398l241 -421h-307l-132 194l-134 -194h-307z" />
<glyph unicode="&#xcb;" horiz-adv-x="1362" d="M134 0v1491h1146v-355h-754v-231h656v-313h-656v-236h754v-356h-1146zM258 1861.5q0 85.5 62 144t149 58.5t146.5 -58.5t59.5 -144t-59.5 -144t-146.5 -58.5t-149 58.5t-62 144zM764 1861.5q0 85.5 61 144t148.5 58.5t148 -58.5t60.5 -144t-60.5 -144t-148 -58.5 t-148.5 58.5t-61 144z" />
<glyph unicode="&#xcc;" horiz-adv-x="659" d="M-106 2087h402l200 -421h-317zM134 0v1491h392v-1491h-392z" />
<glyph unicode="&#xcd;" horiz-adv-x="659" d="M134 0v1491h392v-1491h-392zM160 1668l200 421h402l-285 -421h-317z" />
<glyph unicode="&#xce;" horiz-adv-x="659" d="M-108 1668l240 421h398l241 -421h-307l-134 194l-132 -194h-306zM134 0v1491h392v-1491h-392z" />
<glyph unicode="&#xcf;" horiz-adv-x="659" d="M-132 1861.5q0 85.5 62 144t149 58.5t146.5 -58.5t59.5 -144t-59.5 -144t-146.5 -58.5t-149 58.5t-62 144zM134 0v1491h392v-1491h-392zM374 1861.5q0 85.5 61 144t148.5 58.5t148 -58.5t60.5 -144t-60.5 -144t-148 -58.5t-148.5 58.5t-61 144z" />
<glyph unicode="&#xd0;" horiz-adv-x="1537" d="M51 601v281h89v609h569q330 0 547.5 -210t217.5 -537q0 -326 -217.5 -535t-547.5 -209h-569v601h-89zM532 376h177q160 0 266.5 105t106.5 263q0 160 -106.5 265t-264.5 105h-179v-232h299v-281h-299v-225z" />
<glyph unicode="&#xd1;" horiz-adv-x="1628" d="M134 0v1491h350l630 -845l-11 177v668h393v-1491h-350l-630 843l10 -168v-675h-392zM382 1687q0 153 81.5 252t221.5 99q71 0 158.5 -42.5t115.5 -42.5q34 0 54 21.5t20 55.5h251q0 -153 -82 -252t-222 -99q-71 0 -158 42.5t-115 42.5q-34 0 -54.5 -21.5t-20.5 -55.5 h-250z" />
<glyph unicode="&#xd2;" horiz-adv-x="1675" d="M61 743q0 330 223.5 557t554.5 227q330 0 553.5 -227t223.5 -557t-223.5 -557t-553.5 -227q-331 0 -554.5 227t-223.5 557zM400 2087h405l201 -421h-318zM456 743q0 -166 110.5 -285t273 -119t273 119t110.5 285t-110.5 285.5t-273 119.5t-273 -119.5t-110.5 -285.5z" />
<glyph unicode="&#xd3;" horiz-adv-x="1675" d="M61 743q0 330 223.5 557t554.5 227q330 0 553.5 -227t223.5 -557t-223.5 -557t-553.5 -227q-331 0 -554.5 227t-223.5 557zM456 743q0 -166 110.5 -285t273 -119t273 119t110.5 285t-110.5 285.5t-273 119.5t-273 -119.5t-110.5 -285.5zM667 1668l200 421h405l-286 -421 h-319z" />
<glyph unicode="&#xd4;" horiz-adv-x="1675" d="M61 743q0 330 223.5 557t554.5 227q330 0 553.5 -227t223.5 -557t-223.5 -557t-553.5 -227q-331 0 -554.5 227t-223.5 557zM398 1668l241 421h398l241 -421h-307l-132 194l-134 -194h-307zM456 743q0 -166 110.5 -285t273 -119t273 119t110.5 285t-110.5 285.5 t-273 119.5t-273 -119.5t-110.5 -285.5z" />
<glyph unicode="&#xd5;" horiz-adv-x="1675" d="M61 743q0 330 223.5 557t554.5 227q330 0 553.5 -227t223.5 -557t-223.5 -557t-553.5 -227q-331 0 -554.5 227t-223.5 557zM402 1687q0 153 82.5 252t220.5 99q73 0 159 -42.5t114 -42.5q34 0 55.5 21.5t21.5 55.5h248q0 -153 -81.5 -252t-219.5 -99q-73 0 -159.5 42.5 t-114.5 42.5q-34 0 -55 -21.5t-21 -55.5h-250zM456 743q0 -166 110.5 -285t273 -119t273 119t110.5 285t-110.5 285.5t-273 119.5t-273 -119.5t-110.5 -285.5z" />
<glyph unicode="&#xd6;" horiz-adv-x="1675" d="M61 743q0 330 223.5 557t554.5 227q330 0 553.5 -227t223.5 -557t-223.5 -557t-553.5 -227q-331 0 -554.5 227t-223.5 557zM376 1861.5q0 85.5 62 144t149.5 58.5t147.5 -58.5t60 -144t-60 -144t-147.5 -58.5t-149.5 58.5t-62 144zM456 743q0 -166 110.5 -285t273 -119 t273 119t110.5 285t-110.5 285.5t-273 119.5t-273 -119.5t-110.5 -285.5zM884 1861.5q0 85.5 61 144t148 58.5t147.5 -58.5t60.5 -144t-60.5 -144t-147.5 -58.5t-148 58.5t-61 144z" />
<glyph unicode="&#xd7;" horiz-adv-x="1290" d="M140 321l282 284l-273 271l225 225l272 -272l272 272l224 -225l-273 -271l281 -284l-223 -223l-281 282l-282 -282z" />
<glyph unicode="&#xd8;" horiz-adv-x="1675" d="M55 -226l222 419q-216 226 -216 551q0 329 222.5 556t555.5 227q130 0 258 -40l108 226h413l-218 -418q217 -224 216 -551q0 -330 -223.5 -557.5t-553.5 -227.5q-136 0 -260 43l-110 -228h-414zM456 743q0 -166 110.5 -285t273 -119t273 119t110.5 285t-110.5 285.5 t-273 119.5t-273 -119.5t-110.5 -285.5z" />
<glyph unicode="&#xd9;" horiz-adv-x="1539" d="M120 618v873h389v-873q0 -114 74.5 -191.5t185.5 -77.5t185.5 77.5t74.5 191.5v873h392v-873q0 -290 -180 -469t-472 -179q-291 0 -470 179t-179 469zM332 2087h403l200 -421h-317z" />
<glyph unicode="&#xda;" horiz-adv-x="1539" d="M120 618v873h389v-873q0 -114 74.5 -191.5t185.5 -77.5t185.5 77.5t74.5 191.5v873h392v-873q0 -290 -180 -469t-472 -179q-291 0 -470 179t-179 469zM598 1668l201 421h402l-285 -421h-318z" />
<glyph unicode="&#xdb;" horiz-adv-x="1539" d="M120 618v873h389v-873q0 -114 74.5 -191.5t185.5 -77.5t185.5 77.5t74.5 191.5v873h392v-873q0 -290 -180 -469t-472 -179q-291 0 -470 179t-179 469zM330 1668l241 421h398l241 -421h-307l-134 194l-133 -194h-306z" />
<glyph unicode="&#xdc;" horiz-adv-x="1539" d="M120 618v873h389v-873q0 -114 74.5 -191.5t185.5 -77.5t185.5 77.5t74.5 191.5v873h392v-873q0 -290 -180 -469t-472 -179q-291 0 -470 179t-179 469zM307 1861.5q0 85.5 62 144t149 58.5t146.5 -58.5t59.5 -144t-59.5 -144t-146.5 -58.5t-149 58.5t-62 144zM813 1861.5 q0 85.5 61 144t148.5 58.5t148 -58.5t60.5 -144t-60.5 -144t-148 -58.5t-148.5 58.5t-61 144z" />
<glyph unicode="&#xdd;" horiz-adv-x="1431" d="M-6 1491h432l249 -539l41 -117l40 117l250 539h431l-519 -1044v-447h-404v447zM545 1668l201 421h402l-286 -421h-317z" />
<glyph unicode="&#xde;" horiz-adv-x="1439" d="M134 0v1491h392v-194h277q260 0 421.5 -150.5t161.5 -401.5t-162.5 -401.5t-422.5 -150.5h-275v-193h-392zM526 549h277q79 0 137.5 58t58.5 139t-58.5 138t-137.5 57h-277v-392z" />
<glyph unicode="&#xdf;" horiz-adv-x="1352" d="M110 0v999q0 237 150.5 385t385.5 148q217 0 362.5 -127t145.5 -319q0 -162 -117 -273q124 -53 192 -150.5t68 -227.5q0 -205 -144.5 -335t-364.5 -130q-128 0 -230 40l45 303q59 -36 141 -36q70 0 122 48.5t52 117.5t-52.5 117.5t-121.5 48.5h-154v279h56q68 0 111.5 45 t43.5 104q0 57 -44 99t-111 42q-71 0 -115.5 -51.5t-44.5 -127.5v-999h-376z" />
<glyph unicode="&#xe0;" d="M61 535q0 231 138 395.5t352 164.5q100 0 188 -43.5t137 -114.5l4 128h332v-1065h-332l-4 128q-49 -71 -137.5 -115.5t-187.5 -44.5q-217 0 -353.5 166.5t-136.5 400.5zM232 1661h404l201 -421h-319zM435 534.5q0 -89.5 60.5 -155.5t147.5 -66q123 0 200 104v233 q-74 100 -200 100q-88 0 -148 -63t-60 -152.5z" />
<glyph unicode="&#xe1;" d="M61 535q0 231 138 395.5t352 164.5q100 0 188 -43.5t137 -114.5l4 128h332v-1065h-332l-4 128q-49 -71 -137.5 -115.5t-187.5 -44.5q-217 0 -353.5 166.5t-136.5 400.5zM435 534.5q0 -89.5 60.5 -155.5t147.5 -66q123 0 200 104v233q-74 100 -200 100q-88 0 -148 -63 t-60 -152.5zM498 1242l201 421h404l-288 -421h-317z" />
<glyph unicode="&#xe2;" d="M61 535q0 231 138 395.5t352 164.5q100 0 188 -43.5t137 -114.5l4 128h332v-1065h-332l-4 128q-49 -71 -137.5 -115.5t-187.5 -44.5q-217 0 -353.5 166.5t-136.5 400.5zM230 1242l241 421h398l241 -421h-307l-132 193l-134 -193h-307zM435 534.5q0 -89.5 60.5 -155.5 t147.5 -66q123 0 200 104v233q-74 100 -200 100q-88 0 -148 -63t-60 -152.5z" />
<glyph unicode="&#xe3;" d="M61 535q0 231 138 395.5t352 164.5q100 0 188 -43.5t137 -114.5l4 128h332v-1065h-332l-4 128q-49 -71 -137.5 -115.5t-187.5 -44.5q-217 0 -353.5 166.5t-136.5 400.5zM232 1260q0 153 82 252.5t223 99.5q70 0 157.5 -42.5t114.5 -42.5q34 0 54.5 21t20.5 56h252 q0 -153 -82.5 -252.5t-222.5 -99.5q-71 0 -158 42.5t-115 42.5q-34 0 -54 -21t-20 -56h-252zM435 534.5q0 -89.5 60.5 -155.5t147.5 -66q123 0 200 104v233q-74 100 -200 100q-88 0 -148 -63t-60 -152.5z" />
<glyph unicode="&#xe4;" d="M61 535q0 231 138 395.5t352 164.5q100 0 188 -43.5t137 -114.5l4 128h332v-1065h-332l-4 128q-49 -71 -137.5 -115.5t-187.5 -44.5q-217 0 -353.5 166.5t-136.5 400.5zM209 1435q0 85 60.5 144t147.5 59t148 -59t61 -144t-61 -143.5t-148 -58.5t-147.5 58.5t-60.5 143.5 zM435 534.5q0 -89.5 60.5 -155.5t147.5 -66q123 0 200 104v233q-74 100 -200 100q-88 0 -148 -63t-60 -152.5zM716 1435q0 85 60.5 144t148 59t148.5 -59t61 -144t-61 -143.5t-148.5 -58.5t-148 58.5t-60.5 143.5z" />
<glyph unicode="&#xe5;" d="M61 535q0 231 138 395.5t352 164.5q100 0 188 -43.5t137 -114.5l4 128h332v-1065h-332l-4 128q-49 -71 -137.5 -115.5t-187.5 -44.5q-217 0 -353.5 166.5t-136.5 400.5zM347 1496q0 134 95 226.5t229 92.5t228.5 -92.5t94.5 -226.5q0 -133 -94.5 -225.5t-228.5 -92.5 t-229 92.5t-95 225.5zM435 534.5q0 -89.5 60.5 -155.5t147.5 -66q123 0 200 104v233q-74 100 -200 100q-88 0 -148 -63t-60 -152.5zM573 1495.5q0 -42.5 27.5 -71.5t70.5 -29q40 0 67.5 29t27.5 71.5t-27.5 71t-67.5 28.5q-43 0 -70.5 -28.5t-27.5 -71z" />
<glyph unicode="&#xe6;" horiz-adv-x="1863" d="M55 321q0 158 120.5 240t322.5 82h235v17q0 66 -46 106.5t-120 42.5q-175 -2 -382 -100l-72 295q239 97 468 97q211 0 354 -130q136 132 343 132q236 0 385.5 -157.5t149.5 -382.5q0 -88 -15 -144h-718q2 -73 66 -119t157 -46q162 0 318 93l45 -304q-175 -84 -369 -84 q-290 0 -437 188q-59 -79 -159 -132t-215 -53q-183 -3 -307 98.5t-124 260.5zM413 352q0 -39 33 -64.5t84 -25.5q139 0 224 81q-12 57 -17 98h-205q-53 0 -86 -24.5t-33 -64.5zM1071 628h388q-2 79 -56.5 132t-135 53t-137.5 -53t-59 -132z" />
<glyph unicode="&#xe7;" horiz-adv-x="1036" d="M59 530q0 250 167.5 414t421.5 164q183 0 332 -79l-64 -356q-113 77 -256 77q-97 0 -164.5 -65t-67.5 -154.5t67.5 -154.5t164.5 -65q137 0 260 81l60 -356q-104 -53 -209 -74l-96 -384h-370l168 396q-185 51 -299.5 201.5t-114.5 354.5z" />
<glyph unicode="&#xe8;" horiz-adv-x="1260" d="M59 528q0 254 165.5 417t418.5 163q249 0 406.5 -152.5t157.5 -361.5q0 -102 -20 -179h-756q18 -81 86.5 -124t170.5 -43q175 0 347 99l45 -313q-175 -85 -387 -85q-297 0 -465.5 164t-168.5 415zM198 1661h403l200 -421h-317zM426 630h428q-13 88 -68.5 136.5 t-142.5 48.5t-144.5 -49.5t-72.5 -135.5z" />
<glyph unicode="&#xe9;" horiz-adv-x="1260" d="M59 528q0 254 165.5 417t418.5 163q249 0 406.5 -152.5t157.5 -361.5q0 -102 -20 -179h-756q18 -81 86.5 -124t170.5 -43q175 0 347 99l45 -313q-175 -85 -387 -85q-297 0 -465.5 164t-168.5 415zM426 630h428q-13 88 -68.5 136.5t-142.5 48.5t-144.5 -49.5t-72.5 -135.5 zM464 1242l201 421h402l-285 -421h-318z" />
<glyph unicode="&#xea;" horiz-adv-x="1260" d="M59 528q0 254 165.5 417t418.5 163q249 0 406.5 -152.5t157.5 -361.5q0 -102 -20 -179h-756q18 -81 86.5 -124t170.5 -43q175 0 347 99l45 -313q-175 -85 -387 -85q-297 0 -465.5 164t-168.5 415zM196 1242l241 421h398l240 -421h-306l-135 193l-132 -193h-306zM426 630 h428q-13 88 -68.5 136.5t-142.5 48.5t-144.5 -49.5t-72.5 -135.5z" />
<glyph unicode="&#xeb;" horiz-adv-x="1260" d="M59 528q0 254 165.5 417t418.5 163q249 0 406.5 -152.5t157.5 -361.5q0 -102 -20 -179h-756q18 -81 86.5 -124t170.5 -43q175 0 347 99l45 -313q-175 -85 -387 -85q-297 0 -465.5 164t-168.5 415zM173 1435q0 85 61.5 144t149 59t147 -59t59.5 -144t-59.5 -143.5 t-147 -58.5t-149 58.5t-61.5 143.5zM426 630h428q-13 88 -68.5 136.5t-142.5 48.5t-144.5 -49.5t-72.5 -135.5zM679 1435q0 85 61 144t148.5 59t148 -59t60.5 -144t-60.5 -143.5t-148 -58.5t-148.5 58.5t-61 143.5z" />
<glyph unicode="&#xec;" horiz-adv-x="595" d="M-140 1661h404l200 -421h-317zM108 0v1065h380v-1065h-380z" />
<glyph unicode="&#xed;" horiz-adv-x="595" d="M110 0v1065h378v-1065h-378zM128 1242l200 421h405l-288 -421h-317z" />
<glyph unicode="&#xee;" horiz-adv-x="595" d="M-140 1242l238 421h400l239 -421h-304l-135 193l-134 -193h-304zM108 0v1065h380v-1065h-380z" />
<glyph unicode="&#xef;" horiz-adv-x="595" d="M-164 1435q0 85 61.5 144t149 59t147.5 -59t60 -144t-60 -143.5t-147.5 -58.5t-149 58.5t-61.5 143.5zM108 0v1065h380v-1065h-380zM343 1435q0 85 60.5 144t148 59t148 -59t60.5 -144t-60.5 -143.5t-148 -58.5t-148 58.5t-60.5 143.5z" />
<glyph unicode="&#xf0;" horiz-adv-x="1298" d="M59 522q0 226 146.5 370.5t355.5 144.5q200 0 327 -121q-59 173 -187 300l-286 -147l-119 232l177 92q-34 20 -164 94l179 247q158 -77 290 -185l242 125l118 -229l-167 -86q256 -313 256 -713q0 -313 -165.5 -495.5t-422.5 -182.5q-232 0 -406 163t-174 391zM424 522 q0 -89 62.5 -151t152 -62t153.5 62t64 151q0 87 -64 147.5t-153.5 60.5t-152 -60.5t-62.5 -147.5z" />
<glyph unicode="&#xf1;" horiz-adv-x="1326" d="M110 0v1065h357l6 -147q127 177 347 177q176 0 291.5 -123.5t115.5 -304.5v-667h-377v573q0 79 -44 126t-118 47q-55 0 -111.5 -37.5t-86.5 -94.5l-2 -614h-378zM236 1260q0 153 82 252.5t221 99.5q73 0 159 -42.5t113 -42.5q35 0 56 21t21 56h250q0 -153 -82.5 -252.5 t-220.5 -99.5q-73 0 -158.5 42.5t-113.5 42.5q-35 0 -56 -21t-21 -56h-250z" />
<glyph unicode="&#xf2;" horiz-adv-x="1283" d="M57 530q0 243 169.5 409.5t416.5 166.5t415.5 -166.5t168.5 -409.5q0 -240 -169.5 -407.5t-414.5 -167.5q-248 0 -417 167.5t-169 407.5zM205 1661h404l200 -421h-319zM426 532.5q0 -93.5 61.5 -160.5t155.5 -67q91 0 153 67t62 160.5t-62 158.5t-153 65 q-94 0 -155.5 -65t-61.5 -158.5z" />
<glyph unicode="&#xf3;" horiz-adv-x="1283" d="M57 530q0 243 169.5 409.5t416.5 166.5t415.5 -166.5t168.5 -409.5q0 -240 -169.5 -407.5t-414.5 -167.5q-248 0 -417 167.5t-169 407.5zM426 532.5q0 -93.5 61.5 -160.5t155.5 -67q91 0 153 67t62 160.5t-62 158.5t-153 65q-94 0 -155.5 -65t-61.5 -158.5zM471 1242 l200 421h404l-287 -421h-317z" />
<glyph unicode="&#xf4;" horiz-adv-x="1283" d="M57 530q0 243 169.5 409.5t416.5 166.5t415.5 -166.5t168.5 -409.5q0 -240 -169.5 -407.5t-414.5 -167.5q-248 0 -417 167.5t-169 407.5zM203 1242l240 421h398l241 -421h-307l-132 193l-134 -193h-306zM426 532.5q0 -93.5 61.5 -160.5t155.5 -67q91 0 153 67t62 160.5 t-62 158.5t-153 65q-94 0 -155.5 -65t-61.5 -158.5z" />
<glyph unicode="&#xf5;" horiz-adv-x="1283" d="M57 530q0 243 169.5 409.5t416.5 166.5t415.5 -166.5t168.5 -409.5q0 -240 -169.5 -407.5t-414.5 -167.5q-248 0 -417 167.5t-169 407.5zM205 1260q0 153 81.5 252.5t222.5 99.5q70 0 157.5 -42.5t115.5 -42.5q34 0 54 21t20 56h252q0 -153 -82.5 -252.5t-222.5 -99.5 q-71 0 -158 42.5t-115 42.5q-34 0 -54 -21t-20 -56h-251zM426 532.5q0 -93.5 61.5 -160.5t155.5 -67q91 0 153 67t62 160.5t-62 158.5t-153 65q-94 0 -155.5 -65t-61.5 -158.5z" />
<glyph unicode="&#xf6;" horiz-adv-x="1283" d="M57 530q0 243 169.5 409.5t416.5 166.5t415.5 -166.5t168.5 -409.5q0 -240 -169.5 -407.5t-414.5 -167.5q-248 0 -417 167.5t-169 407.5zM181 1435q0 85 61 144t148 59t147.5 -59t60.5 -144t-60.5 -143.5t-147.5 -58.5t-148 58.5t-61 143.5zM426 532.5 q0 -93.5 61.5 -160.5t155.5 -67q91 0 153 67t62 160.5t-62 158.5t-153 65q-94 0 -155.5 -65t-61.5 -158.5zM688 1435q0 85 60.5 144t148 59t148.5 -59t61 -144t-61 -143.5t-148.5 -58.5t-148 58.5t-60.5 143.5z" />
<glyph unicode="&#xf7;" horiz-adv-x="1290" d="M96 788h1099v-317h-1097zM424 168q0 88 66 153t156 65q91 0 156 -65t65 -153q0 -89 -65 -154t-156 -65q-90 0 -156 65t-66 154zM424 1095q0 87 66 152t156 65q91 0 156 -65t65 -152q0 -89 -65 -153t-156 -64q-90 0 -156 64t-66 153z" />
<glyph unicode="&#xf8;" horiz-adv-x="1283" d="M-8 -215l211 362q-145 162 -146 383q0 243 169.5 409.5t416.5 166.5q93 0 177 -26l96 183h379l-206 -356q138 -160 138 -377q0 -240 -169.5 -407.5t-414.5 -167.5q-88 0 -170 24l-103 -194h-378zM426 532.5q0 -93.5 61.5 -160.5t155.5 -67q91 0 153 67t62 160.5 t-61.5 158.5t-153.5 65q-94 0 -155.5 -65t-61.5 -158.5z" />
<glyph unicode="&#xf9;" horiz-adv-x="1326" d="M100 398v667h377v-573q0 -79 44 -126t118 -47q55 0 111.5 36.5t86.5 93.5l2 616h377v-1065h-356l-6 145q-130 -175 -348 -175q-176 0 -291 123.5t-115 304.5zM226 1661h402l201 -421h-317z" />
<glyph unicode="&#xfa;" horiz-adv-x="1326" d="M100 398v667h377v-573q0 -79 44 -126t118 -47q55 0 111.5 36.5t86.5 93.5l2 616h377v-1065h-356l-6 145q-130 -175 -348 -175q-176 0 -291 123.5t-115 304.5zM490 1242l203 421h402l-286 -421h-319z" />
<glyph unicode="&#xfb;" horiz-adv-x="1326" d="M100 398v667h377v-573q0 -79 44 -126t118 -47q55 0 111.5 36.5t86.5 93.5l2 616h377v-1065h-356l-6 145q-130 -175 -348 -175q-176 0 -291 123.5t-115 304.5zM224 1242l238 421h400l239 -421h-304l-135 193l-134 -193h-304z" />
<glyph unicode="&#xfc;" horiz-adv-x="1326" d="M100 398v667h377v-573q0 -79 44 -126t118 -47q55 0 111.5 36.5t86.5 93.5l2 616h377v-1065h-356l-6 145q-130 -175 -348 -175q-176 0 -291 123.5t-115 304.5zM201 1435q0 85 61 144t148.5 59t147.5 -59t60 -144t-60 -143.5t-147.5 -58.5t-148.5 58.5t-61 143.5zM707 1435 q0 85 61 144t148.5 59t147.5 -59t60 -144t-60 -143.5t-147.5 -58.5t-148.5 58.5t-61 143.5z" />
<glyph unicode="&#xfd;" horiz-adv-x="1232" d="M21 1065h416l149 -520l34 -151l36 151l151 520h416l-582 -1512h-405l186 437zM449 1242l201 421h405l-289 -421h-317z" />
<glyph unicode="&#xfe;" horiz-adv-x="1319" d="M110 -426v1917h374v-428l-11 -90q117 122 298 122q215 0 352 -164.5t137 -395.5q0 -234 -136 -400.5t-353 -166.5q-179 0 -292 119l9 -81v-432h-378zM479 417q72 -104 200 -104q87 0 147 65t60 157q0 89 -60 152t-147 63q-132 0 -200 -100v-233z" />
<glyph unicode="&#xff;" horiz-adv-x="1232" d="M21 1065h416l149 -520l34 -151l36 151l151 520h416l-582 -1512h-405l186 437zM160 1435q0 85 60.5 144t148 59t148 -59t60.5 -144t-60.5 -143.5t-148 -58.5t-148 58.5t-60.5 143.5zM665 1435q0 85 60.5 144t148 59t148 -59t60.5 -144t-60.5 -143.5t-148 -58.5t-148 58.5 t-60.5 143.5z" />
<glyph unicode="&#x152;" horiz-adv-x="2382" d="M63 743q0 330 221 556t551 226q258 0 421 -149v115h1044v-355h-715v-231h618v-313h-618v-236h715v-356h-1044v115q-164 -152 -421 -153q-330 0 -551 225.5t-221 555.5zM458 743q0 -166 107.5 -284t269 -118t272.5 118t111 284t-111 284.5t-272.5 118.5t-269 -118.5 t-107.5 -284.5z" />
<glyph unicode="&#x153;" horiz-adv-x="2065" d="M57 530q0 243 169.5 409.5t416.5 166.5q232 0 398 -149q162 151 408 151q249 0 406 -152.5t157 -361.5q0 -102 -20 -179h-756q20 -81 88.5 -124t171.5 -43q170 0 347 99l41 -313q-174 -85 -386 -85q-285 0 -457 157q-168 -151 -398 -151q-248 0 -417 167.5t-169 407.5z M426 532.5q0 -93.5 61.5 -160.5t155.5 -67q91 0 153 67t62 160.5t-61.5 158.5t-153.5 65q-94 0 -155.5 -65t-61.5 -158.5zM1233 630h428q-13 88 -68 136.5t-144 48.5q-86 0 -143.5 -49.5t-72.5 -135.5z" />
<glyph unicode="&#x178;" horiz-adv-x="1431" d="M-6 1491h432l249 -539l41 -117l40 117l250 539h431l-519 -1044v-447h-404v447zM254 1861.5q0 85.5 61 144t148.5 58.5t147.5 -58.5t60 -144t-60 -144t-147.5 -58.5t-148.5 58.5t-61 144zM760 1861.5q0 85.5 61 144t148.5 58.5t148 -58.5t60.5 -144t-60.5 -144t-148 -58.5 t-148.5 58.5t-61 144z" />
<glyph unicode="&#x2c6;" horiz-adv-x="1006" d="M63 1242l242 421h398l240 -421h-307l-134 193l-132 -193h-307z" />
<glyph unicode="&#x2dc;" horiz-adv-x="1038" d="M69 1260q0 153 81.5 252.5t219.5 99.5q73 0 159.5 -42.5t113.5 -42.5q34 0 55.5 21t21.5 56h251q0 -153 -82 -252.5t-222 -99.5q-73 0 -159 42.5t-114 42.5q-34 0 -55.5 -21t-21.5 -56h-248z" />
<glyph unicode="&#x2000;" horiz-adv-x="1120" />
<glyph unicode="&#x2001;" horiz-adv-x="2240" />
<glyph unicode="&#x2002;" horiz-adv-x="1120" />
<glyph unicode="&#x2003;" horiz-adv-x="2240" />
<glyph unicode="&#x2004;" horiz-adv-x="746" />
<glyph unicode="&#x2005;" horiz-adv-x="560" />
<glyph unicode="&#x2006;" horiz-adv-x="373" />
<glyph unicode="&#x2007;" horiz-adv-x="373" />
<glyph unicode="&#x2008;" horiz-adv-x="280" />
<glyph unicode="&#x2009;" horiz-adv-x="448" />
<glyph unicode="&#x200a;" horiz-adv-x="124" />
<glyph unicode="&#x2010;" horiz-adv-x="1051" d="M110 445v343h831v-343h-831z" />
<glyph unicode="&#x2011;" horiz-adv-x="1051" d="M110 445v343h831v-343h-831z" />
<glyph unicode="&#x2012;" horiz-adv-x="1051" d="M110 445v343h831v-343h-831z" />
<glyph unicode="&#x2013;" horiz-adv-x="1298" d="M110 445v343h1079v-343h-1079z" />
<glyph unicode="&#x2014;" horiz-adv-x="1778" d="M110 445v343h1558v-343h-1558z" />
<glyph unicode="&#x2018;" horiz-adv-x="583" d="M49 1315q0 57 45 159l146 353h288l-140 -311q124 -65 124 -201q0 -94 -69 -160t-164.5 -66t-162.5 66t-67 160z" />
<glyph unicode="&#x2019;" horiz-adv-x="608" d="M79 903l140 309q-123 65 -123 202q0 96 68 161t164 65t163 -65t67 -161q0 -53 -44 -160l-148 -351h-287z" />
<glyph unicode="&#x201a;" horiz-adv-x="602" d="M51 -352l142 311q-123 60 -122 201q0 96 67 161t162.5 65t163.5 -65t68 -161q0 -47 -44 -158l-147 -354h-290z" />
<glyph unicode="&#x201c;" horiz-adv-x="1126" d="M49 1315q0 57 45 159l146 353h288l-140 -311q124 -65 124 -201q0 -94 -69 -160t-164.5 -66t-162.5 66t-67 160zM592 1315q0 57 44 159l148 353h287l-140 -311q124 -65 124 -201q0 -94 -68.5 -160t-163.5 -66q-94 0 -162.5 66t-68.5 160z" />
<glyph unicode="&#x201d;" horiz-adv-x="1151" d="M79 903l140 309q-123 65 -123 202q0 96 68 161t164 65t163 -65t67 -161q0 -53 -44 -160l-148 -351h-287zM620 903l142 309q-123 65 -123 202q0 96 67 161t163 65t164 -65t68 -161q0 -53 -44 -160l-148 -351h-289z" />
<glyph unicode="&#x201e;" horiz-adv-x="1145" d="M51 -352l142 311q-123 60 -122 201q0 96 67 161t162.5 65t163.5 -65t68 -161q0 -47 -44 -158l-147 -354h-290zM594 -352l143 311q-123 60 -123 201q0 96 67 161t162.5 65t163.5 -65t68 -161q0 -47 -44 -158l-147 -354h-290z" />
<glyph unicode="&#x2022;" horiz-adv-x="1034" d="M122 686q0 164 116 280t279.5 116t280 -116t116.5 -280t-116.5 -280t-280 -116t-279.5 116t-116 280z" />
<glyph unicode="&#x2026;" horiz-adv-x="1788" d="M69 162.5q0 91.5 68 158.5t161.5 67t160.5 -67t67 -158.5t-68 -158.5t-160 -67q-93 0 -161 67t-68 158.5zM662 162.5q0 91.5 67.5 158.5t161 67t161.5 -67t68 -158.5t-68 -158.5t-162 -67q-91 0 -159.5 67t-68.5 158.5zM1263 162.5q0 91.5 67 158.5t161 67t162 -67 t68 -158.5t-68 -158.5t-162 -67q-91 0 -159.5 67t-68.5 158.5z" />
<glyph unicode="&#x202f;" horiz-adv-x="448" />
<glyph unicode="&#x2039;" horiz-adv-x="730" d="M55 543l235 437h377l-241 -437l241 -439h-377z" />
<glyph unicode="&#x203a;" horiz-adv-x="730" d="M63 104l244 439l-244 437h378l236 -437l-236 -439h-378z" />
<glyph unicode="&#x205f;" horiz-adv-x="560" />
<glyph unicode="&#x20ac;" horiz-adv-x="1426" d="M77 516v185h119v43q0 40 2 59h-121v185h153q71 242 266 389.5t467 147.5q213 0 396 -104l-87 -371q-140 109 -309 109q-215 0 -322 -171h432v-185h-492q-4 -39 -4 -59l2 -43h494v-185h-441q101 -188 331 -188q79 0 150.5 24t91.5 38.5t63 46.5l91 -371 q-172 -104 -396 -104q-279 0 -475 152t-262 402h-149z" />
<glyph unicode="&#x2122;" horiz-adv-x="1447" d="M71 1297v194h515v-194h-153v-388h-211v388h-151zM656 909v582h204l130 -237l130 237h205v-582h-201v128l22 190l-57 -107l-52 -108h-94l-51 108l-57 107l23 -190v-128h-202z" />
<glyph unicode="&#x25fc;" horiz-adv-x="1064" d="M0 0v1065h1065v-1065h-1065z" />
<glyph unicode="&#xfb03;" horiz-adv-x="2282" d="M55 750v315h167v94q0 238 127.5 353.5t343.5 115.5q117 0 229 -37l-44 -323q-79 24 -143 23q-59 0 -98 -37.5t-39 -94.5v-94h418v83q0 250 138.5 375t383.5 125q218 0 443 -81l-68 -340q-203 85 -348 85q-81 0 -126.5 -43.5t-45.5 -120.5v-83h780v-1065h-378v750h-402 v-750h-377v750h-418v-750h-376v750h-167z" />
</font>
</defs>
</svg>
