<?xml version="1.0" standalone="no"?>
<!DOCTYPE svg PUBLIC "-//W3C//DTD SVG 1.1//EN" "http://www.w3.org/Graphics/SVG/1.1/DTD/svg11.dtd" >
<svg xmlns="http://www.w3.org/2000/svg" xmlns:xlink="http://www.w3.org/1999/xlink" version="1.1">
<metadata></metadata>
<defs>
<font id="xxiigeom-mediumituploadedfile" horiz-adv-x="1290" >
<font-face units-per-em="2048" ascent="1528" descent="-520" />
<missing-glyph horiz-adv-x="600" />
<glyph unicode="&#xfb01;" horiz-adv-x="1413" d="M96 862l36 203h189l22 126q35 195 157 291.5t297 96.5q223 0 415 -73l-74 -201q-151 59 -337 61q-205 0 -243 -222l-15 -79h735l-124 -697l-14 -89q-11 -64 20 -95t103 -11l13 -169q-203 -53 -292.5 30.5t-65.5 242.5l13 91l87 494h-509l-153 -862h-224l153 862h-189z " />
<glyph unicode="&#xfb02;" horiz-adv-x="1426" d="M94 862l34 203h193l20 110q39 213 179 330.5t364 117.5q219 0 482 -111l-203 -1144l-13 -89q-10 -64 20.5 -95t103.5 -11l12 -169q-202 -53 -291.5 30.5t-65.5 242.5l12 91l179 1010q-130 38 -234 38q-281 0 -333 -286l-10 -65h315l-35 -203h-317l-150 -862h-222l151 862 h-191z" />
<glyph horiz-adv-x="0" />
<glyph unicode="&#xd;" horiz-adv-x="708" />
<glyph unicode=" "  horiz-adv-x="600" />
<glyph unicode="&#x09;" horiz-adv-x="600" />
<glyph unicode="&#xa0;" horiz-adv-x="600" />
<glyph unicode="!" horiz-adv-x="572" d="M45 98q0 60 45.5 106t105.5 46t105.5 -46t45.5 -106t-44.5 -104.5t-106.5 -44.5t-106.5 44.5t-44.5 104.5zM147 390l172 1110h237l-221 -1110h-188z" />
<glyph unicode="&#x22;" horiz-adv-x="847" d="M209 1029l74 511h219l-106 -511h-187zM588 1029l72 511h220l-107 -511h-185z" />
<glyph unicode="#" horiz-adv-x="1543" d="M26 358l82 187h233l153 358h-244l85 188h240l155 358h209l-155 -358h319l155 358h209l-155 -358h239l-86 -188h-234l-154 -358h248l-83 -187h-246l-155 -358h-209l156 358h-319l-156 -358h-209l156 358h-234zM549 545h320l155 358h-319z" />
<glyph unicode="$" horiz-adv-x="1215" d="M-15 89l74 218q196 -106 399 -126l91 514q-79 38 -131 70t-109 83t-86.5 117t-29.5 147q0 185 146.5 292.5t355.5 118.5l31 176h170l-32 -185q207 -26 363 -121l-75 -218q-132 96 -325 124l-81 -456q164 -79 256.5 -171.5t92.5 -249.5q0 -200 -144 -321.5t-361 -138.5 l-37 -210h-169l38 214q-228 20 -437 123zM422 1112q0 -62 42 -106.5t124 -87.5l68 383q-100 -15 -167 -61.5t-67 -127.5zM630 187q102 21 169.5 82.5t67.5 152.5q0 104 -160 194z" />
<glyph unicode="%" horiz-adv-x="2052" d="M153 1055q0 193 123.5 322t315.5 129q168 0 267.5 -114t99.5 -254q0 -194 -127 -324.5t-314 -130.5q-171 0 -268 113t-97 259zM290 0l1248 1491h262l-1251 -1491h-259zM347 1071q0 -77 47 -139.5t134 -62.5q96 0 166 72.5t70 178.5q0 75 -47.5 138t-135.5 63 q-93 0 -163.5 -73t-70.5 -177zM1136 349q0 194 123.5 323t317.5 129q168 0 267 -114t99 -254q0 -194 -127 -324t-316 -130q-171 0 -267.5 114t-96.5 256zM1331 366q0 -77 47 -138.5t134 -61.5q96 0 165 71.5t69 177.5q0 75 -48 138t-135 63q-93 0 -162.5 -72.5t-69.5 -177.5 z" />
<glyph unicode="&#x26;" horiz-adv-x="1451" d="M49 364q0 298 437 482q-98 174 -98 313q0 162 129 273.5t314 111.5q187 0 298 -104.5t111 -250.5q0 -269 -448 -439l222 -335q152 135 262 282l87 -209q-119 -145 -235 -248l156 -238h-262l-65 102q-230 -153 -463 -153q-193 0 -319 116t-126 297zM277 368 q0 -87 62.5 -145.5t156.5 -58.5q160 0 345 121l-249 386q-315 -128 -315 -303zM612 1152q0 -91 79 -234q172 64 248.5 123.5t76.5 136.5q0 73 -52 118.5t-139 45.5q-92 0 -152.5 -53t-60.5 -137z" />
<glyph unicode="'" horiz-adv-x="470" d="M209 1029l74 511h219l-106 -511h-187z" />
<glyph unicode="(" horiz-adv-x="598" d="M66 136q1 828 418 1568h242q-439 -775 -439 -1584q0 -275 48 -546h-222q-46 268 -47 562z" />
<glyph unicode=")" horiz-adv-x="595" d="M-126 -426q441 780 441 1585q0 280 -49 545h222q47 -269 47 -562q0 -835 -417 -1568h-244z" />
<glyph unicode="*" horiz-adv-x="932" d="M198 1250l89 177l219 -96l26 254h192l-64 -254l252 96l29 -179l-264 -66l134 -188l-165 -110l-95 213l-167 -213l-144 110l197 191z" />
<glyph unicode="+" d="M83 518l37 208h438l74 437h216l-77 -437h434l-36 -208h-434l-79 -437h-213l77 437h-437z" />
<glyph unicode="," horiz-adv-x="516" d="M-47 -213q98 87 147 175q-88 40 -88 132q0 63 45 109.5t111 46.5t110.5 -48.5t44.5 -116.5q0 -100 -65 -211.5t-158 -192.5z" />
<glyph unicode="-" horiz-adv-x="1059" d="M110 498l37 209h794l-36 -209h-795z" />
<glyph unicode="." horiz-adv-x="498" d="M12 98q0 62 45 107t107 45q60 0 104.5 -45t44.5 -107q0 -60 -43.5 -104.5t-105.5 -44.5t-107 43.5t-45 105.5z" />
<glyph unicode="/" horiz-adv-x="996" d="M-57 -128l917 1746h237l-918 -1746h-236z" />
<glyph unicode="0" horiz-adv-x="1498" d="M120 622q0 370 206 631t522 261q264 0 418.5 -179t154.5 -468q0 -242 -91.5 -447t-259 -326.5t-375.5 -121.5q-256 0 -415.5 183.5t-159.5 466.5zM343 639q0 -205 89.5 -327.5t270.5 -122.5q203 0 348.5 196t145.5 465q0 207 -88.5 327t-269.5 120q-207 0 -351.5 -194 t-144.5 -464z" />
<glyph unicode="1" horiz-adv-x="742" d="M142 1110l39 240l351 141h171l-264 -1491h-228l220 1227z" />
<glyph unicode="2" horiz-adv-x="1191" d="M-28 0l30 185l683 579q236 203 237 348q0 83 -62.5 138t-162.5 55q-189 0 -422 -134l-43 209q240 136 475 136q185 0 313 -112.5t128 -275.5q0 -150 -82 -268t-227 -242l-490 -413l77 10h607l-41 -215h-1020z" />
<glyph unicode="3" horiz-adv-x="1238" d="M2 98l87 213q71 -47 189 -84.5t222 -37.5q153 0 262.5 74t109.5 182q0 94 -75 152.5t-196 58.5h-247l38 216h254q124 0 217.5 68t93.5 176q0 85 -65 138t-195 53q-211 0 -431 -116l-44 204q260 121 494 121q211 0 338.5 -108.5t127.5 -277.5q0 -117 -74 -215t-192 -149 q86 -48 133.5 -131.5t47.5 -178.5q0 -207 -167.5 -344.5t-441.5 -137.5q-141 0 -272 38.5t-214 85.5z" />
<glyph unicode="4" horiz-adv-x="1189" d="M26 356l10 162l541 973h254l-520 -920h394l96 494h213l-87 -494h195l-36 -215h-198l-61 -356h-229l67 356h-639z" />
<glyph unicode="5" horiz-adv-x="1219" d="M-6 98l77 213q247 -130 427 -130q162 0 276 94.5t114 242.5q0 100 -72 165t-198 65q-153 0 -299 -86l-151 109l232 720h775l-37 -215h-577l-120 -354q98 37 219 37q198 0 327 -123t129 -301q0 -256 -182 -413.5t-444 -155.5q-258 2 -496 132z" />
<glyph unicode="6" horiz-adv-x="1243" d="M69 453q0 133 48.5 231t174.5 268q11 12 18 22t13 20l382 510h287l-321 -418l-115 -110q69 36 155 36q177 0 313.5 -135t136.5 -324q0 -253 -168 -420t-410 -167q-217 0 -365.5 144t-148.5 343zM292 473q0 -117 84 -204.5t220 -87.5q132 0 236.5 101.5t104.5 243.5 q0 120 -85.5 203.5t-212.5 83.5q-137 0 -242 -96.5t-105 -243.5z" />
<glyph unicode="7" horiz-adv-x="1092" d="M118 0l764 1286l-51 -10h-669l39 215h988l-28 -154l-785 -1337h-258z" />
<glyph unicode="8" horiz-adv-x="1317" d="M66 424q0 153 96 273t232 163q-55 41 -88.5 109t-33.5 132q0 190 150.5 311.5t357.5 121.5q191 0 311.5 -119.5t120.5 -276.5q0 -110 -65 -198t-157 -127q87 -47 142 -140.5t55 -197.5q0 -227 -168.5 -371.5t-428.5 -144.5q-228 0 -376 139.5t-148 325.5zM303 439 q0 -104 86 -185t225 -81q146 0 239.5 84t93.5 205q0 110 -82.5 186t-210.5 76q-142 0 -246.5 -79.5t-104.5 -205.5zM484 1106q0 -77 66 -138t170 -61q113 0 197.5 63t84.5 164q0 77 -66 138t-174 61q-115 0 -196.5 -61.5t-81.5 -165.5z" />
<glyph unicode="9" horiz-adv-x="1243" d="M124 941q0 252 168 420t409 168q217 0 366 -143.5t149 -344.5q0 -132 -49 -230t-175 -268q-21 -28 -31 -43l-382 -510h-287l322 419l114 111q-69 -36 -155 -36q-177 0 -313 135t-136 322zM347 967q0 -117 85.5 -202.5t213.5 -85.5q136 0 241 98.5t105 244.5 q0 118 -83.5 205.5t-220.5 87.5q-132 0 -236.5 -102.5t-104.5 -245.5z" />
<glyph unicode=":" horiz-adv-x="567" d="M41 98q0 62 44.5 107t105.5 45q60 0 105 -45t45 -107q0 -60 -45 -104.5t-105 -44.5q-61 0 -105.5 43.5t-44.5 105.5zM175 856.5q0 61.5 44.5 106.5t106.5 45q59 0 104 -45t45 -107q0 -59 -43.5 -104t-105.5 -45t-106.5 44t-44.5 105.5z" />
<glyph unicode=";" horiz-adv-x="583" d="M-21 -213q98 85 149 175q-87 40 -87 132q0 63 44.5 109.5t110.5 46.5t111 -48.5t45 -116.5q0 -100 -66.5 -211.5t-157.5 -192.5zM181 856.5q0 61.5 44.5 106.5t106.5 45q59 0 104.5 -45t45.5 -107q0 -59 -45 -104t-105 -45q-62 0 -106.5 44t-44.5 105.5z" />
<glyph unicode="&#x3c;" d="M100 469l49 266l1050 377l-38 -232l-826 -290l722 -289l-39 -209z" />
<glyph unicode="=" d="M43 290l38 208h1082l-39 -208h-1081zM124 748l36 211h1082l-37 -211h-1081z" />
<glyph unicode="&#x3e;" d="M81 92l39 231l821 289l-717 291l38 209l918 -377l-46 -266z" />
<glyph unicode="?" horiz-adv-x="1111" d="M191 1380q263 166 502 166q185 0 304 -112.5t119 -274.5q0 -107 -50 -196t-123.5 -153t-149 -124t-136.5 -135.5t-74 -158.5l-227 -4q18 122 80 219.5t137 160.5t147 118t121 120t49 138q0 81 -60.5 135t-152.5 54q-104 0 -227.5 -52t-195.5 -101zM298 98q0 61 45 106.5 t104 45.5q62 0 106.5 -45t44.5 -107t-44.5 -105.5t-106.5 -43.5q-59 0 -104 44.5t-45 104.5z" />
<glyph unicode="@" horiz-adv-x="2134" d="M69 411q0 313 169 569t430 392t546 136q191 0 351 -70t261 -183t156.5 -249.5t55.5 -272.5q0 -305 -168.5 -494.5t-359.5 -189.5q-181 0 -226 177q-68 -88 -168 -136.5t-191 -48.5q-181 0 -291 122t-110 290.5t90.5 300.5t220.5 196t266 64q104 0 187.5 -39.5 t119.5 -98.5l31 106h199l-166 -560q-26 -77 -8 -130.5t78 -53.5q102 0 201.5 143t99.5 345q0 104 -41.5 206.5t-118.5 188.5t-201.5 140t-278.5 54q-164 0 -329 -62t-301 -172t-221.5 -284.5t-85.5 -381.5q0 -166 72.5 -316t223.5 -251.5t350 -101.5q246 0 485 136l50 -189 q-265 -140 -544 -140q-198 0 -359.5 72t-263 195t-156.5 275.5t-55 315.5zM726 453q0 -97 58.5 -163t160.5 -66q179 0 323 142l82 313q-59 154 -251 154q-142 0 -257.5 -106.5t-115.5 -273.5z" />
<glyph unicode="A" horiz-adv-x="1443" d="M-73 0l821 1504h256l289 -1504h-228l-61 335h-650l-181 -335h-246zM469 547h492l-107 579l-11 134l-59 -134z" />
<glyph unicode="B" horiz-adv-x="1428" d="M79 0l262 1491h573q203 0 328.5 -105.5t125.5 -267.5q0 -118 -67 -210.5t-175 -149.5q156 -102 156 -287q0 -207 -150 -339t-399 -132h-654zM345 215h407q130 0 215 71.5t85 184.5q0 71 -48.5 129t-162.5 58h-417zM458 864h420l-6 -35l6 35q104 0 182 69t78 168 q0 71 -56 123t-173 52h-379z" />
<glyph unicode="C" horiz-adv-x="1375" d="M108 660q0 364 256 614.5t626 250.5q143 0 266.5 -44t188.5 -93l-86 -201q-139 120 -375 120h-4q-264 0 -456 -192.5t-192 -452.5q0 -209 147 -346t348 -137q197 0 374 126l17 -226q-187 -117 -405 -117q-300 0 -502.5 195t-202.5 503z" />
<glyph unicode="D" horiz-adv-x="1545" d="M79 0l262 1491h419q315 0 516.5 -175.5t201.5 -472.5q0 -368 -248 -605.5t-618 -237.5h-533zM345 215h267q270 0 456 177t186 441q0 207 -139 325t-357 118h-226z" />
<glyph unicode="E" horiz-adv-x="1337" d="M79 0l262 1491h1041l-36 -215h-816l-72 -412h724l-38 -208h-722l-77 -441h814l-39 -215h-1041z" />
<glyph unicode="F" horiz-adv-x="1288" d="M79 0l262 1491h996l-38 -215h-769l-77 -435h671l-35 -215h-672l-110 -626h-228z" />
<glyph unicode="G" horiz-adv-x="1547" d="M108 669q0 347 260 601.5t620 254.5q277 0 471 -128l-77 -202q-170 117 -404 117q-265 0 -454 -195t-189 -448q0 -216 137 -355t343 -139q181 0 335 95l64 360h-383l36 213h611l-117 -694q-97 -81 -242.5 -134t-313.5 -53q-301 0 -499 199t-198 508z" />
<glyph unicode="H" horiz-adv-x="1605" d="M79 0l262 1491h228l-109 -624h771l109 624h225l-262 -1491h-226l116 652h-771l-115 -652h-228z" />
<glyph unicode="I" horiz-adv-x="602" d="M79 0l262 1491h224l-262 -1491h-224z" />
<glyph unicode="J" horiz-adv-x="1130" d="M-53 73l85 219q128 -108 313 -109q147 0 243.5 92.5t122.5 244.5l171 971h228l-177 -1001q-43 -240 -200.5 -382t-393.5 -142q-120 0 -232.5 35t-159.5 72z" />
<glyph unicode="K" horiz-adv-x="1392" d="M79 0l262 1491h228l-111 -631l-32 -153l121 139l642 645h309l-659 -654l466 -837h-264l-368 673l-297 -273l-67 -400h-230z" />
<glyph unicode="L" horiz-adv-x="1179" d="M79 0l262 1491h228l-224 -1276h726l-38 -215h-954z" />
<glyph unicode="M" horiz-adv-x="1827" d="M79 0l262 1491h253l313 -826l629 826h253l-262 -1491h-228l166 941l47 187l-119 -173l-448 -559h-153l-227 559l-65 189l-27 -205l-166 -939h-228z" />
<glyph unicode="N" horiz-adv-x="1639" d="M79 0l262 1491h194l652 -1111l16 136l171 975h228l-262 -1491h-194l-652 1114l-17 -138l-170 -976h-228z" />
<glyph unicode="O" horiz-adv-x="1703" d="M110 665q0 355 241 607.5t592 252.5q303 0 496 -199.5t193 -502.5q0 -356 -242 -608.5t-593 -252.5q-301 0 -494 199t-193 504zM335 665q0 -205 131.5 -347.5t330.5 -142.5q258 0 434.5 191.5t176.5 456.5q0 205 -132 347t-333 142q-258 0 -433 -191.5t-175 -455.5z" />
<glyph unicode="P" horiz-adv-x="1390" d="M79 0l262 1491h533q232 0 373 -129t141 -352q0 -220 -171 -369t-404 -149h-419l-87 -492h-228zM431 707h382q141 0 246.5 85.5t105.5 217.5q0 130 -77.5 198t-213.5 68h-344z" />
<glyph unicode="Q" horiz-adv-x="1703" d="M110 665q0 355 241 607.5t592 252.5q303 0 496 -199t193 -503q0 -232 -110 -431t-297 -311l238 -400h-270l-179 311q-106 -30 -217 -30q-301 0 -494 199t-193 504zM335 665q0 -205 131.5 -347.5t330.5 -142.5q258 0 434.5 191.5t176.5 456.5q0 205 -132 347t-333 142 q-258 0 -433 -191.5t-175 -455.5z" />
<glyph unicode="R" horiz-adv-x="1422" d="M79 0l262 1491h539q228 0 368 -113.5t140 -327.5q0 -183 -120 -304.5t-303 -157.5l258 -588l-252 -2l-234 577h-328l-102 -575h-228zM445 784h386q134 0 234 69t100 197q0 120 -78.5 173t-206.5 53h-350z" />
<glyph unicode="S" horiz-adv-x="1228" d="M-2 120l75 221q232 -164 466 -164q132 0 233.5 66t101.5 179q0 75 -69.5 132.5t-168.5 103t-198 97.5t-168 143.5t-69 213.5q0 193 157.5 302t378.5 109q277 0 492 -157l-75 -220q-72 64 -192.5 111.5t-231.5 47.5q-122 0 -210.5 -49t-88.5 -144q0 -62 49.5 -113.5 t124 -84t161 -77.5t161.5 -92.5t124.5 -132t49.5 -190.5q0 -213 -163 -338t-401 -125q-291 0 -539 161z" />
<glyph unicode="T" horiz-adv-x="1303" d="M160 1276l36 215h1208l-38 -215h-490l-224 -1276h-228l224 1276h-488z" />
<glyph unicode="U" horiz-adv-x="1526" d="M160 567l163 924h224l-163 -944q-8 -42 -7 -80q0 -107 62 -180q85 -98 252 -98q158 0 278 101.5t147 258.5l164 942h226l-169 -961q-42 -247 -224 -401.5t-432 -154.5q-264 0 -415 168q-116 129 -116 311q0 55 10 114z" />
<glyph unicode="V" horiz-adv-x="1398" d="M196 1491h235l172 -1060l19 -195l81 195l541 1060h260l-786 -1491h-260z" />
<glyph unicode="W" horiz-adv-x="1994" d="M201 1491h234l83 -1024l8 -182l75 186l387 854h239l102 -852l13 -177l66 173l447 1022h241l-657 -1491h-266l-100 773l-14 235l-92 -235l-364 -773h-266z" />
<glyph unicode="X" horiz-adv-x="1347" d="M-106 0l655 766l-356 725h252l230 -471l38 -85l67 85l393 471h290l-615 -720l379 -771h-258l-288 603l-63 -85l-437 -518h-287z" />
<glyph unicode="Y" horiz-adv-x="1347" d="M181 1491h234l239 -674l23 -82l49 80l481 676h263l-706 -991l-89 -500h-228l92 504z" />
<glyph unicode="Z" horiz-adv-x="1217" d="M-30 0l30 156l939 1126l-47 -6h-696l38 215h1052l-28 -156l-941 -1126l47 6h699l-41 -215h-1052z" />
<glyph unicode="[" horiz-adv-x="713" d="M-8 -426l374 2130h477l-36 -217h-256l-297 -1696h252l-37 -217h-477z" />
<glyph unicode="\" horiz-adv-x="953" d="M234 1618h222l304 -1746h-221z" />
<glyph unicode="]" horiz-adv-x="715" d="M-126 -426l37 217h255l298 1696h-255l41 217h476l-374 -2130h-478z" />
<glyph unicode="^" d="M181 746l484 743h272l222 -743h-209l-164 569l-367 -569h-238z" />
<glyph unicode="_" horiz-adv-x="1248" d="M-43 -213l37 209h1043l-35 -209h-1045z" />
<glyph unicode="`" horiz-adv-x="1326" d="M462 1642h266l130 -368h-193z" />
<glyph unicode="a" horiz-adv-x="1413" d="M61 469q0 258 170.5 443t422.5 185q132 0 230 -56.5t136 -120.5l30 145h224l-124 -697l-12 -89q-3 -17 -3 -31q0 -41 23 -64q19 -19 52 -19q21 0 48 8l14 -169q-76 -19 -136 -19q-66 1 -112 23q-90 44 -108 148q-144 -189 -379 -190q-205 0 -340.5 146t-135.5 357z M283 469q0 -130 79 -211t205 -81q115 0 211 56.5t149 126.5l61 356q-34 61 -112.5 115.5t-200.5 54.5q-160 0 -276 -126t-116 -291z" />
<glyph unicode="b" horiz-adv-x="1349" d="M43 0l266 1512h221l-95 -532q123 123 321 123q213 0 354.5 -154t141.5 -372q0 -258 -174.5 -439t-412.5 -181q-232 0 -375 188l-26 -145h-221zM326 358q40 -86 125.5 -136.5t194.5 -50.5q164 0 274.5 120t110.5 286q0 132 -89.5 223.5t-217.5 91.5q-183 0 -332 -157z" />
<glyph unicode="c" horiz-adv-x="1055" d="M61 475q0 269 183.5 448.5t454.5 179.5q197 0 349 -113l-81 -210q-113 113 -278 113l-1 -1q-166 0 -285.5 -121t-119.5 -289q0 -133 89.5 -222t221.5 -89q158 0 282 79l10 -220q-144 -73 -303 -73q-229 0 -375.5 154.5t-146.5 363.5z" />
<glyph unicode="d" horiz-adv-x="1409" d="M61 469q0 258 170.5 443t422.5 185q132 0 230 -56.5t136 -120.5l17 82l91 510h220l-74 -447l-124 -697l-12 -89q-3 -17 -3 -31q0 -41 23 -64q19 -19 52 -19q21 0 48 8l14 -169q-76 -19 -136 -19q-66 1 -112 23q-90 44 -108 148q-144 -189 -379 -190q-205 0 -340.5 146 t-135.5 357zM283 469q0 -130 79 -211t205 -81q115 0 211 56.5t149 126.5l61 356q-34 61 -112.5 115.5t-200.5 54.5q-160 0 -276 -126t-116 -291z" />
<glyph unicode="e" horiz-adv-x="1283" d="M61 488q0 260 183.5 437.5t452.5 177.5q221 0 367 -145t146 -357q0 -91 -21 -164h-904q19 -128 108 -201.5t214 -73.5q218 0 407 136l6 -227q-177 -114 -417 -114q-245 0 -393.5 155.5t-148.5 375.5zM298 616h698q-6 121 -93.5 203t-214.5 82q-138 0 -245.5 -78.5 t-144.5 -206.5z" />
<glyph unicode="f" horiz-adv-x="795" d="M92 862l36 203h193l24 128q33 191 148.5 290.5t290.5 99.5q145 0 273 -56l-75 -194q-104 41 -198 41q-183 0 -221 -209l-18 -100h292l-34 -203h-294l-153 -862h-222l153 862h-195z" />
<glyph unicode="g" horiz-adv-x="1347" d="M6 -413l57 215q198 -130 414 -130q156 0 256 82t127 236l24 128q-140 -151 -347 -152q-205 0 -340.5 146t-135.5 357q0 258 170.5 443t422.5 185q132 0 230 -56.5t136 -120.5l30 145h224l-124 -697l-77 -423q-44 -238 -199.5 -361t-396.5 -123q-138 0 -274.5 43 t-196.5 83zM283 469q0 -130 79 -211t205 -81q115 0 211 56.5t149 126.5l61 356q-34 61 -112.5 115.5t-200.5 54.5q-160 0 -276 -126t-116 -291z" />
<glyph unicode="h" horiz-adv-x="1331" d="M43 0l266 1512h221l-115 -654q89 118 204.5 179.5t226.5 61.5q191 -1 288 -127q71 -92 71 -221q0 -48 -10 -101l-115 -650h-222l115 636q6 34 6 63q-1 71 -33 120q-46 69 -158 69q-110 0 -227.5 -85t-190.5 -200l-106 -603h-221z" />
<glyph unicode="i" horiz-adv-x="589" d="M94 277l12 91l124 697h221l-121 -697l-15 -89q-2 -16 -2 -29q0 -86 75 -86h2q26 0 49 9l12 -169q-46 -19 -134 -19q-132 0 -187 81q-41 60 -41 147q0 31 5 64zM262 1416q0 58 41.5 99.5t101.5 41.5q57 0 98.5 -41.5t41.5 -99.5q0 -59 -41.5 -100.5t-98.5 -41.5 q-60 0 -101.5 41.5t-41.5 100.5z" />
<glyph unicode="j" horiz-adv-x="525" d="M-335 -520l37 215q138 0 226.5 79t114.5 222l187 1069h221l-191 -1086q-86 -499 -595 -499zM260 1421q0 57 41.5 98.5t101 41.5t101 -41.5t41.5 -98.5q0 -60 -41.5 -101.5t-101 -41.5t-101 41.5t-41.5 101.5z" />
<glyph unicode="k" horiz-adv-x="1187" d="M43 0l266 1512h221l-150 -843l-28 -143q193 62 343.5 210t211.5 329h245q-102 -309 -366 -530l281 -535h-242l-209 413q-156 -90 -305 -130l-47 -283h-221z" />
<glyph unicode="l" horiz-adv-x="591" d="M94 277l12 91l203 1144h223l-202 -1144l-15 -89q-2 -16 -3 -30q0 -42 24 -65q19 -19 52 -19q22 0 51 8l12 -169q-78 -21 -140 -21q-97 -1 -151 51q-71 66 -71 181q0 29 5 62z" />
<glyph unicode="m" horiz-adv-x="1941" d="M43 0l187 1065h213l-30 -185q160 215 382 215q117 0 196.5 -64t105.5 -171q77 110 183 172.5t222 62.5q168 -1 256 -125q64 -91 63 -210q0 -44 -8 -91l-124 -669h-222l118 654q6 34 6 64q-1 59 -25 103q-38 67 -127 67q-91 0 -184.5 -73t-161.5 -181l-115 -634h-218 l118 654q6 32 6 61q0 61 -26 106q-38 67 -128 67q-94 0 -192.5 -80t-169.5 -194l-104 -614h-221z" />
<glyph unicode="n" horiz-adv-x="1331" d="M43 0l187 1065h213l-34 -215q89 121 207.5 185t229.5 64q191 -1 288 -127q71 -92 71 -221q0 -48 -10 -101l-115 -650h-222l115 636q6 34 6 63q-1 71 -33 120q-46 69 -158.5 69t-230.5 -87.5t-191 -204.5l-102 -596h-221z" />
<glyph unicode="o" horiz-adv-x="1315" d="M61 482q0 262 183.5 441.5t450.5 179.5q225 0 375.5 -149t150.5 -375q0 -264 -183.5 -443t-449.5 -179q-226 0 -376.5 149.5t-150.5 375.5zM283 488q0 -136 89.5 -226.5t225.5 -90.5q164 0 282.5 119t118.5 283q0 138 -89.5 228.5t-226.5 90.5q-164 0 -282 -120 t-118 -284z" />
<glyph unicode="p" horiz-adv-x="1352" d="M-36 -447l266 1512h203l-16 -118q55 64 149 110t192 46q213 0 354.5 -154t141.5 -372q0 -258 -174.5 -439t-412.5 -181q-236 0 -380 188l-102 -592h-221zM328 358q40 -86 124.5 -136.5t195.5 -50.5q164 0 274.5 120t110.5 286q0 132 -89.5 223.5t-217.5 91.5 q-183 0 -332 -157z" />
<glyph unicode="q" horiz-adv-x="1349" d="M61 469q0 258 170.5 443t422.5 185q132 0 230 -56.5t136 -120.5l30 145h224l-266 -1512h-222l96 539l10 36q-142 -162 -355 -162q-205 0 -340.5 146t-135.5 357zM283 469q0 -130 79 -211t205 -81q115 0 211 56.5t149 126.5l61 356q-34 61 -112.5 115.5t-200.5 54.5 q-160 0 -276 -126t-116 -291z" />
<glyph unicode="r" horiz-adv-x="939" d="M43 0l187 1065h209l-32 -215q77 119 186.5 184t209.5 65q119 -1 203 -58l-110 -214q-61 47 -154.5 47t-199 -79t-174.5 -209l-104 -586h-221z" />
<glyph unicode="s" horiz-adv-x="996" d="M-15 66l72 204q169 -97 365 -97q90 0 153.5 32.5t63.5 97.5q0 49 -53.5 85t-128.5 62.5t-152 60.5t-130 101t-53 163q0 142 121 233t308 91q116 0 229.5 -31t169.5 -64l-74 -201q-139 91 -333 91q-87 0 -144.5 -30.5t-57.5 -85.5q0 -49 53 -82.5t130 -57.5t153.5 -58.5 t129.5 -103.5t53 -171q0 -151 -129.5 -244t-317.5 -93q-128 0 -246 30t-182 68z" />
<glyph unicode="t" horiz-adv-x="866" d="M83 862l35 203h189l53 307h219l-53 -307h358l-36 -203h-358l-94 -527q-4 -23 -4 -42q0 -102 117 -102q91 0 211 43l2 -204q-116 -53 -240 -54q-171 0 -252 95q-60 71 -60 182q0 39 7 82l93 527h-187z" />
<glyph unicode="u" horiz-adv-x="1390" d="M104 433l109 632h220l-112 -628q-5 -30 -5 -57q0 -79 43 -132q58 -71 173 -71q107 0 221 76.5t167 193.5l109 618h223l-122 -697l-14 -89q-2 -16 -2 -30q0 -42 22 -65q19 -19 53 -19q22 0 51 8l12 -169q-78 -21 -139 -21q-73 -1 -121 29q-90 54 -102 173 q-79 -102 -185.5 -160.5t-218.5 -58.5q-183 0 -299 138q-90 107 -90 247q0 40 7 82z" />
<glyph unicode="v" horiz-adv-x="1134" d="M94 1065h229l139 -709l24 -130q162 158 266 377.5t140 461.5h234q-46 -294 -204 -588t-390 -483h-202z" />
<glyph unicode="w" horiz-adv-x="1739" d="M115 1065h226l81 -722l6 -107q145 140 251.5 375t135.5 454h199l114 -722l14 -109q138 153 233.5 372t113.5 459h234q-32 -309 -172.5 -584.5t-357.5 -486.5h-207l-102 602q-145 -360 -420 -602h-206z" />
<glyph unicode="x" horiz-adv-x="1094" d="M-89 0l477 545l-270 520h250l152 -296l21 -68l40 65l258 299h287l-447 -509l288 -556h-251l-169 330l-21 68l-38 -63l-290 -335h-287z" />
<glyph unicode="y" horiz-adv-x="1136" d="M-98 -352q248 151 470 388l-285 1029h230l192 -735l21 -102q301 402 358 837h234q-79 -456 -366 -879.5t-730 -715.5z" />
<glyph unicode="z" horiz-adv-x="1092" d="M-34 0l26 151l728 721l-66 -10h-526l36 203h918l-25 -151l-727 -721l66 10h545l-36 -203h-939z" />
<glyph unicode="{" horiz-adv-x="789" d="M4 532l37 214q234 0 274 225l55 311q75 423 552 422l-36 -215q-132 0 -208.5 -63t-96.5 -178l-49 -279q-42 -236 -217 -339q143 -95 102 -321l-53 -279q-19 -115 36.5 -178t185.5 -63l-39 -215q-234 0 -335.5 129t-60.5 344l50 262q18 104 -31.5 163.5t-165.5 59.5z" />
<glyph unicode="|" horiz-adv-x="577" d="M-4 -405l334 1896h221l-334 -1896h-221z" />
<glyph unicode="}" horiz-adv-x="791" d="M-128 -426l36 215q130 0 207.5 63t97.5 178l47 279q43 234 219 339q-142 98 -103 321l52 279q21 115 -34 178t-185 63l39 215q234 0 334.5 -128.5t60.5 -344.5l-49 -262q-19 -106 30 -164.5t166 -58.5l-36 -214q-232 0 -277 -225l-53 -311q-75 -422 -552 -422z" />
<glyph unicode="~" d="M104 673q168 115 303 115q99 0 250.5 -61.5t224.5 -61.5q110 0 232 97l66 -201q-158 -116 -300 -116q-100 0 -250.5 62t-227.5 62q-104 0 -231 -98z" />
<glyph unicode="&#xa1;" horiz-adv-x="542" d="M-36 -445l223 1110h185l-169 -1110h-239zM175 956q0 62 44.5 106t106.5 44t105.5 -44t43.5 -106t-44.5 -106.5t-104.5 -44.5q-62 0 -106.5 44.5t-44.5 106.5z" />
<glyph unicode="&#xa2;" horiz-adv-x="1106" d="M113 681q0 258 171.5 436t431.5 193l32 181h168l-34 -194q124 -29 217 -100l-79 -211q-68 69 -177 98l-123 -704q117 16 209 76l10 -220q-117 -61 -258 -70l-29 -166h-168l32 177q-183 38 -293 181.5t-110 322.5zM337 688q0 -106 59.5 -188.5t154.5 -111.5l126 705 q-147 -24 -243.5 -139t-96.5 -266z" />
<glyph unicode="&#xa3;" horiz-adv-x="1292" d="M34 0l27 151q79 53 113.5 129t53.5 189l32 183h-160l36 208h162l25 150q45 262 189 386t395 124q191 0 386 -73l-70 -209q-180 67 -327 67q-296 0 -347 -295l-25 -150h526l-36 -208h-526l-37 -201q-30 -172 -99 -250l85 14h699l-39 -215h-1063z" />
<glyph unicode="&#xa4;" horiz-adv-x="1402" d="M71 319l214 183q-55 98 -55 205q0 181 107 319l-134 165l153 136l138 -168q120 65 256 66q156 0 272 -83l222 187l122 -147l-216 -183q53 -101 53 -217q0 -162 -91 -292l140 -173l-153 -136l-138 168q-134 -77 -290 -77q-147 0 -260 86l-220 -185zM419 726 q0 -108 72 -191.5t190 -83.5q132 0 231.5 91.5t99.5 221.5q0 116 -74 199t-196 83q-130 0 -226.5 -91t-96.5 -229z" />
<glyph unicode="&#xa5;" horiz-adv-x="1326" d="M134 272l30 175h354l31 173h-356l33 175h260l-271 696h236l214 -577l23 -79l45 77l419 579h260l-513 -696h227l-31 -175h-317l-32 -173h319l-30 -175h-322l-48 -272h-226l49 272h-354z" />
<glyph unicode="&#xa6;" horiz-adv-x="569" d="M-6 -405l134 767h219l-134 -767h-219zM191 724l137 767h219l-136 -767h-220z" />
<glyph unicode="&#xa7;" horiz-adv-x="1224" d="M-43 -332l88 210q73 -44 185.5 -77t210.5 -33q122 0 208 51t86 136q0 64 -66 114.5t-161 89.5t-189.5 86t-160.5 127.5t-66 190.5q0 106 85 197.5t219 138.5q-75 51 -121.5 124.5t-46.5 147.5q0 166 146.5 274t396.5 108q119 0 250 -38.5t189 -77.5l-84 -206 q-65 45 -169.5 77t-204.5 32q-124 0 -197 -45t-73 -120q0 -61 65 -110t158.5 -88.5t187 -86.5t158.5 -128t65 -191q0 -115 -78.5 -201.5t-208.5 -135.5q75 -49 114 -123.5t39 -153.5q0 -174 -158.5 -289t-401.5 -115q-121 0 -251 36.5t-214 78.5zM341 573q0 -34 17.5 -65 t39 -50t73 -45.5t79 -37.5t96.5 -38q96 38 157 97.5t61 132.5q0 32 -15.5 59.5t-34.5 47t-66 45t-75.5 38t-97.5 42.5q-100 -35 -167 -92t-67 -134z" />
<glyph unicode="&#xa8;" horiz-adv-x="1326" d="M398 1429.5q0 59.5 42 100.5t99 41q59 0 100.5 -41t41.5 -100.5t-41.5 -101.5t-100.5 -42q-57 0 -99 42t-42 101.5zM833 1429.5q0 59.5 41.5 100.5t101 41t101 -41t41.5 -100.5t-41.5 -101.5t-101 -42t-101 42t-41.5 101.5z" />
<glyph unicode="&#xa9;" horiz-adv-x="1872" d="M120 685q0 190 76 357.5t202 282t287 180.5t329 66q347 0 563 -226.5t216 -521.5q0 -267 -129.5 -477t-331.5 -317.5t-429 -107.5q-234 0 -416 106.5t-274.5 280.5t-92.5 377zM296 685q0 -242 165 -414.5t448 -172.5q270 0 487.5 205.5t217.5 519.5q0 232 -162.5 403 t-443.5 171q-269 0 -490.5 -206.5t-221.5 -505.5zM547 707q0 196 145 328t326 132q173 0 264 -76l-75 -164q-83 59 -197 59q-106 0 -193 -75.5t-87 -201.5q0 -83 53.5 -145t151.5 -62q103 1 209 59l36 -169q-106 -69 -251 -69q-173 0 -277.5 114t-104.5 270z" />
<glyph unicode="&#xaa;" horiz-adv-x="981" d="M173 1116q0 162 113.5 276t262.5 114q69 0 134 -27.5t95 -68.5l14 79h141l-87 -493q-7 -34 11.5 -48.5t64.5 -2.5v-130q-89 -30 -151 3.5t-66 99.5q-85 -119 -247 -119q-122 0 -203.5 92.5t-81.5 224.5zM328 1120q0 -77 43.5 -128t122.5 -51q128 1 215 103l39 216 q-19 41 -66.5 73.5t-116.5 32.5q-94 0 -165.5 -72.5t-71.5 -173.5z" />
<glyph unicode="&#xab;" horiz-adv-x="1272" d="M136 561l315 417h250l-337 -443l168 -431h-219zM628 561l315 417h250l-337 -443l168 -431h-219z" />
<glyph unicode="&#xac;" d="M73 518l35 208h1099l-91 -525h-211l56 317h-888z" />
<glyph unicode="&#xad;" horiz-adv-x="1059" d="M110 498l37 209h794l-36 -209h-795z" />
<glyph unicode="&#xae;" horiz-adv-x="894" d="M189 1134q0 162 115.5 269t260.5 107q151 0 237 -91.5t86 -215.5q0 -166 -115 -274.5t-261 -108.5q-151 0 -237 91t-86 223zM250 1134q0 -104 69 -180t195 -76q119 0 217 92.5t98 232.5q0 98 -69 174t-197 76q-118 0 -215.5 -91.5t-97.5 -227.5zM382 988l63 362h141 q53 0 86 -32t33 -74.5t-31 -75t-73 -40.5l61 -140h-66l-57 134h-72l-24 -134h-61zM477 1175h90q30 0 52 19.5t22 47.5q0 18 -16 34.5t-39 16.5h-90z" />
<glyph unicode="&#xaf;" horiz-adv-x="1326" d="M409 1340l34 192h750l-34 -192h-750z" />
<glyph unicode="&#xb0;" horiz-adv-x="955" d="M168 1106q0 176 122.5 291t297.5 115q160 0 263.5 -115t103.5 -269q0 -174 -123 -289t-297 -115q-163 0 -265 114t-102 268zM347 1106q0 -80 55.5 -142.5t142.5 -62.5q91 0 160.5 67t69.5 160q0 84 -55 145.5t-141 61.5q-95 0 -163.5 -66t-68.5 -163z" />
<glyph unicode="&#xb1;" d="M-6 6l36 211h1082l-37 -211h-1081zM138 831l37 208h437l67 390h215l-67 -390h433l-35 -208h-437l-70 -398h-214l71 398h-437z" />
<glyph unicode="&#xb2;" horiz-adv-x="800" d="M124 874l23 134l420 382q115 102 114 175q0 39 -27.5 66.5t-76.5 27.5q-100 0 -270 -115l-47 162q171 119 328 119q121 0 196.5 -74.5t75.5 -173.5q0 -143 -183 -307l-262 -235l52 4h336l-32 -165h-647z" />
<glyph unicode="&#xb3;" horiz-adv-x="836" d="M128 941l77 154q126 -75 242 -75q92 0 155 39.5t63 103.5q0 44 -38.5 76.5t-104.5 32.5h-170l30 157h161q61 0 110.5 36.5t49.5 91.5q0 40 -32 72t-100 32q-128 0 -266 -76l-39 155q165 85 315 85q137 0 218 -73t81 -175q0 -71 -39.5 -129.5t-98.5 -90.5 q101 -61 101 -186q0 -140 -113.5 -228.5t-292.5 -88.5q-92 0 -179 30t-130 57z" />
<glyph unicode="&#xb4;" horiz-adv-x="1326" d="M675 1274l239 368h291l-311 -368h-219z" />
<glyph unicode="&#xb6;" horiz-adv-x="1388" d="M151 1071q0 185 128 302.5t296 117.5h236l-299 -1704h-207l168 961h-11q-136 0 -223.5 98.5t-87.5 224.5zM726 -213l300 1704h439l-38 -211h-232l-262 -1493h-207z" />
<glyph unicode="&#xb7;" horiz-adv-x="529" d="M130 737q0 62 43.5 106.5t105.5 44.5t107 -44.5t45 -106.5q0 -59 -45 -103t-107 -44t-105.5 43.5t-43.5 103.5z" />
<glyph unicode="&#xb8;" horiz-adv-x="1326" d="M213 -380l238 380h199l-177 -380h-260z" />
<glyph unicode="&#xb9;" horiz-adv-x="551" d="M215 1500l33 193l219 113h147l-167 -932h-170l130 721z" />
<glyph unicode="&#xba;" horiz-adv-x="882" d="M171 1110q0 168 120 284t278 116q144 0 232.5 -93.5t88.5 -227.5q0 -167 -120 -280.5t-278 -113.5q-147 0 -234 91.5t-87 223.5zM317 1112q0 -73 49 -125t134 -52q92 0 168 74.5t76 177.5q0 77 -49 130t-134 53q-94 0 -169 -76t-75 -182z" />
<glyph unicode="&#xbb;" horiz-adv-x="1272" d="M57 104l337 443l-168 431h219l175 -456l-315 -418h-248zM549 104l337 443l-168 431h219l175 -456l-315 -418h-248z" />
<glyph unicode="&#xbc;" horiz-adv-x="1856" d="M106 0l1291 1491h235l-1291 -1491h-235zM177 1187l30 193l219 111h147l-166 -930h-171l130 721zM1044 248l2 118l304 565h188l-284 -520h213l60 264h160l-47 -264h110l-29 -163h-111l-43 -248h-174l44 248h-393z" />
<glyph unicode="&#xbd;" horiz-adv-x="1910" d="M102 0l1293 1491h233l-1291 -1491h-235zM173 1187l32 193l219 111h147l-169 -930h-170l130 721zM1075 0l24 132l421 386q41 36 59 56t37.5 53t19.5 66q0 38 -28.5 65.5t-78.5 27.5q-96 0 -269 -115l-48 162q178 118 328 117q122 0 197.5 -73.5t75.5 -173.5 q0 -142 -183 -307l-264 -234l53 4h337l-33 -166h-648z" />
<glyph unicode="&#xbe;" horiz-adv-x="2223" d="M87 626l77 156q122 -77 243 -77q91 0 154 39.5t63 103.5q0 46 -38.5 77.5t-103.5 31.5h-171l28 159h163q62 0 111 35.5t49 90.5q0 42 -32 73t-100 31q-136 0 -266 -76l-38 157q164 85 315 85q136 0 217 -73t81 -176q0 -73 -39.5 -131.5t-98.5 -87.5q102 -66 102 -186 q0 -142 -114 -230.5t-295 -88.5q-89 0 -176.5 29.5t-130.5 57.5zM473 0l1291 1491h234l-1291 -1491h-234zM1412 248v118l305 565h187l-283 -520h213l60 264h159l-47 -264h111l-30 -163h-110l-43 -248h-174l44 248h-392z" />
<glyph unicode="&#xbf;" horiz-adv-x="1096" d="M-47 -102q0 106 50 194.5t124 152.5t149.5 123.5t135 136t72.5 160.5l229 2q-18 -120 -80 -217.5t-138 -160.5t-148 -119.5t-120 -121.5t-48 -137q0 -82 61 -136t152 -54q102 0 224.5 52t196.5 101l63 -197q-256 -167 -502 -167q-183 0 -302 113t-119 275zM471 959 q0 59 45 103t106 44t105 -44t44 -103q0 -61 -44 -106.5t-105 -45.5t-106 44.5t-45 107.5z" />
<glyph unicode="&#xc0;" horiz-adv-x="1443" d="M-73 0l821 1504h256l289 -1504h-228l-61 335h-650l-181 -335h-246zM469 547h492l-107 579l-11 134l-59 -134zM601 2069h268l130 -370h-194z" />
<glyph unicode="&#xc1;" horiz-adv-x="1443" d="M-73 0l821 1504h256l289 -1504h-228l-61 335h-650l-181 -335h-246zM469 547h492l-107 579l-11 134l-59 -134zM805 1699l241 370h291l-313 -370h-219z" />
<glyph unicode="&#xc2;" horiz-adv-x="1443" d="M-73 0l821 1504h256l289 -1504h-228l-61 335h-650l-181 -335h-246zM469 547h492l-107 579l-11 134l-59 -134zM520 1697l293 369h297l170 -369h-209l-121 213l-192 -213h-238z" />
<glyph unicode="&#xc3;" horiz-adv-x="1443" d="M-73 0l821 1504h256l289 -1504h-228l-61 335h-650l-181 -335h-246zM469 547h492l-107 579l-11 134l-59 -134zM530 1711q21 146 96 221.5t183 75.5q77 0 156 -54t108 -54q79 0 90 106h192q-24 -146 -99.5 -220.5t-182.5 -74.5q-77 0 -155.5 53t-106.5 53q-79 0 -91 -106 h-190z" />
<glyph unicode="&#xc4;" horiz-adv-x="1443" d="M-73 0l821 1504h256l289 -1504h-228l-61 335h-650l-181 -335h-246zM469 547h492l-107 579l-11 134l-59 -134zM569 1855q0 60 41.5 101.5t101 41.5t101 -41.5t41.5 -101.5t-41.5 -101t-101 -41t-101 41t-41.5 101zM1006 1855q0 60 41.5 101.5t100.5 41.5t100 -41.5 t41 -101.5t-41 -101t-100 -41t-100.5 41t-41.5 101z" />
<glyph unicode="&#xc5;" horiz-adv-x="1443" d="M-73 0l821 1504h256l289 -1504h-228l-61 335h-650l-181 -335h-246zM469 547h492l-107 579l-11 134l-59 -134zM654 1872q0 130 89.5 216.5t215.5 86.5q110 0 186 -77.5t76 -182.5q0 -128 -90.5 -215.5t-216.5 -87.5q-110 0 -185 79t-75 181zM811 1884q0 -46 33.5 -81 t84.5 -35q53 0 93.5 39.5t40.5 96.5q0 47 -34.5 81.5t-85.5 34.5q-53 0 -92.5 -39.5t-39.5 -96.5z" />
<glyph unicode="&#xc6;" horiz-adv-x="2059" d="M-115 0l1141 1491h1080l-35 -215h-710l-70 -412h615l-36 -208h-618l-79 -441h709l-37 -215h-936l58 326h-558l-249 -326h-275zM573 539h433l128 735l-65 -87z" />
<glyph unicode="&#xc7;" horiz-adv-x="1375" d="M108 660q0 364 256 614.5t626 250.5q143 0 266.5 -44t188.5 -93l-86 -201q-141 120 -379 120q-264 0 -456 -192.5t-192 -452.5q0 -209 147 -346t348 -137q197 0 374 126l17 -226q-171 -108 -375 -117l-160 -344h-259l226 361q-240 51 -391 234t-151 447z" />
<glyph unicode="&#xc8;" horiz-adv-x="1337" d="M79 0l262 1491h1041l-36 -215h-816l-72 -412h724l-38 -208h-722l-77 -441h814l-39 -215h-1041zM598 2069h266l130 -370h-193z" />
<glyph unicode="&#xc9;" horiz-adv-x="1337" d="M79 0l262 1491h1041l-36 -215h-816l-72 -412h724l-38 -208h-722l-77 -441h814l-39 -215h-1041zM803 1699l238 370h292l-311 -370h-219z" />
<glyph unicode="&#xca;" horiz-adv-x="1337" d="M79 0l262 1491h1041l-36 -215h-816l-72 -412h724l-38 -208h-722l-77 -441h814l-39 -215h-1041zM516 1697l295 369h295l170 -369h-209l-120 213l-191 -213h-240z" />
<glyph unicode="&#xcb;" horiz-adv-x="1337" d="M79 0l262 1491h1041l-36 -215h-816l-72 -412h724l-38 -208h-722l-77 -441h814l-39 -215h-1041zM567 1855q0 60 41.5 101.5t98.5 41.5q59 0 101 -41.5t42 -101.5t-42 -101t-101 -41q-57 0 -98.5 41t-41.5 101zM1004 1855q0 60 40 101.5t99.5 41.5t101 -41.5t41.5 -101.5 t-41.5 -101t-101 -41t-99.5 41t-40 101z" />
<glyph unicode="&#xcc;" horiz-adv-x="602" d="M79 0l262 1491h224l-262 -1491h-224zM166 2069h267l130 -370h-195z" />
<glyph unicode="&#xcd;" horiz-adv-x="602" d="M79 0l262 1491h224l-262 -1491h-224zM370 1699l239 370h292l-311 -370h-220z" />
<glyph unicode="&#xce;" horiz-adv-x="602" d="M79 0l262 1491h224l-262 -1491h-224zM83 1697l297 369h293l170 -369h-209l-118 213l-193 -213h-240z" />
<glyph unicode="&#xcf;" horiz-adv-x="602" d="M79 0l262 1491h224l-262 -1491h-224zM134 1855q0 60 41.5 101.5t99.5 41.5q59 0 100.5 -41.5t41.5 -101.5t-41.5 -101t-100.5 -41q-58 0 -99.5 41t-41.5 101zM571 1855q0 60 41.5 101.5t98.5 41.5q60 0 101.5 -41.5t41.5 -101.5t-41.5 -101t-101.5 -41q-57 0 -98.5 41 t-41.5 101z" />
<glyph unicode="&#xd0;" horiz-adv-x="1547" d="M81 0l112 636h-112l34 212h115l113 643h419q315 0 516.5 -175.5t201.5 -472.5q0 -368 -248 -605.5t-618 -237.5h-533zM347 215h267q270 0 456 177t186 441q0 207 -139 325t-357 118h-225l-77 -428h449l-31 -212h-454z" />
<glyph unicode="&#xd1;" horiz-adv-x="1639" d="M79 0l262 1491h194l652 -1111l16 136l171 975h228l-262 -1491h-194l-652 1114l-17 -138l-170 -976h-228zM628 1711q21 146 96 221.5t183 75.5q75 0 154 -54t108 -54q79 0 89 106h193q-21 -146 -97 -220.5t-183 -74.5q-79 0 -157.5 53t-106.5 53q-79 0 -90 -106h-189z" />
<glyph unicode="&#xd2;" horiz-adv-x="1703" d="M110 665q0 355 241 607.5t592 252.5q303 0 496 -199.5t193 -502.5q0 -356 -242 -608.5t-593 -252.5q-301 0 -494 199t-193 504zM335 665q0 -205 131.5 -347.5t330.5 -142.5q258 0 434.5 191.5t176.5 456.5q0 205 -132 347t-333 142q-258 0 -433 -191.5t-175 -455.5z M688 2069h267l129 -370h-194z" />
<glyph unicode="&#xd3;" horiz-adv-x="1703" d="M110 665q0 355 241 607.5t592 252.5q303 0 496 -199.5t193 -502.5q0 -356 -242 -608.5t-593 -252.5q-301 0 -494 199t-193 504zM335 665q0 -205 131.5 -347.5t330.5 -142.5q258 0 434.5 191.5t176.5 456.5q0 205 -132 347t-333 142q-258 0 -433 -191.5t-175 -455.5z M890 1699l240 370h293l-311 -370h-222z" />
<glyph unicode="&#xd4;" horiz-adv-x="1703" d="M110 665q0 355 241 607.5t592 252.5q303 0 496 -199.5t193 -502.5q0 -356 -242 -608.5t-593 -252.5q-301 0 -494 199t-193 504zM335 665q0 -205 131.5 -347.5t330.5 -142.5q258 0 434.5 191.5t176.5 456.5q0 205 -132 347t-333 142q-258 0 -433 -191.5t-175 -455.5z M605 1697l296 369h294l171 -369h-210l-119 213l-191 -213h-241z" />
<glyph unicode="&#xd5;" horiz-adv-x="1703" d="M110 665q0 355 241 607.5t592 252.5q303 0 496 -199.5t193 -502.5q0 -356 -242 -608.5t-593 -252.5q-301 0 -494 199t-193 504zM335 665q0 -205 131.5 -347.5t330.5 -142.5q258 0 434.5 191.5t176.5 456.5q0 205 -132 347t-333 142q-258 0 -433 -191.5t-175 -455.5z M616 1711q20 146 95 221.5t183 75.5q77 0 155.5 -54t109.5 -54q79 0 89 106h191q-20 -146 -95.5 -220.5t-182.5 -74.5q-79 0 -157.5 53t-107.5 53q-79 0 -89 -106h-191z" />
<glyph unicode="&#xd6;" horiz-adv-x="1703" d="M110 665q0 355 241 607.5t592 252.5q303 0 496 -199.5t193 -502.5q0 -356 -242 -608.5t-593 -252.5q-301 0 -494 199t-193 504zM335 665q0 -205 131.5 -347.5t330.5 -142.5q258 0 434.5 191.5t176.5 456.5q0 205 -132 347t-333 142q-258 0 -433 -191.5t-175 -455.5z M656 1855q0 60 40.5 101.5t100 41.5t101 -41.5t41.5 -101.5t-41.5 -101t-101 -41t-100 41t-40.5 101zM1091 1855q0 60 41 101.5t101 41.5t101.5 -41.5t41.5 -101.5t-41.5 -101t-101.5 -41t-101 41t-41 101z" />
<glyph unicode="&#xd7;" d="M130 309l370 315l-258 301l156 148l254 -307l360 309l142 -150l-366 -313l258 -303l-154 -145l-251 309l-369 -311z" />
<glyph unicode="&#xd8;" horiz-adv-x="1703" d="M41 -128l244 309q-175 193 -175 484q0 355 241 607.5t592 252.5q187 0 341 -84l139 177h266l-240 -303q183 -196 183 -492q0 -356 -242 -608.5t-593 -252.5q-194 0 -350 89l-140 -179h-266zM335 665q0 -169 93 -303l716 906q-96 44 -201 44q-258 0 -433 -191.5 t-175 -455.5zM586 226q97 -51 211 -51q258 0 434.5 191.5t176.5 456.5q0 179 -103 311z" />
<glyph unicode="&#xd9;" horiz-adv-x="1526" d="M160 567l163 924h224l-163 -944q-30 -162 55 -260t252 -98q158 0 278 101.5t147 258.5l164 942h226l-169 -961q-42 -247 -224 -401.5t-432 -154.5q-264 0 -415 167.5t-106 425.5zM643 2069h266l130 -370h-193z" />
<glyph unicode="&#xda;" horiz-adv-x="1526" d="M160 567l163 924h224l-163 -944q-30 -162 55 -260t252 -98q158 0 278 101.5t147 258.5l164 942h226l-169 -961q-42 -247 -224 -401.5t-432 -154.5q-264 0 -415 167.5t-106 425.5zM848 1699l238 370h292l-311 -370h-219z" />
<glyph unicode="&#xdb;" horiz-adv-x="1526" d="M160 567l163 924h224l-163 -944q-30 -162 55 -260t252 -98q158 0 278 101.5t147 258.5l164 942h226l-169 -961q-42 -247 -224 -401.5t-432 -154.5q-264 0 -415 167.5t-106 425.5zM561 1697l295 369h294l171 -369h-209l-120 213l-191 -213h-240z" />
<glyph unicode="&#xdc;" horiz-adv-x="1526" d="M160 567l163 924h224l-163 -944q-30 -162 55 -260t252 -98q158 0 278 101.5t147 258.5l164 942h226l-169 -961q-42 -247 -224 -401.5t-432 -154.5q-264 0 -415 167.5t-106 425.5zM612 1855q0 60 41.5 101.5t98.5 41.5q59 0 100.5 -41.5t41.5 -101.5t-41.5 -101 t-100.5 -41q-57 0 -98.5 41t-41.5 101zM1048 1855q0 60 40 101.5t100 41.5t101.5 -41.5t41.5 -101.5t-41.5 -101t-101.5 -41t-100 41t-40 101z" />
<glyph unicode="&#xdd;" horiz-adv-x="1347" d="M181 1491h234l239 -674l23 -82l49 80l481 676h263l-706 -991l-89 -500h-228l92 504zM722 1699l241 370h291l-311 -370h-221z" />
<glyph unicode="&#xde;" horiz-adv-x="1392" d="M79 0l262 1491h228l-43 -245h305q232 0 372.5 -129t140.5 -353q0 -221 -171 -370t-404 -149h-422l-40 -245h-228zM388 460h381q140 0 246.5 86t106.5 218q0 128 -78.5 197.5t-212.5 69.5h-345z" />
<glyph unicode="&#xdf;" horiz-adv-x="1331" d="M-254 -518l37 211q113 0 172.5 74.5t85.5 232.5l181 1014q44 250 185.5 384t352.5 134q196 0 311.5 -106.5t115.5 -271.5q0 -195 -175 -323q98 -55 154.5 -146t56.5 -203q0 -228 -166.5 -370t-402.5 -142q-168 0 -290 51l77 205q94 -45 224 -45q142 0 238 82t96 216 q0 90 -63.5 149.5t-191.5 59.5h-214l37 206h136q102 0 183 69.5t81 164.5q0 86 -55.5 139.5t-159.5 53.5q-118 0 -201.5 -83.5t-109.5 -223.5l-179 -1014q-47 -283 -167.5 -400.5t-348.5 -117.5z" />
<glyph unicode="&#xe0;" horiz-adv-x="1413" d="M61 469q0 258 170.5 443t422.5 185q132 0 230 -56.5t136 -120.5l30 145h224l-124 -697l-12 -89q-11 -64 20 -95t100 -11l14 -169q-158 -40 -247.5 3.5t-108.5 148.5q-144 -189 -379 -190q-205 0 -340.5 146t-135.5 357zM283 469q0 -130 79 -211t205 -81q115 0 211 56.5 t149 126.5l61 356q-34 61 -112.5 115.5t-200.5 54.5q-160 0 -276 -126t-116 -291zM464 1642h266l132 -368h-195z" />
<glyph unicode="&#xe1;" horiz-adv-x="1413" d="M61 469q0 258 170.5 443t422.5 185q132 0 230 -56.5t136 -120.5l30 145h224l-124 -697l-12 -89q-11 -64 20 -95t100 -11l14 -169q-158 -40 -247.5 3.5t-108.5 148.5q-144 -189 -379 -190q-205 0 -340.5 146t-135.5 357zM283 469q0 -130 79 -211t205 -81q115 0 211 56.5 t149 126.5l61 356q-34 61 -112.5 115.5t-200.5 54.5q-160 0 -276 -126t-116 -291zM669 1274l238 368h294l-313 -368h-219z" />
<glyph unicode="&#xe2;" horiz-adv-x="1413" d="M61 469q0 258 170.5 443t422.5 185q132 0 230 -56.5t136 -120.5l30 145h224l-124 -697l-12 -89q-11 -64 20 -95t100 -11l14 -169q-158 -40 -247.5 3.5t-108.5 148.5q-144 -189 -379 -190q-205 0 -340.5 146t-135.5 357zM283 469q0 -130 79 -211t205 -81q115 0 211 56.5 t149 126.5l61 356q-34 61 -112.5 115.5t-200.5 54.5q-160 0 -276 -126t-116 -291zM384 1272l293 368h296l171 -368h-209l-122 212l-191 -212h-238z" />
<glyph unicode="&#xe3;" horiz-adv-x="1413" d="M61 469q0 258 170.5 443t422.5 185q132 0 230 -56.5t136 -120.5l30 145h224l-124 -697l-12 -89q-11 -64 20 -95t100 -11l14 -169q-158 -40 -247.5 3.5t-108.5 148.5q-144 -189 -379 -190q-205 0 -340.5 146t-135.5 357zM283 469q0 -130 79 -211t205 -81q115 0 211 56.5 t149 126.5l61 356q-34 61 -112.5 115.5t-200.5 54.5q-160 0 -276 -126t-116 -291zM394 1284q21 147 96 223t183 76q77 0 154.5 -54.5t107.5 -54.5q81 0 91 107h192q-24 -147 -99 -222t-182 -75q-79 0 -156.5 53t-105.5 53q-79 0 -92 -106h-189z" />
<glyph unicode="&#xe4;" horiz-adv-x="1413" d="M61 469q0 258 170.5 443t422.5 185q132 0 230 -56.5t136 -120.5l30 145h224l-124 -697l-12 -89q-11 -64 20 -95t100 -11l14 -169q-158 -40 -247.5 3.5t-108.5 148.5q-144 -189 -379 -190q-205 0 -340.5 146t-135.5 357zM283 469q0 -130 79 -211t205 -81q115 0 211 56.5 t149 126.5l61 356q-34 61 -112.5 115.5t-200.5 54.5q-160 0 -276 -126t-116 -291zM433 1429.5q0 59.5 41.5 100.5t100.5 41q57 0 99 -41t42 -100.5t-42 -101.5t-99 -42q-59 0 -100.5 42t-41.5 101.5zM869 1429.5q0 59.5 41.5 100.5t101.5 41q57 0 98.5 -41t41.5 -100.5 t-41.5 -101.5t-98.5 -42q-59 0 -101 42t-42 101.5z" />
<glyph unicode="&#xe5;" horiz-adv-x="1413" d="M61 469q0 258 170.5 443t422.5 185q132 0 230 -56.5t136 -120.5l30 145h224l-124 -697l-12 -89q-11 -64 20 -95t100 -11l14 -169q-158 -40 -247.5 3.5t-108.5 148.5q-144 -189 -379 -190q-205 0 -340.5 146t-135.5 357zM283 469q0 -130 79 -211t205 -81q115 0 211 56.5 t149 126.5l61 356q-34 61 -112.5 115.5t-200.5 54.5q-160 0 -276 -126t-116 -291zM516 1447q0 130 90.5 215.5t216.5 85.5q110 0 184.5 -77.5t74.5 -181.5q0 -128 -90.5 -215t-216.5 -87q-108 0 -183.5 78.5t-75.5 181.5zM675 1459q0 -47 33.5 -82t84 -35t92.5 39.5t42 96.5 q0 47 -34.5 81t-85.5 34q-53 0 -92.5 -39.5t-39.5 -94.5z" />
<glyph unicode="&#xe6;" horiz-adv-x="1929" d="M19 305q0 142 114.5 238t330.5 93l335 -2q2 9 3 24t1 23q8 106 -49 160.5t-162 54.5q-158 0 -381 -97l-28 211q229 93 426 93q141 0 236.5 -57.5t123.5 -151.5q92 100 187.5 150.5t238.5 50.5q213 0 355 -163t105 -387q-8 -63 -28 -106h-835q-4 -120 81.5 -197.5 t215.5 -77.5q164 0 349 121l4 -216q-166 -104 -368 -105q-151 0 -260 64t-166 168q-79 -107 -202.5 -167.5t-243.5 -60.5q-176 0 -279.5 101.5t-103.5 235.5zM232 317q0 -57 48 -98.5t144 -41.5q98 0 199 56.5t159 128.5q-6 46 -2 107h-341q-98 0 -152.5 -43.5t-54.5 -108.5 zM1018 618h624q11 113 -66.5 195.5t-193.5 82.5q-130 0 -233 -78.5t-131 -199.5z" />
<glyph unicode="&#xe7;" horiz-adv-x="1055" d="M61 475q0 269 183.5 448.5t454.5 179.5q197 0 349 -113l-81 -210q-113 112 -279 112t-285.5 -121t-119.5 -289q0 -133 89.5 -222t221.5 -89q158 0 282 79l10 -220q-126 -63 -256 -71l-157 -341h-260l226 358q-173 45 -275.5 186t-102.5 313z" />
<glyph unicode="&#xe8;" horiz-adv-x="1283" d="M61 488q0 260 183.5 437.5t452.5 177.5q221 0 367 -145t146 -357q0 -91 -21 -164h-904q19 -128 108 -201.5t214 -73.5q218 0 407 136l6 -227q-177 -114 -417 -114q-245 0 -393.5 155.5t-148.5 375.5zM298 616h698q-6 121 -93.5 203t-214.5 82q-138 0 -245.5 -78.5 t-144.5 -206.5zM443 1642h266l130 -368h-193z" />
<glyph unicode="&#xe9;" horiz-adv-x="1283" d="M61 488q0 260 183.5 437.5t452.5 177.5q221 0 367 -145t146 -357q0 -91 -21 -164h-904q19 -128 108 -201.5t214 -73.5q218 0 407 136l6 -227q-177 -114 -417 -114q-245 0 -393.5 155.5t-148.5 375.5zM298 616h698q-6 121 -93.5 203t-214.5 82q-138 0 -245.5 -78.5 t-144.5 -206.5zM648 1274l238 368h292l-311 -368h-219z" />
<glyph unicode="&#xea;" horiz-adv-x="1283" d="M61 488q0 260 183.5 437.5t452.5 177.5q221 0 367 -145t146 -357q0 -91 -21 -164h-904q19 -128 108 -201.5t214 -73.5q218 0 407 136l6 -227q-177 -114 -417 -114q-245 0 -393.5 155.5t-148.5 375.5zM298 616h698q-6 121 -93.5 203t-214.5 82q-138 0 -245.5 -78.5 t-144.5 -206.5zM362 1272l294 368h294l170 -368h-206l-122 212l-191 -212h-239z" />
<glyph unicode="&#xeb;" horiz-adv-x="1283" d="M61 488q0 260 183.5 437.5t452.5 177.5q221 0 367 -145t146 -357q0 -91 -21 -164h-904q19 -128 108 -201.5t214 -73.5q218 0 407 136l6 -227q-177 -114 -417 -114q-245 0 -393.5 155.5t-148.5 375.5zM298 616h698q-6 121 -93.5 203t-214.5 82q-138 0 -245.5 -78.5 t-144.5 -206.5zM411 1429.5q0 59.5 41.5 100.5t100.5 41q57 0 99.5 -41t42.5 -100.5t-42.5 -101.5t-99.5 -42q-59 0 -100.5 42t-41.5 101.5zM848 1429.5q0 59.5 41.5 100.5t98.5 41q59 0 100.5 -41t41.5 -100.5t-41.5 -101.5t-100.5 -42q-57 0 -98.5 42t-41.5 101.5z" />
<glyph unicode="&#xec;" horiz-adv-x="589" d="M71 1642h266l132 -368h-197zM94 277l12 91l124 697h221l-121 -697l-15 -89q-10 -64 20.5 -95t103.5 -11l12 -169q-202 -53 -291 30.5t-66 242.5z" />
<glyph unicode="&#xed;" horiz-adv-x="589" d="M94 277l12 91l124 697h221l-121 -697l-15 -89q-10 -64 20.5 -95t103.5 -11l12 -169q-202 -53 -291 30.5t-66 242.5zM275 1274l239 368h293l-313 -368h-219z" />
<glyph unicode="&#xee;" horiz-adv-x="589" d="M-10 1272l293 368h296l169 -368h-207l-122 212l-191 -212h-238zM94 277l12 91l124 697h221l-121 -697l-15 -89q-10 -64 20.5 -95t103.5 -11l12 -169q-202 -53 -291 30.5t-66 242.5z" />
<glyph unicode="&#xef;" horiz-adv-x="589" d="M38 1429.5q0 59.5 42 100.5t101 41q57 0 98.5 -41t41.5 -100.5t-41.5 -101.5t-98.5 -42q-59 0 -101 42t-42 101.5zM94 277l12 91l124 697h221l-121 -697l-15 -89q-10 -64 20.5 -95t103.5 -11l12 -169q-202 -53 -291 30.5t-66 242.5zM475 1429.5q0 59.5 41.5 100.5 t99.5 41q59 0 100.5 -41t41.5 -100.5t-41.5 -101.5t-100.5 -42q-58 0 -99.5 42t-41.5 101.5z" />
<glyph unicode="&#xf0;" horiz-adv-x="1260" d="M59 471q0 230 166.5 387.5t402.5 157.5q201 0 324 -136q-43 221 -222 383l-321 -179l-86 170l246 134q-96 64 -162 99l111 174q140 -81 242 -165l262 144l81 -168l-198 -111q260 -290 260 -707q0 -315 -176 -501.5t-428 -186.5q-220 0 -361 143t-141 362zM279 471 q0 -126 85 -208t213 -82q143 0 246.5 104.5t103.5 253.5q0 119 -86.5 198.5t-212.5 79.5q-144 0 -246.5 -101.5t-102.5 -244.5z" />
<glyph unicode="&#xf1;" horiz-adv-x="1331" d="M43 0l187 1065h213l-34 -215q89 121 207.5 185t229.5 64q191 0 288 -126.5t61 -322.5l-115 -650h-222l115 636q19 114 -26.5 183t-158.5 69t-231 -87.5t-191 -204.5l-102 -596h-221zM390 1284q21 147 96 223t183 76q77 0 155.5 -54.5t108.5 -54.5q79 0 89 107h192 q-24 -147 -99.5 -222t-181.5 -75q-79 0 -156.5 53t-105.5 53q-79 0 -92 -106h-189z" />
<glyph unicode="&#xf2;" horiz-adv-x="1315" d="M61 482q0 262 183.5 441.5t450.5 179.5q225 0 375.5 -149t150.5 -375q0 -264 -183.5 -443t-449.5 -179q-226 0 -376.5 149.5t-150.5 375.5zM283 488q0 -136 89.5 -226.5t225.5 -90.5q164 0 282.5 119t118.5 283q0 138 -89.5 228.5t-226.5 90.5q-164 0 -282 -120 t-118 -284zM447 1642h266l133 -368h-196z" />
<glyph unicode="&#xf3;" horiz-adv-x="1315" d="M61 482q0 262 183.5 441.5t450.5 179.5q225 0 375.5 -149t150.5 -375q0 -264 -183.5 -443t-449.5 -179q-226 0 -376.5 149.5t-150.5 375.5zM283 488q0 -136 89.5 -226.5t225.5 -90.5q164 0 282.5 119t118.5 283q0 138 -89.5 228.5t-226.5 90.5q-164 0 -282 -120 t-118 -284zM652 1274l238 368h295l-313 -368h-220z" />
<glyph unicode="&#xf4;" horiz-adv-x="1315" d="M61 482q0 262 183.5 441.5t450.5 179.5q225 0 375.5 -149t150.5 -375q0 -264 -183.5 -443t-449.5 -179q-226 0 -376.5 149.5t-150.5 375.5zM283 488q0 -136 89.5 -226.5t225.5 -90.5q164 0 282.5 119t118.5 283q0 138 -89.5 228.5t-226.5 90.5q-164 0 -282 -120 t-118 -284zM366 1272l294 368h297l169 -368h-208l-121 212l-192 -212h-239z" />
<glyph unicode="&#xf5;" horiz-adv-x="1315" d="M61 482q0 262 183.5 441.5t450.5 179.5q225 0 375.5 -149t150.5 -375q0 -264 -183.5 -443t-449.5 -179q-226 0 -376.5 149.5t-150.5 375.5zM283 488q0 -136 89.5 -226.5t225.5 -90.5q164 0 282.5 119t118.5 283q0 138 -89.5 228.5t-226.5 90.5q-164 0 -282 -120 t-118 -284zM376 1284q21 147 96.5 223t183.5 76q77 0 154.5 -54.5t107.5 -54.5q81 0 92 107h191q-24 -147 -99.5 -222t-181.5 -75q-79 0 -157 53t-105 53q-79 0 -91 -106h-191z" />
<glyph unicode="&#xf6;" horiz-adv-x="1315" d="M61 482q0 262 183.5 441.5t450.5 179.5q225 0 375.5 -149t150.5 -375q0 -264 -183.5 -443t-449.5 -179q-226 0 -376.5 149.5t-150.5 375.5zM283 488q0 -136 89.5 -226.5t225.5 -90.5q164 0 282.5 119t118.5 283q0 138 -89.5 228.5t-226.5 90.5q-164 0 -282 -120 t-118 -284zM415 1429.5q0 59.5 41.5 100.5t101.5 41q58 0 99.5 -41t41.5 -100.5t-41.5 -101.5t-99.5 -42q-59 0 -101 42t-42 101.5zM852 1429.5q0 59.5 41.5 100.5t100.5 41q57 0 99.5 -41t42.5 -100.5t-42.5 -101.5t-99.5 -42q-59 0 -100.5 42t-41.5 101.5z" />
<glyph unicode="&#xf7;" d="M85 522l37 208h1081l-36 -208h-1082zM435 188q0 60 44.5 105.5t106.5 45.5t106.5 -45.5t44.5 -105.5t-44.5 -105t-106.5 -45t-106.5 45t-44.5 105zM571 1073q0 62 43.5 107t105.5 45t107 -44.5t45 -106.5t-45.5 -105.5t-106.5 -43.5q-60 0 -104.5 44.5t-44.5 103.5z" />
<glyph unicode="&#xf8;" horiz-adv-x="1315" d="M61 482q0 262 183.5 441.5t450.5 179.5q100 0 197 -34l79 128h173l-124 -201q201 -150 201 -417q0 -264 -183.5 -443t-449.5 -179q-102 0 -188 33l-87 -143h-171l128 208q-209 153 -209 427zM283 488q0 -147 105 -240l390 632q-45 12 -95 12q-164 0 -282 -120t-118 -284z M518 179q50 -8 80 -8q164 0 282.5 119t118.5 283q0 143 -96 234z" />
<glyph unicode="&#xf9;" horiz-adv-x="1415" d="M104 433l109 632h220l-112 -628q-20 -118 38 -189t173 -71q107 0 221 76.5t167 193.5l109 618h223l-122 -697l-14 -89q-10 -64 20.5 -95t103.5 -11l12 -169q-170 -45 -260.5 8.5t-101.5 172.5q-79 -102 -185.5 -160.5t-218.5 -58.5q-183 0 -299 138t-83 329zM458 1642 h266l130 -368h-194z" />
<glyph unicode="&#xfa;" horiz-adv-x="1415" d="M104 433l109 632h220l-112 -628q-20 -118 38 -189t173 -71q107 0 221 76.5t167 193.5l109 618h223l-122 -697l-14 -89q-10 -64 20.5 -95t103.5 -11l12 -169q-170 -45 -260.5 8.5t-101.5 172.5q-79 -102 -185.5 -160.5t-218.5 -58.5q-183 0 -299 138t-83 329zM650 1274 l238 368h292l-311 -368h-219z" />
<glyph unicode="&#xfb;" horiz-adv-x="1415" d="M104 433l109 632h220l-112 -628q-20 -118 38 -189t173 -71q107 0 221 76.5t167 193.5l109 618h223l-122 -697l-14 -89q-10 -64 20.5 -95t103.5 -11l12 -169q-170 -45 -260.5 8.5t-101.5 172.5q-79 -102 -185.5 -160.5t-218.5 -58.5q-183 0 -299 138t-83 329zM368 1272 l294 368h297l169 -368h-208l-121 212l-192 -212h-239z" />
<glyph unicode="&#xfc;" horiz-adv-x="1415" d="M104 433l109 632h220l-112 -628q-20 -118 38 -189t173 -71q107 0 221 76.5t167 193.5l109 618h223l-122 -697l-14 -89q-10 -64 20.5 -95t103.5 -11l12 -169q-170 -45 -260.5 8.5t-101.5 172.5q-79 -102 -185.5 -160.5t-218.5 -58.5q-183 0 -299 138t-83 329zM415 1429.5 q0 59.5 41.5 100.5t101.5 41q58 0 99.5 -41t41.5 -100.5t-41.5 -101.5t-99.5 -42q-59 0 -101 42t-42 101.5zM852 1429.5q0 59.5 41.5 100.5t98.5 41q59 0 101.5 -41t42.5 -100.5t-42.5 -101.5t-101.5 -42q-57 0 -98.5 42t-41.5 101.5z" />
<glyph unicode="&#xfd;" horiz-adv-x="1136" d="M-98 -352q248 151 470 388l-285 1029h230l192 -735l21 -102q301 402 358 837h234q-79 -456 -366 -879.5t-730 -715.5zM530 1274l241 368h292l-311 -368h-222z" />
<glyph unicode="&#xfe;" horiz-adv-x="1352" d="M-36 -447l2 21l339 1917h221l-93 -520l-5 -10q60 59 148.5 100.5t181.5 41.5q213 0 354.5 -154t141.5 -372q0 -258 -174.5 -439t-412.5 -181q-236 0 -380 188l-102 -592h-221zM328 358q40 -86 126 -136.5t194 -50.5q164 0 274.5 120t110.5 286q0 132 -89.5 223.5 t-217.5 91.5q-183 0 -332 -157z" />
<glyph unicode="&#xff;" horiz-adv-x="1136" d="M-98 -352q248 151 470 388l-285 1029h230l192 -735l21 -102q301 402 358 837h234q-79 -456 -366 -879.5t-730 -715.5zM296 1429.5q0 59.5 40 100.5t100 41t101.5 -41t41.5 -100.5t-41.5 -101.5t-101.5 -42t-100 42t-40 101.5zM730 1429.5q0 59.5 41.5 100.5t101.5 41 t101.5 -41t41.5 -100.5t-41.5 -101.5t-101.5 -42t-101.5 42t-41.5 101.5z" />
<glyph unicode="&#x152;" horiz-adv-x="2502" d="M110 665q0 355 241 607.5t592 252.5q190 0 338 -85t215 -224l48 275h1005l-35 -215h-795l-71 -412h701l-38 -208h-701l-78 -441h793l-37 -215h-1006l30 173q-89 -98 -225.5 -154.5t-289.5 -56.5q-301 0 -494 199t-193 504zM335 665q0 -205 131.5 -347.5t330.5 -142.5 q258 0 433.5 191.5t175.5 456.5q0 205 -132.5 347t-330.5 142q-258 0 -433 -191.5t-175 -455.5z" />
<glyph unicode="&#x153;" horiz-adv-x="2216" d="M61 482q0 262 183.5 441.5t450.5 179.5q138 0 253 -60.5t186 -164.5q191 225 498 225q221 0 366.5 -145t145.5 -357q0 -91 -20 -164h-906q19 -128 107.5 -201.5t214.5 -73.5q216 0 409 136l4 -227q-177 -114 -417 -114q-300 0 -452 230q-88 -108 -217.5 -169t-278.5 -61 q-226 0 -376.5 149.5t-150.5 375.5zM283 488q0 -136 89.5 -226.5t225.5 -90.5q149 0 263.5 101.5t132.5 249.5l5 36v15q0 138 -89.5 228.5t-226.5 90.5q-164 0 -282 -120t-118 -284zM1231 616h698q-6 121 -92.5 203t-213.5 82q-140 0 -247.5 -78.5t-144.5 -206.5z" />
<glyph unicode="&#x178;" horiz-adv-x="1347" d="M181 1491h234l239 -674l23 -82l49 80l481 676h263l-706 -991l-89 -500h-228l92 504zM488 1855q0 60 40.5 101.5t100 41.5t101 -41.5t41.5 -101.5t-41.5 -101t-101 -41t-100 41t-40.5 101zM922 1855q0 60 42 101.5t101 41.5t100.5 -41.5t41.5 -101.5t-41.5 -101 t-100.5 -41t-101 41t-42 101z" />
<glyph unicode="&#x2c6;" horiz-adv-x="1326" d="M364 1272l294 368h297l169 -368h-208l-119 212l-192 -212h-241z" />
<glyph unicode="&#x2dc;" horiz-adv-x="1326" d="M362 1284q21 147 95.5 223t183.5 76q77 0 156 -54.5t108 -54.5q79 0 89 107h193q-24 -147 -99.5 -222t-182.5 -75q-59 0 -109 26.5t-87.5 53t-65.5 26.5q-79 0 -92 -106h-189z" />
<glyph unicode="&#x2000;" horiz-adv-x="1087" />
<glyph unicode="&#x2001;" horiz-adv-x="2175" />
<glyph unicode="&#x2002;" horiz-adv-x="1087" />
<glyph unicode="&#x2003;" horiz-adv-x="2175" />
<glyph unicode="&#x2004;" horiz-adv-x="725" />
<glyph unicode="&#x2005;" horiz-adv-x="543" />
<glyph unicode="&#x2006;" horiz-adv-x="362" />
<glyph unicode="&#x2007;" horiz-adv-x="362" />
<glyph unicode="&#x2008;" horiz-adv-x="271" />
<glyph unicode="&#x2009;" horiz-adv-x="435" />
<glyph unicode="&#x200a;" horiz-adv-x="120" />
<glyph unicode="&#x2010;" horiz-adv-x="1059" d="M110 498l37 209h794l-36 -209h-795z" />
<glyph unicode="&#x2011;" horiz-adv-x="1059" d="M110 498l37 209h794l-36 -209h-795z" />
<glyph unicode="&#x2012;" horiz-adv-x="1059" d="M110 498l37 209h794l-36 -209h-795z" />
<glyph unicode="&#x2013;" horiz-adv-x="1311" d="M110 498l37 209h1046l-39 -209h-1044z" />
<glyph unicode="&#x2014;" horiz-adv-x="1797" d="M110 498l37 209h1532l-37 -209h-1532z" />
<glyph unicode="&#x2018;" horiz-adv-x="498" d="M219 1397q0 97 66.5 210.5t157.5 194.5l149 -109q-104 -93 -147 -175q85 -40 85 -132q0 -63 -44.5 -108t-110.5 -45t-111 48t-45 116z" />
<glyph unicode="&#x2019;" horiz-adv-x="514" d="M185 1114q104 93 147 175q-88 40 -87 132q0 63 46 108t112 45t110.5 -47t44.5 -115q0 -100 -66 -211.5t-157 -192.5z" />
<glyph unicode="&#x201a;" horiz-adv-x="516" d="M-47 -213q98 87 147 175q-88 40 -88 132q0 63 45 109.5t111 46.5t110.5 -48.5t44.5 -116.5q0 -100 -65 -211.5t-158 -192.5z" />
<glyph unicode="&#x201c;" horiz-adv-x="913" d="M219 1397q0 97 66.5 210.5t157.5 194.5l149 -109q-104 -93 -147 -175q85 -40 85 -132q0 -63 -44.5 -108t-110.5 -45t-111 47.5t-45 116.5zM634 1397q0 97 66 210.5t158 194.5l150 -109q-104 -91 -150 -175q87 -40 87 -132q0 -61 -44.5 -107t-110.5 -46t-111 48t-45 116z " />
<glyph unicode="&#x201d;" horiz-adv-x="927" d="M185 1114q104 93 147 175q-88 40 -87 132q0 63 46 108t112 45t110.5 -47t44.5 -115q0 -100 -66 -211.5t-157 -192.5zM598 1114q98 85 150 175q-88 40 -88 132q0 63 45 108t111 45t110.5 -47t44.5 -115q0 -100 -66 -211.5t-157 -192.5z" />
<glyph unicode="&#x201e;" horiz-adv-x="934" d="M-47 -213q98 87 147 175q-88 40 -88 132q0 63 45 109.5t111 46.5t110.5 -48.5t44.5 -116.5q0 -100 -65 -211.5t-158 -192.5zM370 -213q98 87 148 175q-87 40 -87 132q0 63 45.5 109.5t111.5 46.5t111 -48.5t45 -116.5q0 -100 -66 -211.5t-158 -192.5z" />
<glyph unicode="&#x2022;" horiz-adv-x="932" d="M162 711q0 130 92.5 222.5t222.5 92.5t222.5 -92.5t92.5 -222.5q0 -132 -92.5 -224.5t-222.5 -92.5t-222.5 93.5t-92.5 223.5z" />
<glyph unicode="&#x2026;" horiz-adv-x="1490" d="M12 98q0 62 45 107t107 45q60 0 104.5 -45t44.5 -107q0 -60 -43.5 -104.5t-105.5 -44.5t-107 43.5t-45 105.5zM500 98q0 62 45 107t107 45q59 0 104 -45t45 -107q0 -60 -45 -104.5t-104 -44.5q-61 0 -106.5 43.5t-45.5 105.5zM1006 98q0 61 44.5 106.5t103.5 45.5 q62 0 106.5 -45t44.5 -107t-44.5 -105.5t-106.5 -43.5q-59 0 -103.5 44.5t-44.5 104.5z" />
<glyph unicode="&#x202f;" horiz-adv-x="435" />
<glyph unicode="&#x2039;" horiz-adv-x="657" d="M71 561l315 417h246l-336 -443l168 -431h-219z" />
<glyph unicode="&#x203a;" horiz-adv-x="657" d="M-4 104l336 443l-168 431h218l176 -456l-316 -418h-246z" />
<glyph unicode="&#x205f;" horiz-adv-x="543" />
<glyph unicode="&#x20ac;" horiz-adv-x="1437" d="M34 488l29 177h154q0 81 17 170h-140l32 177h159q98 236 305 374.5t460 138.5q137 0 257 -37t195 -100l-120 -189q-148 113 -343 113q-156 0 -290.5 -80t-213.5 -220h566l-32 -177h-607q-17 -75 -21 -170h598l-31 -177h-544q42 -136 148 -224.5t255 -88.5q177 0 381 128 l20 -230q-183 -110 -414 -111q-260 0 -419.5 148t-202.5 378h-198z" />
<glyph unicode="&#x2122;" horiz-adv-x="1441" d="M207 1346l27 145h503l-28 -145h-172l-75 -432h-155l77 432h-177zM722 914l103 577h148l102 -255l197 255h163l-100 -577h-155l32 185l40 167l-63 -84l-112 -153h-59l-57 153l-32 88l-22 -171l-31 -185h-154z" />
<glyph unicode="&#x25fc;" horiz-adv-x="1064" d="M0 0v1065h1065v-1065h-1065z" />
<glyph unicode="&#xfb03;" horiz-adv-x="2163" d="M89 862l35 203h204l24 132q32 187 144.5 282t272.5 95q117 0 268 -64l-74 -200q-102 45 -188 45q-171 0 -206 -192l-18 -98h520l22 126q34 195 156.5 291.5t296.5 96.5q228 0 415 -73l-73 -201q-151 59 -337 61q-201 0 -244 -222l-14 -79h735l-124 -697l-12 -89 q-11 -64 20 -95t102 -11l12 -169q-201 -53 -291.5 29t-66.5 244l15 91l87 494h-512l-152 -862h-224l153 862h-519l-156 -862h-220l152 862h-203z" />
</font>
</defs>
</svg>
