<?xml version="1.0" standalone="no"?>
<!DOCTYPE svg PUBLIC "-//W3C//DTD SVG 1.1//EN" "http://www.w3.org/Graphics/SVG/1.1/DTD/svg11.dtd" >
<svg xmlns="http://www.w3.org/2000/svg" xmlns:xlink="http://www.w3.org/1999/xlink" version="1.1">
<metadata></metadata>
<defs>
<font id="xxiigeom-bolduploaded_file" horiz-adv-x="1333" >
<font-face units-per-em="2048" ascent="1532" descent="-516" />
<missing-glyph horiz-adv-x="561" />
<glyph unicode="&#xfb01;" horiz-adv-x="1413" d="M57 803v262h183v100q0 213 122 329t345 116q196 0 405 -81l-51 -281q-203 85 -348 85q-87 0 -132.5 -44.5t-45.5 -123.5v-100h743v-1065h-294v803h-449v-803h-297l2 803h-183z" />
<glyph unicode="&#xfb02;" horiz-adv-x="1413" d="M57 803v262h183v94q0 225 136 356t363 131q256 0 535 -134v-1512h-294v1327q-128 43 -232 43q-100 0 -156.5 -59t-56.5 -161v-85h240v-262h-240v-803h-297l2 803h-183z" />
<glyph horiz-adv-x="0" />
<glyph unicode="&#xd;" horiz-adv-x="708" />
<glyph unicode=" "  horiz-adv-x="561" />
<glyph unicode="&#x09;" horiz-adv-x="561" />
<glyph unicode="&#xa0;" horiz-adv-x="561" />
<glyph unicode="!" horiz-adv-x="614" d="M120 130q0 77 56 133t135 56t135 -56t56 -133q0 -79 -56 -135t-135 -56t-135 56t-56 135zM147 1504h317l-38 -1065h-243z" />
<glyph unicode="&#x22;" horiz-adv-x="937" d="M110 1563h292l-26 -575h-240zM535 1563h292l-26 -575h-240z" />
<glyph unicode="#" horiz-adv-x="1577" d="M59 328l69 247h219l79 299h-237l71 246h228l85 329h268l-83 -329h262l86 329h268l-83 -329h225l-67 -246h-222l-77 -299h236l-69 -247h-231l-82 -328h-271l84 328h-264l-82 -328h-270l84 328h-226zM618 575h262l77 299h-262z" />
<glyph unicode="$" horiz-adv-x="1228" d="M69 124l78 307q113 -82 243 -132.5t240 -50.5q88 0 149.5 44.5t61.5 112.5q0 61 -76.5 109.5t-186 92t-219 98.5t-186.5 156.5t-77 239.5q0 158 107.5 267.5t282.5 141.5v196h292v-198q185 -36 346 -140l-83 -288q-83 57 -209.5 106.5t-230.5 49.5q-81 0 -135.5 -36.5 t-54.5 -96.5q0 -61 77 -111.5t186.5 -94t220.5 -98.5t187.5 -155.5t76.5 -236.5q0 -167 -104.5 -279.5t-276.5 -151.5v-208h-292v200q-226 30 -417 156z" />
<glyph unicode="%" horiz-adv-x="2126" d="M63 1095q0 179 120 299t298.5 120t298 -120t119.5 -299q0 -181 -118.5 -301.5t-299 -120.5t-299.5 120.5t-119 301.5zM317 1095q0 -77 45 -130t117 -53t119.5 53t47.5 130q0 75 -47.5 128t-119.5 53t-117 -53.5t-45 -127.5zM417 0l961 1491h313l-958 -1491h-316z M1229 398q0 181 119 301.5t300 120.5t299.5 -120.5t118.5 -301.5q0 -179 -119.5 -300.5t-298 -121.5t-299 121.5t-120.5 300.5zM1482 398q0 -75 46 -128t118.5 -53t119.5 53t47 128q0 77 -46 129t-121 52q-72 0 -118 -52t-46 -129z" />
<glyph unicode="&#x26;" horiz-adv-x="1477" d="M75 413q0 87 33.5 163t91.5 127t106 81.5t99 54.5q-116 167 -115 322q0 172 128.5 282t322.5 110t322 -110t128 -289q0 -247 -350 -428l207 -255q122 120 212 253l152 -268q-83 -109 -183 -204l204 -252h-366l-59 77q-209 -128 -416 -128q-220 0 -368.5 128t-148.5 336z M382 413q0 -87 59 -134t155 -47q104 0 231 71l-254 319q-191 -83 -191 -209zM592 1144q0 -102 81 -211q219 91 219 211q0 61 -42.5 101.5t-108.5 40.5t-107.5 -40.5t-41.5 -101.5z" />
<glyph unicode="'" horiz-adv-x="512" d="M110 1563h292l-26 -575h-240z" />
<glyph unicode="(" horiz-adv-x="657" d="M97 636.5q0 566.5 197 1067.5h304q-193 -501 -193 -1067t193 -1063h-304q-197 496 -197 1062.5z" />
<glyph unicode=")" horiz-adv-x="657" d="M61 -426q192 496 192 1062.5t-192 1067.5h303q198 -501 198.5 -1067t-198.5 -1063h-303z" />
<glyph unicode="*" horiz-adv-x="943" d="M81 1216l75 229l218 -99l-22 239h240l-23 -239l219 99l74 -229l-236 -53l158 -175l-196 -142l-115 202l-117 -202l-196 142l157 175z" />
<glyph unicode="+" horiz-adv-x="1290" d="M100 486v272h412v407h272v-407h407v-272h-407v-411h-272v411h-412z" />
<glyph unicode="," horiz-adv-x="561" d="M77 -319l119 278q-107 53 -107 171q0 79 56 133t136.5 54t136 -54t55.5 -133q0 -53 -30 -126l-124 -323h-242z" />
<glyph unicode="-" horiz-adv-x="1057" d="M124 462v280h809v-280h-809z" />
<glyph unicode="." horiz-adv-x="555" d="M87 130q0 77 57 133t135 56q77 0 133.5 -56t56.5 -133q0 -79 -56.5 -135t-133.5 -56q-79 0 -135.5 56t-56.5 135z" />
<glyph unicode="/" horiz-adv-x="1034" d="M55 -128l610 1746h315l-612 -1746h-313z" />
<glyph unicode="0" horiz-adv-x="1490" d="M92 743.5q0 317.5 179.5 540t473.5 222.5t474.5 -222.5t180.5 -540t-180.5 -541t-474.5 -223.5t-473.5 223.5t-179.5 541zM394 744q0 -194 92.5 -333t259 -139t260 138.5t93.5 333.5q0 191 -93.5 329.5t-260 138.5t-259 -138.5t-92.5 -329.5z" />
<glyph unicode="1" horiz-adv-x="789" d="M59 1037v309l325 145h228v-1491h-305v1150z" />
<glyph unicode="2" horiz-adv-x="1209" d="M77 0v248l555 542q143 137 143 256q0 77 -57.5 128t-140.5 51q-166 0 -394 -173l-94 283q254 181 497 181q213 0 355.5 -128t142.5 -329q0 -224 -253 -469l-322 -315l98 12h511v-287h-1041z" />
<glyph unicode="3" horiz-adv-x="1236" d="M71 89l57 291q91 -51 219 -83.5t236 -32.5q111 0 181.5 48t70.5 133t-69 130t-178 45h-232v272h232q95 0 158 45t63 126q0 79 -64 124.5t-162 45.5q-166 0 -415 -121l-60 288q246 117 480 116q221 0 370.5 -117t149.5 -317q0 -188 -167 -316q198 -119 199 -338 q0 -211 -161.5 -331.5t-390.5 -120.5q-285 0 -517 113z" />
<glyph unicode="4" horiz-adv-x="1230" d="M49 551l345 940h322l-332 -869h315l29 439h274v-439h169v-281h-169v-341h-305v341h-622z" />
<glyph unicode="5" horiz-adv-x="1211" d="M77 85l55 291q242 -123 447 -122q116 0 189 60t73 161q0 98 -69 158t-171 60q-147 0 -252 -71l-227 134l110 735h799v-281h-552l-48 -279q91 34 201 34q216 0 363 -136t147 -354q0 -225 -157.5 -366t-398.5 -141q-252 0 -509 117z" />
<glyph unicode="6" horiz-adv-x="1248" d="M83 516q0 51 8.5 98.5t31 103t35.5 82.5t47.5 91t39.5 74l283 541h354l-203 -347l-108 -149q58 21 122 21q202 0 353 -144.5t151 -370.5q0 -228 -165 -389t-393 -161t-392 160.5t-164 389.5zM376 515.5q0 -106.5 78 -185t185 -78.5q108 0 186 78.5t78 185t-77.5 182 t-186.5 75.5q-107 0 -185 -75.5t-78 -182z" />
<glyph unicode="7" horiz-adv-x="1100" d="M53 1201v290h997v-211l-530 -1280h-341l514 1201h-640z" />
<glyph unicode="8" horiz-adv-x="1303" d="M89 456q0 234 203 361q-130 116 -130 286q0 192 143.5 313.5t346 121.5t345.5 -120.5t143 -314.5q0 -168 -128 -286q203 -132 202 -361q0 -226 -162 -362.5t-400.5 -136.5t-400.5 136.5t-162 362.5zM394 468.5q0 -100.5 75.5 -165.5t182 -65t182 65t75.5 165.5t-74.5 160 t-183 59.5t-183 -59.5t-74.5 -160zM445 1093q0 -79 60 -130t147 -51q85 0 145.5 51t60.5 130q0 81 -59.5 129t-146.5 48t-147 -48.5t-60 -128.5z" />
<glyph unicode="9" horiz-adv-x="1250" d="M53 980q0 227 165.5 388t390.5 161q228 0 393 -161t165 -388q0 -51 -8.5 -100t-30.5 -101.5t-36.5 -83t-46 -89.5t-39.5 -76l-284 -540h-354l203 347l108 147q-57 -19 -121 -20q-202 0 -353.5 145t-151.5 371zM347 980q0 -106 77.5 -182t184.5 -76q109 0 187 76t78 182 t-78 185t-187 79q-106 0 -184 -79t-78 -185z" />
<glyph unicode=":" horiz-adv-x="621" d="M120 130q0 77 56 133t135 56t135 -56t56 -133q0 -79 -56 -135t-135 -56t-135 56t-56 135zM120 839q0 79 56 135.5t135 56.5t135 -56.5t56 -135.5q0 -77 -56 -133t-135 -56t-135 56t-56 133z" />
<glyph unicode=";" horiz-adv-x="626" d="M108 -319l120 278q-108 53 -108 171q0 79 56 133t137 54q79 0 135 -54t56 -133q0 -53 -29 -126l-123 -323h-244zM120 839q0 79 56 135.5t135 56.5t135 -56.5t56 -135.5q0 -77 -56 -133t-135 -56t-135 56t-56 133z" />
<glyph unicode="&#x3c;" horiz-adv-x="1290" d="M136 437v343l978 356l-2 -290l-699 -239l699 -239l2 -289z" />
<glyph unicode="=" horiz-adv-x="1290" d="M100 242v274h1091v-274h-1091zM100 726v270h1091v-270h-1091z" />
<glyph unicode="&#x3e;" horiz-adv-x="1290" d="M177 79l2 289l699 239l-699 239l-2 290l977 -356v-343z" />
<glyph unicode="?" horiz-adv-x="1089" d="M61 1384q247 165 492 165q201 0 338.5 -113t137.5 -294q0 -98 -44 -180t-107 -140t-125 -112t-106 -122t-44 -149l-300 -2q0 126 43.5 224.5t105.5 157.5t123 105.5t105 95.5t44 104q0 66 -53 104t-130 38q-102 0 -221 -58t-192 -113zM268 130q0 77 57 133t135 56 q77 0 133.5 -56t56.5 -133q0 -79 -56.5 -135t-133.5 -56q-79 0 -135.5 56t-56.5 135z" />
<glyph unicode="@" horiz-adv-x="2112" d="M81 535q0 408 290.5 696.5t701.5 288.5q405 0 677 -258t272 -621q0 -241 -128 -417.5t-329 -176.5q-95 0 -166.5 44.5t-103.5 117.5q-57 -81 -147.5 -123.5t-180.5 -42.5q-185 0 -303.5 133t-118.5 314q0 219 140 368.5t339 149.5q90 0 168 -33.5t118 -82.5l11 84h246 l-65 -527q-9 -70 12.5 -113.5t72.5 -43.5q81 0 133 107t52 242q0 258 -198 445.5t-501 187.5q-307 0 -525 -216.5t-218 -523t218 -524t525 -217.5q226 0 433 156l89 -254q-81 -53 -221.5 -99.5t-300.5 -46.5q-411 0 -701.5 287.5t-290.5 698.5zM803 492q0 -85 55.5 -147 t155.5 -62q69 0 133.5 35.5t98.5 81.5l30 254q-75 118 -213 117q-118 0 -189 -77.5t-71 -201.5z" />
<glyph unicode="A" horiz-adv-x="1479" d="M26 0l541 1500h347l541 -1500h-319l-97 277h-598l-96 -277h-319zM537 549h406l-161 463l-40 163l-43 -163z" />
<glyph unicode="B" horiz-adv-x="1424" d="M168 0v1491h649q218 0 350 -118.5t132 -297.5q0 -201 -161 -315q193 -104 193 -325q0 -196 -135 -315.5t-363 -119.5h-665zM473 281h344q94 0 150.5 49.5t56.5 118.5q0 75 -52 124t-165 49l2 130v12l-2 -142h-334v-341zM473 882h334q85 0 136 49t51 117q0 66 -54 115 t-139 49h-328v-330z" />
<glyph unicode="C" horiz-adv-x="1343" d="M83 743q0 328 219.5 555t547.5 227q260 0 432 -102l-57 -309q-158 115 -371 115q-196 0 -331 -143t-135 -340q0 -196 135 -342t331 -146q213 0 371 114l57 -309q-158 -101 -432 -101q-328 0 -547.5 226.5t-219.5 554.5z" />
<glyph unicode="D" horiz-adv-x="1549" d="M168 0v1491h537q326 0 543 -212t217 -536t-216 -533.5t-544 -209.5h-537zM473 292h232q196 0 326 128.5t130 324.5t-129 325t-325 129h-234v-907z" />
<glyph unicode="E" horiz-adv-x="1343" d="M168 0v1491h1078v-288h-773v-317h675v-270h-675v-329h773v-287h-1078z" />
<glyph unicode="F" horiz-adv-x="1277" d="M168 0v1491h1031v-288h-726v-351h622v-277h-622v-575h-305z" />
<glyph unicode="G" horiz-adv-x="1526" d="M83 743q0 334 222.5 558t558.5 224q248 0 457 -102l-63 -295q-187 104 -394 105q-203 0 -340.5 -144t-137.5 -344t138 -347.5t340 -147.5q153 0 262 73v271h-327v266h630v-687q-106 -96 -259.5 -153.5t-305.5 -57.5q-337 0 -559 223.5t-222 557.5z" />
<glyph unicode="H" horiz-adv-x="1597" d="M168 0v1491h305v-597h651v597h305v-1491h-305v607h-651v-607h-305z" />
<glyph unicode="I" horiz-adv-x="640" d="M168 0v1491h305v-1491h-305z" />
<glyph unicode="J" horiz-adv-x="1122" d="M34 59l62 301q146 -98 306 -98q114 0 188.5 76.5t74.5 191.5v961h304v-961q0 -253 -156.5 -408.5t-410.5 -155.5q-217 0 -368 93z" />
<glyph unicode="K" horiz-adv-x="1439" d="M168 0v1491h305v-556l-9 -175l119 175l425 556h385l-521 -656l595 -835h-374l-418 594l-202 -230v-364h-305z" />
<glyph unicode="L" horiz-adv-x="1196" d="M168 0v1491h305v-1204h677v-287h-982z" />
<glyph unicode="M" horiz-adv-x="1856" d="M168 0v1491h352l409 -771l408 771h352v-1491h-305v782l4 247l-122 -247l-235 -437h-204l-235 437l-121 244l2 -244v-782h-305z" />
<glyph unicode="N" horiz-adv-x="1644" d="M168 0v1491h265l749 -973l-11 161v812h305v-1491h-262l-750 973l9 -153v-820h-305z" />
<glyph unicode="O" horiz-adv-x="1697" d="M83 743q0 330 220.5 556t546 226t545 -226t219.5 -556t-219.5 -555.5t-545 -225.5t-546 225.5t-220.5 555.5zM388 743q0 -202 132 -345.5t330 -143.5q195 0 327.5 143.5t132.5 345.5t-132.5 346t-327.5 144q-198 0 -330 -144t-132 -346z" />
<glyph unicode="P" horiz-adv-x="1392" d="M168 0v1491h635q223 0 376.5 -149t153.5 -370.5t-153.5 -370t-376.5 -148.5h-330v-453h-305zM473 739h330q93 0 162.5 69.5t69.5 162.5q0 96 -69.5 165t-162.5 69h-330v-466z" />
<glyph unicode="Q" horiz-adv-x="1697" d="M83 743q0 330 220.5 556t546 226t545 -226t219.5 -555q0 -196 -81.5 -362.5t-227.5 -273.5l248 -419h-371l-160 292q-83 -18 -172 -19q-326 0 -546.5 225.5t-220.5 555.5zM388 743q0 -202 132 -345.5t330 -143.5q195 0 327.5 143.5t132.5 345.5t-132 346t-328 144 q-198 0 -330 -144t-132 -346z" />
<glyph unicode="R" horiz-adv-x="1435" d="M168 0v1491h665q211 0 353.5 -137.5t142.5 -345.5q0 -147 -75.5 -261.5t-203.5 -169.5l324 -577h-348l-280 532h-273v-532h-305zM473 807h360q81 0 139.5 59t58.5 139.5t-58.5 139t-139.5 58.5h-360v-396z" />
<glyph unicode="S" horiz-adv-x="1240" d="M75 124l76 307q260 -183 485 -183q88 0 150 44.5t62 112.5q0 61 -76.5 109.5t-186.5 92t-220.5 98.5t-187.5 156.5t-77 239.5q0 190 149 306t375 116q279 0 506 -155l-82 -288q-87 57 -213 106.5t-228 49.5q-81 0 -135.5 -36.5t-54.5 -96.5q0 -61 77 -111.5t186.5 -94 t220.5 -98.5t187.5 -155.5t76.5 -236.5q0 -205 -153.5 -326.5t-391.5 -121.5q-292 0 -545 165z" />
<glyph unicode="T" horiz-adv-x="1315" d="M49 1197v294h1217v-294h-457v-1197h-305v1197h-455z" />
<glyph unicode="U" horiz-adv-x="1535" d="M153 588v903h305v-903q0 -137 88 -229.5t220 -92.5q135 0 223 92.5t88 229.5v903h305v-903q0 -271 -172.5 -442.5t-443 -171.5t-442 171.5t-171.5 442.5z" />
<glyph unicode="V" horiz-adv-x="1439" d="M32 1491h330l298 -926l60 -248l62 248l298 926h328l-512 -1493h-353z" />
<glyph unicode="W" horiz-adv-x="2071" d="M49 1491h333l183 -845l59 -292l73 292l185 704h309l185 -704l73 -294l61 294l181 845h333l-361 -1491h-381l-183 648l-62 281l-64 -281l-183 -648h-381z" />
<glyph unicode="X" horiz-adv-x="1392" d="M-4 0l502 769l-466 722h362l249 -400l54 -97l51 97l248 400h370l-474 -722l501 -769h-362l-283 449l-51 96l-54 -96l-279 -449h-368z" />
<glyph unicode="Y" horiz-adv-x="1378" d="M15 1491h337l296 -590l43 -104l39 102l296 592h337l-520 -1007v-484h-308v488z" />
<glyph unicode="Z" horiz-adv-x="1250" d="M89 0v207l671 1007l-75 -11h-596v288h1072v-207l-671 -1007l75 10h596v-287h-1072z" />
<glyph unicode="[" horiz-adv-x="768" d="M166 -426v2130h537v-288h-243v-1554h243v-288h-537z" />
<glyph unicode="\" horiz-adv-x="1034" d="M55 1618h313l612 -1746h-315z" />
<glyph unicode="]" horiz-adv-x="768" d="M69 -138h242v1554h-242v288h534v-2130h-534v288z" />
<glyph unicode="^" horiz-adv-x="1290" d="M138 748l335 741h342l337 -741h-288l-218 510l-222 -510h-286z" />
<glyph unicode="_" horiz-adv-x="1266" d="M104 -4h1059v-279h-1059v279z" />
<glyph unicode="`" horiz-adv-x="677" d="M63 1646h363l188 -392h-273z" />
<glyph unicode="a" d="M75 532q0 232 141.5 398.5t358.5 166.5q104 0 195.5 -43.5t145.5 -118.5v130h281v-1065h-281v130q-53 -75 -146 -119.5t-195 -44.5q-217 0 -358.5 168.5t-141.5 397.5zM368 532.5q0 -117.5 78 -202.5t190 -85q169 0 271 139v297q-100 136 -271 136q-113 0 -190.5 -83.5 t-77.5 -201z" />
<glyph unicode="b" horiz-adv-x="1331" d="M134 0v1512h297v-494l-12 -81q53 73 145 116.5t194 43.5q218 0 359 -166.5t141 -398.5q0 -229 -141 -397.5t-359 -168.5q-102 0 -194.5 44.5t-146.5 119.5v-130h-283zM426 384q102 -139 271 -139q113 0 190.5 85t77.5 202.5t-78 201t-190 83.5q-171 0 -271 -136v-297z " />
<glyph unicode="c" horiz-adv-x="1061" d="M73 528q0 243 166 409t411 166q205 0 342 -91l-53 -286q-75 49 -135 70t-150 21q-122 0 -205 -84.5t-83 -204t83 -203t205 -83.5q90 0 151 23t136 72l51 -288q-153 -94 -342 -94q-245 0 -411 164t-166 409z" />
<glyph unicode="d" d="M75 532q0 232 141.5 398.5t358.5 166.5q104 0 195.5 -43.5t145.5 -118.5v4l-13 79v494h294v-1512h-281v130q-53 -75 -146 -119.5t-195 -44.5q-217 0 -358.5 168.5t-141.5 397.5zM368 532.5q0 -117.5 78 -202.5t190 -85q169 0 271 139v297q-100 136 -271 136 q-113 0 -190.5 -83.5t-77.5 -201z" />
<glyph unicode="e" horiz-adv-x="1268" d="M73 530q0 243 164.5 409.5t408.5 166.5q247 0 405.5 -157t158.5 -376q0 -85 -15 -156h-821q28 -96 109.5 -149t201.5 -53q167 0 346 117l46 -283q-168 -96 -389 -96q-282 0 -448.5 164t-166.5 413zM372 632h542q-21 102 -90.5 159t-177.5 57q-102 0 -176 -59t-98 -157z " />
<glyph unicode="f" horiz-adv-x="832" d="M57 803v262h183v102q0 209 116.5 323t316.5 114q113 0 247 -43l-51 -270q-95 36 -178 36q-71 0 -113.5 -44.5t-42.5 -115.5v-102h262v-262h-262v-803h-297l2 803h-183z" />
<glyph unicode="g" d="M75 532q0 232 141.5 398.5t358.5 166.5q104 0 195.5 -43.5t145.5 -118.5v130h281v-1067q0 -250 -153.5 -394.5t-411.5 -144.5q-200 0 -443 115l61 286q204 -126 380 -126q124 0 201.5 75.5t77.5 196.5v116q-55 -71 -144.5 -113.5t-189.5 -42.5q-217 0 -358.5 168.5 t-141.5 397.5zM368 532.5q0 -117.5 78 -202.5t190 -85q169 0 271 139v297q-100 136 -271 136q-113 0 -190.5 -83.5t-77.5 -201z" />
<glyph unicode="h" horiz-adv-x="1326" d="M134 -2v1512h297v-590q136 175 359 175q186 0 298.5 -127t112.5 -318v-650h-294v596q0 100 -51 160.5t-147 60.5q-77 0 -158.5 -56t-115.5 -135l-2 -626h-2v-2h-297z" />
<glyph unicode="i" horiz-adv-x="563" d="M100 1412q0 75 53.5 127t129.5 52q75 0 129.5 -53.5t54.5 -125.5q0 -75 -54.5 -128t-129.5 -53q-77 0 -130 53t-53 128zM134 0v1065h297v-1065h-297z" />
<glyph unicode="j" horiz-adv-x="563" d="M-100 -522l2 282q232 0 232 238v1067h297l-3 -1067q0 -520 -528 -520zM102 1412q0 73 54.5 126t129 53t129 -53.5t54.5 -125.5q0 -75 -54.5 -128t-129 -53t-129 53t-54.5 128z" />
<glyph unicode="k" horiz-adv-x="1205" d="M134 0v1512h297v-752l-16 -191l120 159l276 337h369l-400 -462l438 -603h-364l-266 376l-157 -180v-196h-297z" />
<glyph unicode="l" horiz-adv-x="574" d="M140 0v1512h295v-1512h-295z" />
<glyph unicode="m" horiz-adv-x="1937" d="M134 0v1065h283l2 -132q108 162 305 162q217 0 333 -186q57 85 150 135.5t197 50.5q171 0 291 -122.5t120 -293.5v-679h-297v618q0 87 -52 143t-131 56q-68 0 -127.5 -50.5t-87.5 -130.5v-636h-291v618q0 91 -42.5 145t-121.5 54q-71 0 -137 -49.5t-97 -126.5v-641h-297z " />
<glyph unicode="n" horiz-adv-x="1321" d="M134 0v1065h283l2 -151q64 85 161.5 133t205.5 48q185 0 298 -127t113 -318v-650h-294v596q0 100 -51 160.5t-147 60.5q-77 0 -157.5 -56t-116.5 -135v-626h-297z" />
<glyph unicode="o" horiz-adv-x="1298" d="M73 530.5q0 240.5 167 408t409.5 167.5t410 -167.5t167.5 -408t-167.5 -408t-410 -167.5t-409.5 167.5t-167 408zM364 532.5q0 -121.5 83 -209t203 -87.5q118 0 200.5 87.5t82.5 208.5q0 120 -82.5 206.5t-200.5 86.5q-122 0 -204 -85.5t-82 -207z" />
<glyph unicode="p" horiz-adv-x="1331" d="M134 -447v1512h283v-130q53 75 145 118.5t196 43.5q218 0 359 -166.5t141 -398.5q0 -229 -141 -397.5t-359 -168.5q-100 0 -192.5 44.5t-146.5 117.5l12 -85v-490h-297zM426 384q102 -139 271 -139q113 0 190.5 85t77.5 202.5t-78 201t-190 83.5q-171 0 -271 -136v-297z " />
<glyph unicode="q" d="M75 532q0 232 141.5 398.5t358.5 166.5q104 0 195.5 -43.5t145.5 -118.5v130h281v-1512h-294v494l11 81q-53 -75 -145 -118.5t-194 -43.5q-217 0 -358.5 168.5t-141.5 397.5zM368 532.5q0 -117.5 78 -202.5t190 -85q169 0 271 139v297q-100 136 -271 136 q-113 0 -190.5 -83.5t-77.5 -201z" />
<glyph unicode="r" horiz-adv-x="917" d="M134 0v1065h283l2 -183q55 100 144 158.5t185 58.5q93 0 155 -34l-49 -281q-67 31 -134 31h-4q-88 0 -168.5 -63.5t-116.5 -150.5v-601h-297z" />
<glyph unicode="s" horiz-adv-x="1008" d="M79 49l45 266q200 -102 376 -102q64 0 105 24.5t41 67.5q0 38 -58 67.5t-141 56.5t-166 63t-140.5 107.5t-57.5 171.5q0 146 121.5 239t304.5 93q221 0 387 -83l-46 -262q-171 94 -341 94q-135 0 -135 -77q0 -39 58 -66.5t141 -53t166.5 -62.5t140.5 -111.5t57 -180.5 q0 -153 -128 -246t-309 -93q-200 0 -421 87z" />
<glyph unicode="t" horiz-adv-x="908" d="M45 803v262h183v307h294v-307h319v-262h-319v-429q0 -53 32 -84.5t85 -31.5q91 0 174 47l49 -271q-106 -59 -248 -60q-183 0 -284.5 102.5t-101.5 293.5v433h-183z" />
<glyph unicode="u" horiz-adv-x="1321" d="M124 415v650h295v-596q0 -100 51.5 -160.5t147.5 -60.5q77 0 157.5 56t116.5 135v626h295v-1065h-282l-2 151q-64 -85 -160.5 -133t-205.5 -48q-185 0 -299 127t-114 318z" />
<glyph unicode="v" horiz-adv-x="1209" d="M30 1065h334l194 -601l47 -181l47 184l194 598h334l-420 -1071h-311z" />
<glyph unicode="w" horiz-adv-x="1742" d="M41 1065h321l130 -571l36 -207l47 209l183 569h226l183 -565l47 -213l38 215l128 563h321l-313 -1071h-302l-183 534l-31 137l-33 -137l-181 -534h-304z" />
<glyph unicode="x" horiz-adv-x="1154" d="M15 0l369 532l-352 533h348l148 -245l43 -85l43 85l157 245h349l-354 -504l376 -561h-350l-166 268l-40 81l-43 -81l-181 -268h-347z" />
<glyph unicode="y" horiz-adv-x="1201" d="M36 1065h332l199 -605l36 -137l36 137l204 605h332l-594 -1512h-329l189 447z" />
<glyph unicode="z" horiz-adv-x="1109" d="M83 0v193l529 616l-63 -8h-457v264h926v-193l-526 -616l59 8h475v-264h-943z" />
<glyph unicode="{" horiz-adv-x="809" d="M30 498v282q94 0 148 54t54 148v221q0 501 510 501v-285q-222 0 -222 -220v-221q0 -230 -138 -339q138 -109 138 -338v-222q0 -219 222 -219v-286q-509 0 -510 495v227q0 94 -54 148t-148 54z" />
<glyph unicode="|" horiz-adv-x="626" d="M166 -405v1896h294v-1896h-294z" />
<glyph unicode="}" horiz-adv-x="809" d="M69 -140q219 0 218 219v222q0 229 139 338q-138 108 -139 339v221q0 220 -218 220v285q508 0 508 -501v-221q0 -94 54 -148t149 -54v-282q-94 0 -148.5 -54t-54.5 -148v-227q0 -494 -508 -495v286z" />
<glyph unicode="~" horiz-adv-x="1290" d="M102 681q24 26 56.5 50.5t104.5 51t148 26.5q83 0 234.5 -56t234.5 -56q100 0 202 95l107 -251q-24 -24 -57 -48t-104 -51t-148 -27q-83 0 -234.5 56.5t-234.5 56.5q-21 0 -42.5 -3t-39.5 -11t-32 -14t-29.5 -18.5t-22.5 -18t-20.5 -18t-15.5 -12.5z" />
<glyph unicode="&#xa1;" horiz-adv-x="589" d="M100 927q0 77 56.5 133t135 56t135.5 -56t57 -133q0 -79 -57 -135.5t-135.5 -56.5t-135 56.5t-56.5 135.5zM138 -447l39 1065h242l37 -1065h-318z" />
<glyph unicode="&#xa2;" horiz-adv-x="1102" d="M83 744q0 191 112 341.5t291 205.5v200h292v-184q126 -16 228 -82l-54 -286q-75 49 -134.5 70.5t-152.5 21.5q-120 0 -204.5 -84.5t-84.5 -203.5t84.5 -202t204.5 -83q91 0 151.5 21t135.5 70l54 -287q-114 -63 -228 -83v-179h-292v193q-179 56 -291 205t-112 346z" />
<glyph unicode="&#xa3;" horiz-adv-x="1317" d="M89 620v266h165v132q0 240 139 372.5t382 132.5q258 0 424 -88l-43 -287q-178 90 -353 90q-246 0 -245 -246v-106h471v-266h-471v-141q0 -123 -52 -207l106 13h624v-285h-1089v213q65 47 86 111t21 155v141h-165z" />
<glyph unicode="&#xa4;" horiz-adv-x="1380" d="M94 337l174 175q-61 113 -61 236q0 128 63 238l-174 175l183 183l174 -175q114 61 240 62q130 0 236 -62l174 175l181 -181l-172 -175q63 -114 63 -240q0 -128 -63 -239l172 -172l-181 -184l-174 173q-114 -62 -236 -62q-128 0 -244 64l-172 -175zM449 748 q0 -102 70.5 -175t173.5 -73q97 0 168.5 74t71.5 174t-71.5 173t-168.5 73q-102 0 -173 -72t-71 -174z" />
<glyph unicode="&#xa5;" horiz-adv-x="1386" d="M55 1491h337l256 -518l45 -101l44 101l257 518h335l-370 -688h208v-202h-317v-130h317v-203h-317v-268h-309v268h-324v203h324v130h-324v202h214z" />
<glyph unicode="&#xa6;" horiz-adv-x="621" d="M164 362h294v-767h-294v767zM164 724v767h294v-767h-294z" />
<glyph unicode="&#xa7;" horiz-adv-x="1232" d="M75 549q0 205 212 325q-156 119 -155 293q0 185 137.5 287.5t350.5 102.5q249 0 466 -96l-57 -283q-209 100 -409 100q-88 0 -134.5 -30t-46.5 -81q0 -45 53 -85.5t133 -70t172.5 -72.5t172.5 -90.5t133 -128.5t53 -183q0 -204 -213 -324q156 -121 156 -294 q0 -185 -138 -288.5t-352 -103.5q-242 0 -464 99l58 280q213 -97 406 -97q181 0 181 110q0 45 -53.5 85.5t-132 70t-172 72t-172.5 90.5t-132 129t-53 183zM398 553.5q0 -53.5 60 -92.5t185 -93q93 17 141.5 64t48.5 100q0 37 -38.5 72t-80 56t-128.5 58q-94 -17 -141 -64 t-47 -100.5z" />
<glyph unicode="&#xa8;" horiz-adv-x="939" d="M63 1423q0 73 52.5 125t126.5 52q73 0 125 -52t52 -125t-52 -125t-125 -52q-75 0 -127 52t-52 125zM518 1423q0 73 52 125t126.5 52t127 -52t52.5 -125t-52.5 -125t-127 -52t-126.5 52t-52 125z" />
<glyph unicode="&#xa9;" horiz-adv-x="1829" d="M87 746q0 343 243 585.5t585.5 242.5t585.5 -242.5t243 -585.5q0 -346 -242.5 -586.5t-585.5 -240.5q-345 0 -587 240.5t-242 586.5zM307 745q0 -251 179 -430t430 -179t429 179t178 430t-178 431.5t-429 180.5t-430 -180.5t-179 -431.5zM520 745.5q0 172.5 119 293 t296 120.5q128 0 232 -66l-53 -219q-81 55 -175 55q-81 0 -132 -51t-51 -132q0 -79 51 -131t132 -52q71 0 175 55l51 -226q-104 -59 -230 -60q-177 0 -296 120.5t-119 293z" />
<glyph unicode="&#xaa;" horiz-adv-x="915" d="M75 1152.5q0 142.5 93.5 247t231.5 104.5q143 0 207 -90v75h177v-669h-175l-2 70q-20 -32 -74 -60.5t-133 -28.5q-138 0 -231.5 104.5t-93.5 247zM264 1154.5q0 -74.5 49 -128t122 -53.5q105 0 166 88v185q-61 87 -166 87q-73 0 -122 -52t-49 -126.5z" />
<glyph unicode="&#xab;" horiz-adv-x="1319" d="M113 541l245 437h296l-249 -437l249 -437h-296zM648 541l244 437h297l-250 -437l250 -437h-297z" />
<glyph unicode="&#xac;" horiz-adv-x="1290" d="M79 486v272h1114v-594h-268v322h-846z" />
<glyph unicode="&#xad;" horiz-adv-x="1057" d="M124 462v280h809v-280h-809z" />
<glyph unicode="&#xae;" horiz-adv-x="890" d="M87 1156.5q0 150.5 103.5 254t254.5 103.5t254.5 -103.5t103.5 -254t-103.5 -254t-254.5 -103.5t-254.5 103.5t-103.5 254zM158 1156.5q0 -117.5 85 -202.5t202.5 -85t202.5 85t85 202.5t-85 203t-202.5 85.5t-202.5 -85.5t-85 -203zM315 980v364h162q53 0 89.5 -34 t36.5 -87q0 -79 -77 -109l81 -134h-87l-73 126h-57v-126h-75zM390 1173h87q21 0 36 15t15 35q0 21 -15 36t-36 15h-87v-101z" />
<glyph unicode="&#xaf;" horiz-adv-x="894" d="M63 1307v244h768v-244h-768z" />
<glyph unicode="&#xb0;" horiz-adv-x="964" d="M73 1106q0 168 120 287t290.5 119t289.5 -119t119 -287q0 -171 -119 -290t-289.5 -119t-290.5 119t-120 290zM315 1105q0 -70 49 -122t120 -52q68 0 118 52t50 123q0 68 -50 120t-118 52q-71 0 -120 -51.5t-49 -121.5z" />
<glyph unicode="&#xb1;" horiz-adv-x="1290" d="M89 825v270h411v350h273v-350h407v-270h-407v-361h-273v361h-411zM113 8v271h1090v-271h-1090z" />
<glyph unicode="&#xb2;" horiz-adv-x="804" d="M69 864v169l321 337q89 97 89 150q0 37 -27.5 61.5t-65.5 24.5q-96 0 -252 -113l-57 208q136 118 313 118q134 0 224.5 -81t90.5 -211q0 -134 -162 -289l-167 -167l52 6h307v-213h-666z" />
<glyph unicode="&#xb3;" horiz-adv-x="829" d="M66 925l38 215q140 -83 305 -83q51 0 87 25.5t36 70t-34 67t-87 22.5h-177v193h166q45 0 74.5 23.5t29.5 61.5q0 41 -29.5 65.5t-76.5 24.5q-119 0 -276 -100l-39 220q132 91 324 91q132 0 223.5 -79t91.5 -204q0 -104 -86 -183q120 -79 120 -213q0 -128 -101.5 -213.5 t-237.5 -85.5q-115 0 -212 28t-139 54z" />
<glyph unicode="&#xb4;" horiz-adv-x="677" d="M63 1254l189 392h362l-277 -392h-274z" />
<glyph unicode="&#xb6;" horiz-adv-x="1490" d="M59 1101q0 163 113 276.5t275 113.5h283v-1704h-268v922h-15q-162 0 -275 114t-113 278zM925 -213v1704h498v-275h-230v-1429h-268z" />
<glyph unicode="&#xb7;" horiz-adv-x="577" d="M98 741q0 76 56.5 133t135.5 57q77 0 133 -57t56 -133t-56 -133t-133 -57q-79 0 -135.5 57t-56.5 133z" />
<glyph unicode="&#xb8;" horiz-adv-x="555" d="M66 -394l176 394h248l-114 -394h-310z" />
<glyph unicode="&#xb9;" horiz-adv-x="583" d="M59 1449v242l209 109h181v-936h-221v672z" />
<glyph unicode="&#xba;" horiz-adv-x="870" d="M75 1152.5q0 150.5 104.5 254t257.5 103.5q151 0 255.5 -103.5t104.5 -254t-104.5 -255.5t-255.5 -105q-153 0 -257.5 105t-104.5 255.5zM258 1152q0 -75 52 -129t127 -54q73 0 125 54t52 129t-52 129t-125 54q-77 0 -128 -53t-51 -130z" />
<glyph unicode="&#xbb;" horiz-adv-x="1319" d="M113 104l247 437l-247 437h294l245 -437l-245 -437h-294zM648 104l246 437l-246 437h293l246 -437l-246 -437h-293z" />
<glyph unicode="&#xbc;" horiz-adv-x="1908" d="M73 1140v242l206 109h181v-935h-222v671zM232 0l1001 1491h279l-1000 -1491h-280zM1128 380l197 555h230l-181 -500h151l24 242h193v-242h105v-207h-105v-228h-222v228h-366z" />
<glyph unicode="&#xbd;" horiz-adv-x="1943" d="M69 1140v242l206 109h181v-935h-222v671zM226 0l1001 1491h279l-1002 -1491h-278zM1207 0v168l322 336q87 96 87 152q0 37 -27.5 61.5t-65.5 24.5q-94 0 -249 -114l-60 209q146 118 315 118q134 0 224 -81.5t90 -211.5q0 -48 -16 -94t-50.5 -89.5t-47 -57.5t-46.5 -49 l-167 -165l51 6h307v-213h-667z" />
<glyph unicode="&#xbe;" horiz-adv-x="2140" d="M79 616l41 215q140 -83 302 -83q53 0 89 25.5t36 70t-35 67t-86 22.5h-178v193h167q43 0 73 23.5t30 62.5q0 40 -30 64.5t-75 24.5q-124 0 -277 -100l-40 220q132 91 323 91q134 0 226 -77.5t92 -205.5q0 -104 -85 -185q117 -77 117 -211q0 -130 -101 -214t-237 -84 q-212 0 -352 81zM471 0l1003 1491h276l-1000 -1491h-279zM1359 380l198 555h228l-181 -500h152l24 242h192v-242h105v-207h-105v-228h-222v228h-366z" />
<glyph unicode="&#xbf;" horiz-adv-x="1079" d="M59 -83q0 98 44 180t106.5 138.5t125.5 110.5t107 122.5t44 149.5l298 4q0 -128 -43.5 -227t-104.5 -157.5t-123 -105.5t-105.5 -95.5t-43.5 -105.5q0 -63 53.5 -101.5t127.5 -38.5q102 0 223.5 58.5t190.5 112.5l67 -290q-260 -164 -491 -164q-201 0 -338.5 113 t-137.5 296zM437 927q0 79 56 135t135 56t134 -56t55 -135q0 -77 -55 -133.5t-134 -56.5t-135 56.5t-56 133.5z" />
<glyph unicode="&#xc0;" horiz-adv-x="1479" d="M26 0l541 1500h347l541 -1500h-319l-97 277h-598l-96 -277h-319zM328 2073h363l187 -392h-273zM537 549h406l-161 463l-40 163l-43 -163z" />
<glyph unicode="&#xc1;" horiz-adv-x="1479" d="M26 0l541 1500h347l541 -1500h-319l-97 277h-598l-96 -277h-319zM537 549h406l-161 463l-40 163l-43 -163zM607 1681l188 392h361l-276 -392h-273z" />
<glyph unicode="&#xc2;" horiz-adv-x="1479" d="M26 0l541 1500h347l541 -1500h-319l-97 277h-598l-96 -277h-319zM330 1681l226 392h366l228 -392h-270l-141 203l-138 -203h-271zM537 549h406l-161 463l-40 163l-43 -163z" />
<glyph unicode="&#xc3;" horiz-adv-x="1479" d="M26 0l541 1500h347l541 -1500h-319l-97 277h-598l-96 -277h-319zM313 1693q0 147 77 234t208 87q73 0 159 -42.5t115 -42.5q76 0 75 79h233q0 -146 -77 -233.5t-209 -87.5q-72 0 -158 42.5t-114 42.5q-77 0 -77 -79h-232zM537 549h406l-161 463l-40 163l-43 -163z" />
<glyph unicode="&#xc4;" horiz-adv-x="1479" d="M26 0l541 1500h347l541 -1500h-319l-97 277h-598l-96 -277h-319zM335 1848.5q0 72.5 52 125t126.5 52.5t126 -52.5t51.5 -125t-51.5 -124.5t-126 -52t-126.5 52t-52 124.5zM537 549h406l-161 463l-40 163l-43 -163zM788 1848.5q0 72.5 52 125t126.5 52.5t127 -52.5 t52.5 -125t-52.5 -124.5t-127 -52t-126.5 52t-52 124.5z" />
<glyph unicode="&#xc5;" horiz-adv-x="1479" d="M26 0l541 1500h347l541 -1500h-319l-97 277h-598l-96 -277h-319zM435 1900q0 128 88.5 215.5t216 87.5t217 -87.5t89.5 -215.5t-89.5 -215.5t-217 -87.5t-216 87.5t-88.5 215.5zM537 549h406l-161 463l-40 163l-43 -163zM632 1900q0 -45 31.5 -77t75.5 -32q47 0 78 32 t31 77t-31 76.5t-78 31.5q-44 0 -75.5 -31.5t-31.5 -76.5z" />
<glyph unicode="&#xc6;" horiz-adv-x="2075" d="M-12 0l819 1491h1174v-288h-674v-317h575v-270h-575v-329h674v-287h-973v277h-524l-154 -277h-342zM634 549h374v684l-71 -138z" />
<glyph unicode="&#xc7;" horiz-adv-x="1343" d="M83 744q0 327 219.5 554t547.5 227q260 0 432 -102l-57 -309q-158 115 -371 115q-196 0 -331 -143t-135 -340q0 -196 135 -342t331 -146q213 -1 371 114l57 -309q-117 -74 -319 -95l-107 -362h-311l164 368q-276 47 -451 263t-175 507z" />
<glyph unicode="&#xc8;" horiz-adv-x="1343" d="M168 0v1491h1078v-288h-773v-317h675v-270h-675v-329h773v-287h-1078zM311 2073h360l189 -392h-272z" />
<glyph unicode="&#xc9;" horiz-adv-x="1343" d="M168 0v1491h1078v-288h-773v-317h675v-270h-675v-329h773v-287h-1078zM588 1681l190 392h360l-276 -392h-274z" />
<glyph unicode="&#xca;" horiz-adv-x="1343" d="M168 0v1491h1078v-288h-773v-317h675v-270h-675v-329h773v-287h-1078zM311 1681l228 392h366l225 -392h-270l-138 203l-141 -203h-270z" />
<glyph unicode="&#xcb;" horiz-adv-x="1343" d="M168 0v1491h1078v-288h-773v-317h675v-270h-675v-329h773v-287h-1078zM315 1848.5q0 72.5 52 125t127 52.5t127 -52.5t52 -125t-52 -124.5t-127 -52t-127 52t-52 124.5zM771 1848.5q0 72.5 51.5 125t125.5 52.5t126 -51.5t52 -126t-52 -125.5t-126 -51t-125.5 52 t-51.5 124.5z" />
<glyph unicode="&#xcc;" horiz-adv-x="640" d="M-89 2073h361l188 -392h-273zM168 0v1491h305v-1491h-305z" />
<glyph unicode="&#xcd;" horiz-adv-x="640" d="M168 0v1491h305v-1491h-305zM189 1681l187 392h363l-277 -392h-273z" />
<glyph unicode="&#xce;" horiz-adv-x="640" d="M-89 1681l227 392h366l226 -392h-268l-141 203l-140 -203h-270zM168 0v1491h305v-1491h-305z" />
<glyph unicode="&#xcf;" horiz-adv-x="640" d="M-85 1848.5q0 72.5 52 125t126.5 52.5t126.5 -52.5t52 -125t-52 -124.5t-126.5 -52t-126.5 52t-52 124.5zM168 0v1491h305v-1491h-305zM370 1848.5q0 72.5 51.5 125t126 52.5t126.5 -51.5t52 -126t-52 -125.5t-126.5 -51t-126 52t-51.5 124.5z" />
<glyph unicode="&#xd0;" horiz-adv-x="1551" d="M73 612v262h98v617h536q328 0 545.5 -212t217.5 -536t-217.5 -533.5t-545.5 -209.5h-536v612h-98zM475 292h232q196 0 327 128.5t131 324.5t-130 325t-326 129h-234v-325h392v-262h-392v-320z" />
<glyph unicode="&#xd1;" horiz-adv-x="1644" d="M168 0v1491h265l749 -973l-11 161v812h305v-1491h-262l-750 973l9 -153v-820h-305zM405 1693q0 147 76.5 234t206.5 87q75 0 160 -42.5t113 -42.5q79 0 78 79h231q0 -146 -76 -233.5t-208 -87.5q-75 0 -159.5 42.5t-113.5 42.5q-79 0 -79 -79h-229z" />
<glyph unicode="&#xd2;" horiz-adv-x="1697" d="M83 743q0 330 220.5 556t546 226t545 -226t219.5 -556t-219.5 -555.5t-545 -225.5t-546 225.5t-220.5 555.5zM388 743q0 -202 132 -345.5t330 -143.5q195 0 327.5 143.5t132.5 345.5t-132.5 346t-327.5 144q-198 0 -330 -144t-132 -346zM437 2073h362l187 -392h-273z" />
<glyph unicode="&#xd3;" horiz-adv-x="1697" d="M83 743q0 330 220.5 556t546 226t545 -226t219.5 -556t-219.5 -555.5t-545 -225.5t-546 225.5t-220.5 555.5zM388 743q0 -202 132 -345.5t330 -143.5q195 0 327.5 143.5t132.5 345.5t-132.5 346t-327.5 144q-198 0 -330 -144t-132 -346zM716 1681l187 392h363l-278 -392 h-272z" />
<glyph unicode="&#xd4;" horiz-adv-x="1697" d="M83 743q0 330 220.5 556t546 226t545 -226t219.5 -556t-219.5 -555.5t-545 -225.5t-546 225.5t-220.5 555.5zM388 743q0 -202 132 -345.5t330 -143.5q195 0 327.5 143.5t132.5 345.5t-132.5 346t-327.5 144q-198 0 -330 -144t-132 -346zM439 1681l226 392h366l227 -392 h-270l-140 203l-141 -203h-268z" />
<glyph unicode="&#xd5;" horiz-adv-x="1697" d="M83 743q0 330 220.5 556t546 226t545 -226t219.5 -556t-219.5 -555.5t-545 -225.5t-546 225.5t-220.5 555.5zM388 743q0 -202 132 -345.5t330 -143.5q195 0 327.5 143.5t132.5 345.5t-132.5 346t-327.5 144q-198 0 -330 -144t-132 -346zM424 1693q0 147 76.5 234 t206.5 87q75 0 160 -42.5t113 -42.5q79 0 79 79h232q0 -146 -76.5 -233.5t-208.5 -87.5q-75 0 -160.5 42.5t-112.5 42.5q-79 0 -79 -79h-230z" />
<glyph unicode="&#xd6;" horiz-adv-x="1697" d="M83 743q0 330 220.5 556t546 226t545 -226t219.5 -556t-219.5 -555.5t-545 -225.5t-546 225.5t-220.5 555.5zM388 743q0 -202 132 -345.5t330 -143.5q195 0 327.5 143.5t132.5 345.5t-132.5 346t-327.5 144q-198 0 -330 -144t-132 -346zM443 1848.5q0 72.5 52 125 t127 52.5q73 0 125 -52.5t52 -125t-52 -124.5t-125 -52q-75 0 -127 52t-52 124.5zM896 1848.5q0 72.5 53 125t127 52.5t126 -52.5t52 -125t-52 -124.5t-126 -52t-127 52t-53 124.5z" />
<glyph unicode="&#xd7;" horiz-adv-x="1290" d="M162 315l291 292l-287 287l192 192l288 -287l287 287l191 -192l-287 -287l289 -292l-191 -191l-289 291l-292 -291z" />
<glyph unicode="&#xd8;" horiz-adv-x="1697" d="M83 744q0 329 220.5 555t546.5 226q158 0 300 -60l98 153h333l-199 -306q232 -225 232 -568q0 -330 -219.5 -556t-544.5 -226q-160 0 -303 59l-96 -149h-331l195 303q-232 227 -232 569zM388 744q0 -171 98 -305l500 773q-61 20 -136 21q-198 0 -330 -143.5t-132 -345.5z M711 275q70 -21 139 -21q195 0 327.5 143.5t132.5 346.5q0 172 -98 304z" />
<glyph unicode="&#xd9;" horiz-adv-x="1535" d="M153 588v903h305v-903q0 -137 88 -229.5t220 -92.5q135 0 223 92.5t88 229.5v903h305v-903q0 -271 -172.5 -442.5t-443 -171.5t-442 171.5t-171.5 442.5zM356 2073h362l187 -392h-273z" />
<glyph unicode="&#xda;" horiz-adv-x="1535" d="M153 588v903h305v-903q0 -137 88 -229.5t220 -92.5q135 0 223 92.5t88 229.5v903h305v-903q0 -271 -172.5 -442.5t-443 -171.5t-442 171.5t-171.5 442.5zM634 1681l189 392h362l-278 -392h-273z" />
<glyph unicode="&#xdb;" horiz-adv-x="1535" d="M153 588v903h305v-903q0 -137 88 -229.5t220 -92.5q135 0 223 92.5t88 229.5v903h305v-903q0 -271 -172.5 -442.5t-443 -171.5t-442 171.5t-171.5 442.5zM358 1681l225 392h367l228 -392h-271l-141 203l-138 -203h-270z" />
<glyph unicode="&#xdc;" horiz-adv-x="1535" d="M153 588v903h305v-903q0 -137 88 -229.5t220 -92.5q135 0 223 92.5t88 229.5v903h305v-903q0 -271 -172.5 -442.5t-443 -171.5t-442 171.5t-171.5 442.5zM362 1848.5q0 72.5 52.5 125t126.5 52.5q73 0 125 -52.5t52 -125t-52 -124.5t-125 -52q-75 0 -127 52t-52 124.5z M815 1848.5q0 72.5 52.5 125t127 52.5t126.5 -52.5t52 -125t-52 -124.5t-126.5 -52t-127 52t-52.5 124.5z" />
<glyph unicode="&#xdd;" horiz-adv-x="1378" d="M15 1491h337l296 -590l43 -104l39 102l296 592h337l-520 -1007v-484h-308v488zM556 1681l188 392h362l-277 -392h-273z" />
<glyph unicode="&#xde;" horiz-adv-x="1407" d="M168 0v1491h305v-223h334q230 0 382.5 -147.5t152.5 -375t-152.5 -374.5t-382.5 -147h-334v-224h-305zM473 509h334q100 0 168.5 69.5t68.5 167t-68.5 167t-168.5 69.5h-334v-473z" />
<glyph unicode="&#xdf;" horiz-adv-x="1331" d="M134 0v1016q0 230 139.5 374t358.5 144q205 0 343.5 -121.5t138.5 -315.5q0 -157 -120 -272q124 -51 195 -151.5t71 -236.5q0 -205 -143.5 -336t-358.5 -131q-128 0 -252 42l52 273q86 -45 188 -45q87 0 153 59t66 142q0 85 -66 142.5t-153 57.5h-193v255h79 q84 0 138.5 55t54.5 129q0 72 -54.5 121t-138.5 49q-89 0 -146.5 -66t-57.5 -168v-1016h-294z" />
<glyph unicode="&#xe0;" d="M75 532q0 232 141.5 398.5t358.5 166.5q104 0 195.5 -43.5t145.5 -118.5v130h281v-1065h-281v130q-53 -75 -146 -119.5t-195 -44.5q-217 0 -358.5 168.5t-141.5 397.5zM258 1646h362l187 -392h-272zM368 532.5q0 -117.5 78 -202.5t190 -85q169 0 271 139v297 q-100 136 -271 136q-113 0 -190.5 -83.5t-77.5 -201z" />
<glyph unicode="&#xe1;" d="M75 532q0 232 141.5 398.5t358.5 166.5q104 0 195.5 -43.5t145.5 -118.5v130h281v-1065h-281v130q-53 -75 -146 -119.5t-195 -44.5q-217 0 -358.5 168.5t-141.5 397.5zM368 532.5q0 -117.5 78 -202.5t190 -85q169 0 271 139v297q-100 136 -271 136q-113 0 -190.5 -83.5 t-77.5 -201zM537 1254l187 392h362l-277 -392h-272z" />
<glyph unicode="&#xe2;" d="M75 532q0 232 141.5 398.5t358.5 166.5q104 0 195.5 -43.5t145.5 -118.5v130h281v-1065h-281v130q-53 -75 -146 -119.5t-195 -44.5q-217 0 -358.5 168.5t-141.5 397.5zM260 1254l226 392h366l228 -392h-271l-140 205l-141 -205h-268zM368 532.5q0 -117.5 78 -202.5 t190 -85q169 0 271 139v297q-100 136 -271 136q-113 0 -190.5 -83.5t-77.5 -201z" />
<glyph unicode="&#xe3;" d="M75 532q0 232 141.5 398.5t358.5 166.5q104 0 195.5 -43.5t145.5 -118.5v130h281v-1065h-281v130q-53 -75 -146 -119.5t-195 -44.5q-217 0 -358.5 168.5t-141.5 397.5zM242 1268q0 146 77 233.5t209 87.5q73 0 159 -42.5t114 -42.5q77 0 77 79h232q0 -147 -76.5 -235 t-208.5 -88q-73 0 -159.5 43t-114.5 43q-77 0 -76 -78h-233zM368 532.5q0 -117.5 78 -202.5t190 -85q169 0 271 139v297q-100 136 -271 136q-113 0 -190.5 -83.5t-77.5 -201z" />
<glyph unicode="&#xe4;" d="M75 532q0 232 141.5 398.5t358.5 166.5q104 0 195.5 -43.5t145.5 -118.5v130h281v-1065h-281v130q-53 -75 -146 -119.5t-195 -44.5q-217 0 -358.5 168.5t-141.5 397.5zM264 1423q0 75 52 126t127 51q73 0 125 -52t52 -125t-52 -125t-125 -52q-75 0 -127 51t-52 126z M368 532.5q0 -117.5 78 -202.5t190 -85q169 0 271 139v297q-100 136 -271 136q-113 0 -190.5 -83.5t-77.5 -201zM718 1423q0 73 52.5 125t126.5 52t125 -52t51 -125t-51 -125t-125 -52t-126.5 52t-52.5 125z" />
<glyph unicode="&#xe5;" d="M75 532q0 232 141.5 398.5t358.5 166.5q104 0 195.5 -43.5t145.5 -118.5v130h281v-1065h-281v130q-53 -75 -146 -119.5t-195 -44.5q-217 0 -358.5 168.5t-141.5 397.5zM364 1474q0 128 88.5 215t216.5 87t216 -87t88 -215t-88 -215.5t-216 -87.5t-216.5 87.5t-88.5 215.5 zM368 532.5q0 -117.5 78 -202.5t190 -85q169 0 271 139v297q-100 136 -271 136q-113 0 -190.5 -83.5t-77.5 -201zM563 1473.5q0 -44.5 30.5 -76t75 -31.5t75.5 31.5t31 76t-31 77t-75.5 32.5t-75 -32.5t-30.5 -77z" />
<glyph unicode="&#xe6;" horiz-adv-x="1896" d="M66 330q0 158 120.5 237t309.5 79h277v16q0 82 -49 128.5t-141 46.5q-181 0 -400 -104l-57 266q230 98 462 98q240 0 357 -142q53 55 146.5 100.5t209.5 45.5q234 0 384.5 -158.5t150.5 -393.5q0 -73 -13 -132h-760q6 -81 83 -138t187 -57q149 0 313 110l43 -275 q-160 -95 -356 -95q-287 0 -437 191q-63 -83 -171.5 -135t-230.5 -52q-179 0 -303.5 100t-124.5 264zM356 337q0 -45 41.5 -75t106.5 -30q90 0 168 31t118 78q-13 59 -17 102h-269q-65 0 -106.5 -28.5t-41.5 -77.5zM1057 630h481q-2 90 -76 154t-165.5 64t-164.5 -64 t-75 -154z" />
<glyph unicode="&#xe7;" horiz-adv-x="1061" d="M73 528q0 243 166 409t411 166q205 0 342 -91l-53 -286q-75 49 -135 70t-150 21q-122 0 -205 -84.5t-83 -204t83 -203t205 -83.5q90 0 151 23t136 72l51 -288q-115 -71 -244 -87l-102 -356h-311l163 368q-189 47 -307 199.5t-118 354.5z" />
<glyph unicode="&#xe8;" horiz-adv-x="1268" d="M73 530q0 243 164.5 409.5t408.5 166.5q247 0 405.5 -157t158.5 -376q0 -85 -15 -156h-821q28 -96 109.5 -149t201.5 -53q167 0 346 117l46 -283q-168 -96 -389 -96q-282 0 -448.5 164t-166.5 413zM230 1646h362l188 -392h-274zM372 632h542q-21 102 -90.5 159t-177.5 57 q-102 0 -176 -59t-98 -157z" />
<glyph unicode="&#xe9;" horiz-adv-x="1268" d="M73 530q0 243 164.5 409.5t408.5 166.5q247 0 405.5 -157t158.5 -376q0 -85 -15 -156h-821q28 -96 109.5 -149t201.5 -53q167 0 346 117l46 -283q-168 -96 -389 -96q-282 0 -448.5 164t-166.5 413zM372 632h542q-21 102 -90.5 159t-177.5 57q-102 0 -176 -59t-98 -157z M509 1254l188 392h362l-277 -392h-273z" />
<glyph unicode="&#xea;" horiz-adv-x="1268" d="M73 530q0 243 164.5 409.5t408.5 166.5q247 0 405.5 -157t158.5 -376q0 -85 -15 -156h-821q28 -96 109.5 -149t201.5 -53q167 0 346 117l46 -283q-168 -96 -389 -96q-282 0 -448.5 164t-166.5 413zM232 1254l226 392h367l225 -392h-268l-141 205l-141 -205h-268zM372 632 h542q-21 102 -90.5 159t-177.5 57q-102 0 -176 -59t-98 -157z" />
<glyph unicode="&#xeb;" horiz-adv-x="1268" d="M73 530q0 243 164.5 409.5t408.5 166.5q247 0 405.5 -157t158.5 -376q0 -85 -15 -156h-821q28 -96 109.5 -149t201.5 -53q167 0 346 117l46 -283q-168 -96 -389 -96q-282 0 -448.5 164t-166.5 413zM236 1423q0 73 52.5 125t124.5 52q75 0 127 -51t52 -126t-52 -126 t-127 -51q-73 0 -125 52t-52 125zM372 632h542q-21 102 -90.5 159t-177.5 57q-102 0 -176 -59t-98 -157zM691 1423q0 73 52 125t126 52q73 0 125 -52t52 -125t-52 -125t-125 -52q-74 0 -126 52t-52 125z" />
<glyph unicode="&#xec;" horiz-adv-x="563" d="M-128 1646h362l188 -392h-273zM134 0v1065h297v-1065h-297z" />
<glyph unicode="&#xed;" horiz-adv-x="563" d="M134 0v1065h297v-1065h-297zM151 1254l188 392h362l-277 -392h-273z" />
<glyph unicode="&#xee;" horiz-adv-x="563" d="M-128 1254l228 392h367l226 -392h-269l-141 205l-141 -205h-270zM134 0v1065h297v-1065h-297z" />
<glyph unicode="&#xef;" horiz-adv-x="563" d="M-124 1423q0 73 52.5 125t127 52t126.5 -52t52 -125t-52 -125t-126.5 -52t-127 52t-52.5 125zM134 0v1065h297v-1065h-297zM332 1423q0 75 52.5 126t127.5 51q72 0 124 -52t52 -125t-52 -125t-124 -52q-75 0 -127.5 51t-52.5 126z" />
<glyph unicode="&#xf0;" horiz-adv-x="1277" d="M75 514q0 223 145.5 367.5t358.5 144.5q194 0 309 -121q-63 185 -209 320l-272 -160l-120 205l184 108q-59 34 -170 87l134 228q151 -65 285 -168l232 136l119 -204l-168 -98q287 -321 288 -763q0 -292 -161 -461t-404 -169q-226 0 -388.5 160.5t-162.5 387.5zM364 514 q0 -108 78 -186t184 -78q110 0 187 77.5t77 186.5q0 106 -76.5 181.5t-187.5 75.5q-106 0 -184 -75.5t-78 -181.5z" />
<glyph unicode="&#xf1;" horiz-adv-x="1321" d="M134 0v1065h283l2 -151q64 85 161.5 133t205.5 48q185 0 298 -127t113 -318v-650h-294v596q0 100 -51 160.5t-147 60.5q-77 0 -157.5 -56t-116.5 -135v-626h-297zM250 1268q0 146 76 233.5t209 87.5q74 0 159.5 -42.5t112.5 -42.5q79 0 79 79h230q0 -147 -76.5 -235 t-206.5 -88q-75 0 -159.5 43t-112.5 43q-79 0 -79 -78h-232z" />
<glyph unicode="&#xf2;" horiz-adv-x="1298" d="M73 530.5q0 240.5 167 408t409.5 167.5t410 -167.5t167.5 -408t-167.5 -408t-410 -167.5t-409.5 167.5t-167 408zM238 1646h363l187 -392h-272zM364 532.5q0 -121.5 83 -209t203 -87.5q118 0 200.5 87.5t82.5 208.5q0 120 -82.5 206.5t-200.5 86.5q-122 0 -204 -85.5 t-82 -207z" />
<glyph unicode="&#xf3;" horiz-adv-x="1298" d="M73 530.5q0 240.5 167 408t409.5 167.5t410 -167.5t167.5 -408t-167.5 -408t-410 -167.5t-409.5 167.5t-167 408zM364 532.5q0 -121.5 83 -209t203 -87.5q118 0 200.5 87.5t82.5 208.5q0 120 -82.5 206.5t-200.5 86.5q-122 0 -204 -85.5t-82 -207zM518 1254l187 392h362 l-277 -392h-272z" />
<glyph unicode="&#xf4;" horiz-adv-x="1298" d="M73 530.5q0 240.5 167 408t409.5 167.5t410 -167.5t167.5 -408t-167.5 -408t-410 -167.5t-409.5 167.5t-167 408zM238 1254l229 392h366l226 -392h-269l-140 205l-141 -205h-271zM364 532.5q0 -121.5 83 -209t203 -87.5q118 0 200.5 87.5t82.5 208.5q0 120 -82.5 206.5 t-200.5 86.5q-122 0 -204 -85.5t-82 -207z" />
<glyph unicode="&#xf5;" horiz-adv-x="1298" d="M73 530.5q0 240.5 167 408t409.5 167.5t410 -167.5t167.5 -408t-167.5 -408t-410 -167.5t-409.5 167.5t-167 408zM224 1268q0 146 76 233.5t206 87.5q75 0 160.5 -42.5t113.5 -42.5q78 0 78 79h231q0 -147 -77 -235t-207 -88q-75 0 -159.5 43t-113.5 43q-79 0 -79 -78 h-229zM364 532.5q0 -121.5 83 -209t203 -87.5q118 0 200.5 87.5t82.5 208.5q0 120 -82.5 206.5t-200.5 86.5q-122 0 -204 -85.5t-82 -207z" />
<glyph unicode="&#xf6;" horiz-adv-x="1298" d="M73 530.5q0 240.5 167 408t409.5 167.5t410 -167.5t167.5 -408t-167.5 -408t-410 -167.5t-409.5 167.5t-167 408zM242 1423q0 73 52.5 125t127 52t127 -52t52.5 -125t-52.5 -125t-127 -52t-127 52t-52.5 125zM364 532.5q0 -121.5 83 -209t203 -87.5q118 0 200.5 87.5 t82.5 208.5q0 120 -82.5 206.5t-200.5 86.5q-122 0 -204 -85.5t-82 -207zM699 1423q0 73 51 125t125.5 52t127 -51t52.5 -126t-52.5 -126t-127 -51t-125.5 52t-51 125z" />
<glyph unicode="&#xf7;" horiz-adv-x="1290" d="M100 486v272h1091v-272h-1091zM456 187q0 77 56.5 133t133 56t133 -56t56.5 -133t-56.5 -132t-133 -55t-133 55t-56.5 132zM456 1061q0 77 56.5 133t133 56t133 -56t56.5 -133t-56.5 -132t-133 -55t-133 55t-56.5 132z" />
<glyph unicode="&#xf8;" horiz-adv-x="1298" d="M73 530q0 241 167 408.5t410 167.5q115 0 219 -43l81 134h225l-142 -234q193 -171 194 -433q0 -240 -167.5 -407.5t-409.5 -167.5q-113 0 -213 39l-90 -147h-225l150 245q-200 172 -199 438zM364 532q0 -104 64 -187l288 470q-29 9 -66 10q-122 0 -204 -85.5t-82 -207.5z M590 242q28 -6 60 -6q118 0 200.5 87.5t82.5 208.5q0 96 -57 175z" />
<glyph unicode="&#xf9;" horiz-adv-x="1321" d="M124 415v650h295v-596q0 -100 51.5 -160.5t147.5 -60.5q77 0 157.5 56t116.5 135v626h295v-1065h-282l-2 151q-64 -85 -160.5 -133t-205.5 -48q-185 0 -299 127t-114 318zM252 1646h362l187 -392h-273z" />
<glyph unicode="&#xfa;" horiz-adv-x="1321" d="M124 415v650h295v-596q0 -100 51.5 -160.5t147.5 -60.5q77 0 157.5 56t116.5 135v626h295v-1065h-282l-2 151q-64 -85 -160.5 -133t-205.5 -48q-185 0 -299 127t-114 318zM530 1254l188 392h362l-277 -392h-273z" />
<glyph unicode="&#xfb;" horiz-adv-x="1321" d="M124 415v650h295v-596q0 -100 51.5 -160.5t147.5 -60.5q77 0 157.5 56t116.5 135v626h295v-1065h-282l-2 151q-64 -85 -160.5 -133t-205.5 -48q-185 0 -299 127t-114 318zM254 1254l225 392h367l225 -392h-268l-141 205l-140 -205h-268z" />
<glyph unicode="&#xfc;" horiz-adv-x="1321" d="M124 415v650h295v-596q0 -100 51.5 -160.5t147.5 -60.5q77 0 157.5 56t116.5 135v626h295v-1065h-282l-2 151q-64 -85 -160.5 -133t-205.5 -48q-185 0 -299 127t-114 318zM258 1423q0 73 52 125t125 52q75 0 127 -51t52 -126t-52 -126t-127 -51q-73 0 -125 52t-52 125z M711 1423q0 73 52 125t127 52q73 0 125 -52t52 -125t-52 -125t-125 -52q-75 0 -127 52t-52 125z" />
<glyph unicode="&#xfd;" horiz-adv-x="1201" d="M36 1065h332l199 -605l36 -137l36 137l204 605h332l-594 -1512h-329l189 447zM469 1254l189 392h360l-274 -392h-275z" />
<glyph unicode="&#xfe;" horiz-adv-x="1331" d="M134 -426v1917h294v-471l-11 -85q53 75 145 118.5t196 43.5q218 0 359 -166.5t141 -398.5q0 -229 -141 -397.5t-359 -168.5q-100 0 -192.5 44.5t-146.5 117.5l12 -85v-469h-297zM426 384q102 -139 271 -139q113 0 190.5 85t77.5 202.5t-78 201t-190 83.5 q-171 0 -271 -136v-297z" />
<glyph unicode="&#xff;" horiz-adv-x="1201" d="M36 1065h332l199 -605l36 -137l36 137l204 605h332l-594 -1512h-329l189 447zM196 1423q0 73 52.5 125t125.5 52t125 -52t52 -125t-52 -125t-125 -52q-74 0 -126 52t-52 125zM652 1423q0 73 51 125t125.5 52t127 -52t52.5 -125t-52.5 -125t-127 -52t-125.5 52t-51 125z " />
<glyph unicode="&#x152;" horiz-adv-x="2429" d="M83 743q0 330 217.5 556t542.5 226q287 0 480 -168v134h1012v-288h-748v-317h649v-270h-649v-329h748v-287h-1012v132q-189 -170 -480 -170q-325 0 -542.5 225.5t-217.5 555.5zM388 743q0 -202 130 -345.5t325.5 -143.5t327.5 144.5t132 344.5t-132 345t-327.5 145 t-325.5 -144t-130 -346z" />
<glyph unicode="&#x153;" horiz-adv-x="2138" d="M73 530.5q0 240.5 167 408t410 167.5q262 0 432 -192q168 192 432 192q246 0 404.5 -157t158.5 -376q0 -104 -16 -156h-817q28 -96 108.5 -149t202.5 -53q166 0 345 117l45 -283q-169 -96 -390 -96q-307 0 -475 192q-169 -190 -430 -190q-242 0 -409.5 167.5t-167.5 408z M364 532.5q0 -121.5 83 -209t203 -87.5q118 0 200.5 87.5t82.5 208.5q0 120 -83.5 206.5t-199.5 86.5q-122 0 -204 -85.5t-82 -207zM1242 632h541q-21 102 -91 159t-178 57q-102 0 -175 -59t-97 -157z" />
<glyph unicode="&#x178;" horiz-adv-x="1378" d="M15 1491h337l296 -590l43 -104l39 102l296 592h337l-520 -1007v-484h-308v488zM283 1848.5q0 74.5 52.5 126t127 51.5t125.5 -52.5t51 -125t-51 -124.5t-125.5 -52t-127 51t-52.5 125.5zM737 1848.5q0 72.5 52 125t127 52.5q73 0 125 -52.5t52 -125t-52 -124.5t-125 -52 q-75 0 -127 52t-52 124.5z" />
<glyph unicode="&#x2c6;" horiz-adv-x="947" d="M63 1254l227 392h366l228 -392h-270l-141 205l-138 -205h-272z" />
<glyph unicode="&#x2dc;" horiz-adv-x="1010" d="M73 1268q0 146 76.5 233.5t208.5 87.5q73 0 159 -42.5t113 -42.5q77 0 77 79h232q0 -147 -76.5 -235t-208.5 -88q-73 0 -159 43t-113 43q-77 0 -77 -78h-232z" />
<glyph unicode="&#x2000;" horiz-adv-x="1101" />
<glyph unicode="&#x2001;" horiz-adv-x="2203" />
<glyph unicode="&#x2002;" horiz-adv-x="1101" />
<glyph unicode="&#x2003;" horiz-adv-x="2203" />
<glyph unicode="&#x2004;" horiz-adv-x="734" />
<glyph unicode="&#x2005;" horiz-adv-x="550" />
<glyph unicode="&#x2006;" horiz-adv-x="367" />
<glyph unicode="&#x2007;" horiz-adv-x="367" />
<glyph unicode="&#x2008;" horiz-adv-x="275" />
<glyph unicode="&#x2009;" horiz-adv-x="440" />
<glyph unicode="&#x200a;" horiz-adv-x="122" />
<glyph unicode="&#x2010;" horiz-adv-x="1057" d="M124 462v280h809v-280h-809z" />
<glyph unicode="&#x2011;" horiz-adv-x="1057" d="M124 462v280h809v-280h-809z" />
<glyph unicode="&#x2012;" horiz-adv-x="1057" d="M124 462v280h809v-280h-809z" />
<glyph unicode="&#x2013;" horiz-adv-x="1307" d="M124 742h1058v-280h-1056z" />
<glyph unicode="&#x2014;" horiz-adv-x="1790" d="M124 742h1542v-280h-1540z" />
<glyph unicode="&#x2018;" horiz-adv-x="536" d="M69 1350q0 49 27 126l126 324h240l-117 -280q106 -48 106 -170q0 -79 -55 -133t-136 -54t-136 54.5t-55 132.5z" />
<glyph unicode="&#x2019;" horiz-adv-x="565" d="M100 967l119 279q-108 51 -109 170q0 80 57 134t136 54q81 0 137 -54t56 -134q0 -40 -29 -125l-124 -324h-243z" />
<glyph unicode="&#x201a;" horiz-adv-x="561" d="M77 -319l119 278q-107 53 -107 171q0 79 56 133t136.5 54t136 -54t55.5 -133q0 -53 -30 -126l-124 -323h-242z" />
<glyph unicode="&#x201c;" horiz-adv-x="1017" d="M69 1350q0 49 27 126l126 324h240l-117 -280q106 -48 106 -170q0 -79 -55 -133t-136 -54t-136 54.5t-55 132.5zM547 1350q0 53 30 126l124 324h242l-118 -280q106 -53 106 -170q0 -79 -55.5 -133t-136.5 -54t-136.5 54.5t-55.5 132.5z" />
<glyph unicode="&#x201d;" horiz-adv-x="1045" d="M100 967l119 279q-108 51 -109 170q0 80 57 134t136 54q81 0 137 -54t56 -134q0 -40 -29 -125l-124 -324h-243zM579 967l120 279q-106 53 -107 170q0 80 55.5 134t136 54t136.5 -54t56 -134q0 -48 -31 -125l-122 -324h-244z" />
<glyph unicode="&#x201e;" horiz-adv-x="1045" d="M77 -319l119 278q-107 53 -107 171q0 79 56 133t136.5 54t136 -54t55.5 -133q0 -53 -30 -126l-124 -323h-242zM558 -319l119 278q-106 53 -106 171q0 79 55 133t136 54t137 -54t56 -133q0 -53 -30 -126l-124 -323h-243z" />
<glyph unicode="&#x2022;" horiz-adv-x="974" d="M134 701q0 147 104.5 250.5t249.5 103.5q146 0 249.5 -103.5t103.5 -250.5q0 -145 -103.5 -249.5t-249.5 -104.5q-145 0 -249.5 104.5t-104.5 249.5z" />
<glyph unicode="&#x2026;" horiz-adv-x="1644" d="M87 130q0 77 57 133t135 56q77 0 133.5 -56t56.5 -133q0 -79 -56.5 -135t-133.5 -56q-79 0 -135.5 56t-56.5 135zM624 130q0 77 56.5 133t135 56t135.5 -56t57 -133q0 -79 -57 -135t-135.5 -56t-135 56t-56.5 135zM1175 130q0 77 57 133t136 56t135 -56t56 -133 q0 -79 -56 -135t-135 -56t-136 56t-57 135z" />
<glyph unicode="&#x202f;" horiz-adv-x="440" />
<glyph unicode="&#x2039;" horiz-adv-x="685" d="M69 541l244 437h294l-247 -437l247 -437h-294z" />
<glyph unicode="&#x203a;" horiz-adv-x="685" d="M79 104l247 437l-247 437h293l248 -437l-248 -437h-293z" />
<glyph unicode="&#x205f;" horiz-adv-x="550" />
<glyph unicode="&#x20ac;" horiz-adv-x="1435" d="M85 486v202h130l-2 58q0 49 2 71h-130v203h171q77 228 262 366.5t443 138.5q201 0 379 -104l-66 -297q-130 114 -313 114q-258 0 -380 -218h480v-203h-543q-4 -46 -4 -71q0 -39 2 -58h545v-202h-488q55 -108 155.5 -172t232.5 -64q175 0 313 112l66 -296 q-156 -104 -379 -104q-262 0 -450 144t-259 380h-167z" />
<glyph unicode="&#x2122;" horiz-adv-x="1460" d="M83 1312v179h515v-179h-161v-403h-189v403h-165zM675 909v582h192l129 -235l130 235h193v-582h-189v139l16 179l-55 -105l-56 -110h-76l-111 219l14 -183v-139h-187z" />
<glyph unicode="&#x25fc;" horiz-adv-x="1064" d="M0 0v1065h1065v-1065h-1065z" />
<glyph unicode="&#xfb03;" horiz-adv-x="2161" d="M57 803v262h183v102q0 209 116.5 323t316.5 114q104 0 232 -43l-49 -270q-96 36 -166 36t-112.5 -44.5t-42.5 -115.5v-102h453v100q0 213 121.5 329t345.5 116q193 0 407 -81l-53 -281q-203 85 -346 85q-87 0 -134 -44.5t-47 -123.5v-100h746v-1065h-296v803h-450v-803 h-294v803h-453v-803h-297l2 803h-183z" />
</font>
</defs>
</svg>
