<svg id="Layer_1" data-name="Layer 1" xmlns="http://www.w3.org/2000/svg" viewBox="0 0 60.2758 50.9787"><defs><style>.cls-1{fill:none;stroke:#000;stroke-miterlimit:10;}</style></defs><title>logo</title><path class="cls-1" d="M63.3633,81.8984,58.7147,77.25l4.6486-4.6485,9.297-9.2971-9.297-9.2971,3.6624-3.6625a1.3946,1.3946,0,0,1,1.9722,0l12.96,12.96Z" transform="translate(-49.4953 -49.4362)"/><path class="cls-1" d="M91.2545,81.8984l-17.608,17.608a1.3947,1.3947,0,0,1-1.9723,0L68.0118,95.844,81.9574,81.8984,72.66,72.6013l4.6486-4.6486Z" transform="translate(-49.4953 -49.4362)"/><path class="cls-1" d="M108.8626,73.5874l-21.27,21.2705a1.3946,1.3946,0,0,1-1.9722,0l-3.6625-3.6625L99.8942,73.2587a.93.93,0,0,0,0-1.3148L87.2634,59.313a.93.93,0,0,0-1.3148,0l-3.9912,3.9912-4.6485-4.6486,8.311-8.311a1.3946,1.3946,0,0,1,1.9722,0l21.2705,21.2706A1.3946,1.3946,0,0,1,108.8626,73.5874Z" transform="translate(-49.4953 -49.4362)"/><path class="cls-1" d="M99.8942,73.2587l-8.64,8.64L86.606,77.25l3.9911-3.9911a.93.93,0,0,0,0-1.3148L87.2634,68.61a.93.93,0,0,0-1.3148,0l-3.9912,3.9912-4.6485-4.6486,8.64-8.64a.93.93,0,0,1,1.3148,0L99.8942,71.9439A.93.93,0,0,1,99.8942,73.2587Z" transform="translate(-49.4953 -49.4362)"/><path class="cls-1" d="M81.9574,81.8984l-4.6485,4.6485-3.9912-3.9911a.93.93,0,0,0-1.3148,0L68.6692,85.89a.93.93,0,0,0,0,1.3148L72.66,91.1954,68.0118,95.844l-8.311-8.311a1.3946,1.3946,0,0,1,0-1.9722l12.96-12.96Z" transform="translate(-49.4953 -49.4362)"/><path class="cls-1" d="M72.66,63.3042l-4.6485,4.6485-3.9911-3.9911a.93.93,0,0,0-1.3149,0l-3.3337,3.3337a.93.93,0,0,0,0,1.3148l3.9912,3.9912L58.7147,77.25l-8.311-8.311a1.3946,1.3946,0,0,1,0-1.9722l12.96-12.9595Z" transform="translate(-49.4953 -49.4362)"/></svg>